<?xml version="1.0" standalone="no"?>
<!DOCTYPE svg PUBLIC "-//W3C//DTD SVG 20010904//EN"
 "http://www.w3.org/TR/2001/REC-SVG-20010904/DTD/svg10.dtd">
<svg version="1.0" xmlns="http://www.w3.org/2000/svg"
 width="681.000000pt" height="681.000000pt" viewBox="0 0 681.000000 681.000000"
 preserveAspectRatio="xMidYMid meet">
<metadata>
Created by potrace 1.14, written by Peter Selinger 2001-2017
</metadata>
<g transform="translate(0.000000,681.000000) scale(0.100000,-0.100000)"
fill="#000000" stroke="none">
<path d="M3156 5119 c-556 -58 -1063 -326 -1369 -724 -80 -104 -177 -265 -214
-357 -41 -100 -46 -112 -48 -123 -1 -5 -9 -30 -18 -55 -43 -129 -67 -313 -62
-490 8 -275 83 -524 234 -775 20 -33 38 -62 41 -65 3 -3 25 -32 50 -65 192
-259 485 -475 825 -610 132 -52 343 -107 466 -120 30 -4 61 -9 69 -12 27 -9
353 -11 440 -2 407 41 776 186 1071 423 250 200 433 443 543 723 38 95 73 218
82 288 3 22 9 69 13 105 12 93 5 321 -13 418 -62 336 -207 610 -456 863 -134
136 -224 207 -370 293 -251 148 -517 242 -775 272 -27 4 -54 9 -58 11 -15 9
-370 10 -451 2z"/>
</g>
</svg>
