<?xml version="1.0" standalone="no"?>
<!DOCTYPE svg PUBLIC "-//W3C//DTD SVG 20010904//EN"
 "https://www.w3.org/TR/2001/REC-SVG-20010904/DTD/svg10.dtd">
<svg version="1.0" xmlns="https://www.w3.org/2000/svg"
 width="216.000000pt" height="190.000000pt" viewBox="0 0 216.000000 190.000000"
 preserveAspectRatio="xMidYMid meet">

<g transform="translate(0.000000,190.000000) scale(0.100000,-0.100000)"
fill="#000000" stroke="none">
<path d="M154 879 c-60 -17 -114 -103 -114 -180 0 -48 31 -119 64 -144 43 -33
102 -41 149 -21 40 16 45 27 23 45 -11 9 -20 9 -35 2 -33 -18 -61 -12 -92 18
-27 27 -29 35 -29 106 0 71 2 79 29 106 30 29 50 34 86 20 22 -9 45 4 45 24 0
14 -51 36 -79 34 -9 0 -30 -5 -47 -10z"/>
<path d="M1123 879 c-92 -27 -140 -163 -94 -265 35 -78 118 -112 195 -80 33
14 36 18 26 36 -8 15 -17 19 -28 15 -38 -16 -53 -17 -81 -6 -15 7 -34 23 -41
35 -16 32 -17 134 -1 173 17 41 61 61 99 44 22 -11 28 -10 39 5 19 27 16 32
-24 43 -44 12 -47 12 -90 0z"/>
<path d="M796 868 c-3 -7 -27 -83 -55 -168 -28 -85 -51 -159 -51 -163 0 -5 15
-7 33 -5 28 3 33 8 41 41 l10 37 57 0 58 0 12 -40 c11 -36 15 -40 46 -40 18 0
33 1 33 3 0 2 -24 80 -54 173 l-53 169 -37 3 c-23 2 -38 -1 -40 -10z m66 -177
c3 -23 0 -26 -27 -23 -16 2 -32 6 -34 7 -4 5 19 105 27 120 7 10 30 -62 34
-104z"/>
<path d="M1350 705 l0 -175 30 0 30 0 0 80 0 80 55 0 55 0 0 -80 0 -80 35 0
35 0 0 175 0 175 -35 0 -35 0 0 -70 0 -70 -55 0 -55 0 0 70 0 70 -30 0 -30 0
0 -175z"/>
<path d="M1860 730 c0 -145 1 -152 24 -175 46 -46 158 -42 202 6 16 18 19 41
22 170 l3 149 -35 0 -36 0 0 -134 c0 -149 -6 -166 -60 -166 -54 0 -60 17 -60
166 l0 134 -30 0 -30 0 0 -150z"/>
</g>
</svg>
