<?xml version="1.0" standalone="no"?>
<!DOCTYPE svg PUBLIC "-//W3C//DTD SVG 20010904//EN"
 "http://www.w3.org/TR/2001/REC-SVG-20010904/DTD/svg10.dtd">
<svg version="1.0" xmlns="http://www.w3.org/2000/svg"
 width="600.000000pt" height="200.000000pt" viewBox="0 0 600.000000 200.000000"
 preserveAspectRatio="xMidYMid meet">

<g transform="translate(0.000000,200.000000) scale(0.100000,-0.100000)"
fill="#000000" stroke="none">
<path d="M0 1900 l0 -100 3000 0 3000 0 0 100 0 100 -3000 0 -3000 0 0 -100z"/>
<path d="M1961 1602 c-34 -35 -38 -37 -61 -24 -30 16 -282 10 -344 -8 -49 -15
-96 -60 -96 -94 0 -42 21 -77 44 -74 18 3 21 9 18 45 -3 51 18 69 93 80 l48 6
-6 -34 c-49 -278 -55 -324 -46 -342 12 -21 48 -20 59 3 5 8 20 92 35 185 15
94 29 174 32 178 3 4 44 7 92 6 l87 -2 -17 -67 c-19 -75 -35 -256 -25 -294 7
-28 36 -35 54 -13 6 7 20 37 31 68 12 31 31 65 42 75 l21 19 -7 -71 c-8 -76 5
-104 46 -104 25 0 71 23 89 45 12 14 16 13 39 -8 33 -31 64 -41 105 -33 42 8
76 40 76 71 0 31 -5 31 -42 0 -30 -26 -45 -29 -72 -19 -26 10 -18 22 28 43 24
10 49 28 55 39 31 58 -6 118 -66 109 -54 -9 -80 -32 -100 -87 -21 -60 -64
-106 -89 -96 -13 5 -15 13 -10 39 4 17 10 56 13 84 5 44 3 54 -12 59 -27 11
-78 -22 -108 -69 -23 -34 -27 -37 -27 -18 0 12 21 48 46 79 26 31 55 75 65 97
25 53 25 127 1 148 -28 26 -52 20 -91 -21z m59 -58 c0 -36 -38 -121 -63 -142
-13 -11 -13 -6 -6 35 25 131 69 200 69 107z m274 -220 c7 -18 -35 -64 -59 -64
-12 0 -15 6 -9 23 14 48 56 73 68 41z"/>
<path d="M3865 1577 c-25 -25 -40 -55 -56 -110 -18 -60 -27 -77 -43 -79 -28
-4 -35 -48 -8 -48 16 0 20 -10 25 -65 7 -74 18 -98 52 -121 34 -22 90 -11 112
22 12 19 13 28 4 37 -8 8 -14 8 -23 -1 -16 -16 -53 -15 -65 1 -13 16 -23 80
-16 106 4 17 15 21 62 23 49 3 56 6 59 26 3 19 -1 22 -32 22 l-36 0 31 44 c53
75 42 176 -19 176 -8 0 -29 -15 -47 -33z m55 -50 c-1 -29 -32 -98 -53 -116
-15 -12 -16 -10 -11 20 9 49 25 102 36 116 14 17 28 7 28 -20z"/>
<path d="M5035 1577 c-25 -25 -40 -55 -56 -110 -18 -60 -27 -77 -43 -79 -28
-4 -35 -48 -8 -48 16 0 20 -10 25 -65 7 -78 18 -100 59 -121 41 -21 93 -13
128 21 l26 25 23 -24 c57 -60 181 -33 181 39 0 31 -5 31 -42 0 -30 -26 -45
-29 -72 -19 -26 10 -18 22 28 43 24 10 49 28 55 39 31 58 -6 118 -66 109 -53
-9 -79 -31 -98 -84 -22 -60 -65 -103 -105 -103 -34 0 -47 18 -50 70 -5 68 -5
69 58 72 50 3 57 6 60 26 3 19 -1 22 -32 22 l-36 0 31 44 c53 75 42 176 -19
176 -8 0 -29 -15 -47 -33z m55 -50 c-1 -29 -32 -98 -53 -116 -15 -12 -16 -10
-11 20 9 49 25 102 36 116 14 17 28 7 28 -20z m204 -203 c7 -18 -35 -64 -59
-64 -12 0 -15 6 -9 23 14 48 56 73 68 41z"/>
<path d="M2642 1573 c-41 -20 -86 -77 -78 -98 8 -22 19 -19 51 15 16 17 39 30
52 30 20 0 23 -5 23 -37 0 -21 -9 -92 -20 -158 -25 -155 -25 -172 1 -180 33
-11 45 11 67 123 23 114 69 224 102 242 11 6 31 10 43 8 31 -4 33 -43 8 -180
-26 -139 -27 -186 -5 -195 33 -13 48 12 65 108 29 164 82 269 135 269 14 0 27
-7 31 -16 3 -9 -4 -62 -16 -118 -27 -129 -27 -185 -1 -214 40 -42 97 -41 155
4 28 21 34 22 39 9 3 -9 22 -23 43 -31 47 -20 109 -11 152 20 l32 24 23 -23
c47 -47 133 -41 196 12 18 15 30 34 30 49 0 29 -11 31 -34 5 -26 -29 -91 -54
-120 -47 -37 9 -32 22 18 45 24 10 49 28 55 39 31 58 -6 118 -66 109 -53 -9
-79 -31 -98 -84 -29 -80 -105 -130 -156 -102 -22 11 -21 12 24 35 51 27 67 48
67 93 0 32 -30 61 -63 61 -53 0 -117 -59 -117 -108 0 -24 -63 -82 -88 -82 -47
0 -52 38 -22 165 11 47 20 108 20 135 0 41 -4 52 -26 69 -15 12 -36 21 -46 21
-41 0 -89 -33 -116 -79 l-27 -46 -3 42 c-3 46 -37 83 -74 83 -46 0 -110 -55
-138 -120 -9 -22 -10 -21 -6 13 12 91 -35 128 -112 90z m765 -250 c6 -16 -36
-63 -58 -63 -14 0 -11 33 7 58 18 26 42 29 51 5z m237 1 c7 -18 -35 -64 -59
-64 -12 0 -15 6 -9 23 14 48 56 73 68 41z"/>
<path d="M4416 1575 c-75 -27 -127 -96 -146 -195 -24 -124 44 -220 164 -235
56 -7 153 8 195 30 22 11 27 10 46 -13 26 -31 58 -24 84 19 l18 30 6 -30 c8
-39 42 -49 91 -26 42 20 66 50 66 82 0 31 -11 29 -45 -7 -28 -30 -49 -37 -59
-22 -2 4 2 37 9 72 21 95 20 112 -7 108 -17 -2 -28 -18 -48 -69 -26 -69 -45
-99 -63 -99 -9 0 -6 55 9 138 5 28 4 32 -15 32 -28 0 -50 -38 -58 -97 l-5 -50
-52 -17 c-125 -39 -202 -28 -244 34 -21 30 -23 43 -19 97 5 72 29 118 77 150
64 44 126 17 113 -49 -5 -28 7 -47 29 -48 19 0 38 35 38 71 0 53 -14 78 -55
95 -42 17 -79 17 -129 -1z"/>
<path d="M4052 1333 c-29 -4 -33 -8 -30 -31 3 -27 4 -27 68 -24 68 4 97 19 87
46 -6 16 -44 19 -125 9z"/>
<path d="M733 1233 c9 -2 23 -2 30 0 6 3 -1 5 -18 5 -16 0 -22 -2 -12 -5z"/>
<path d="M800 1216 c0 -2 8 -10 18 -17 15 -13 16 -12 3 4 -13 16 -21 21 -21
13z"/>
<path d="M635 1179 c-4 -6 -5 -12 -2 -15 2 -3 7 2 10 11 7 17 1 20 -8 4z"/>
<path d="M736 1138 c10 -14 21 -24 23 -22 3 3 -6 15 -18 27 l-24 22 19 -27z"/>
<path d="M565 1119 c-4 -6 -5 -12 -2 -15 2 -3 7 2 10 11 7 17 1 20 -8 4z"/>
<path d="M762 1080 c0 -14 2 -19 5 -12 2 6 2 18 0 25 -3 6 -5 1 -5 -13z"/>
<path d="M804 1038 l-29 -33 33 29 c30 28 37 36 29 36 -2 0 -16 -15 -33 -32z"/>
<path d="M668 1022 c19 -18 22 -25 12 -37 -7 -8 -16 -12 -21 -9 -5 3 -9 -3 -9
-12 0 -14 6 -12 30 11 27 26 29 30 13 38 -10 6 -25 15 -33 21 -9 6 -5 1 8 -12z"/>
<path d="M739 1033 c-13 -16 -12 -17 4 -4 9 7 17 15 17 17 0 8 -8 3 -21 -13z"/>
<path d="M638 993 c7 -3 16 -2 19 1 4 3 -2 6 -13 5 -11 0 -14 -3 -6 -6z"/>
<path d="M778 993 c7 -3 16 -2 19 1 4 3 -2 6 -13 5 -11 0 -14 -3 -6 -6z"/>
<path d="M617 973 c-4 -3 -7 -11 -7 -17 0 -6 5 -5 12 2 6 6 9 14 7 17 -3 3 -9
2 -12 -2z"/>
<path d="M770 971 c0 -5 7 -11 15 -15 9 -3 15 0 15 9 0 8 -7 15 -15 15 -8 0
-15 -4 -15 -9z"/>
<path d="M830 970 c-13 -8 -13 -10 2 -10 9 0 20 5 23 10 8 13 -5 13 -25 0z"/>
<path d="M630 922 c0 -12 19 -26 26 -19 2 2 -2 10 -11 17 -9 8 -15 8 -15 2z"/>
<path d="M2270 855 c19 -19 35 -35 37 -35 2 0 3 16 3 35 0 34 -1 35 -37 35
l-37 0 34 -35z"/>
<path d="M1001 784 c0 -11 3 -14 6 -6 3 7 2 16 -1 19 -3 4 -6 -2 -5 -13z"/>
<path d="M0 385 l0 -385 3000 0 3000 0 0 385 0 385 -1854 0 c-1727 0 -1854 -1
-1867 -17 -12 -15 -12 -16 3 -11 9 4 24 1 34 -6 16 -12 17 -29 11 -194 l-5
-182 66 -71 65 -70 -42 -42 c-34 -35 -43 -39 -51 -27 -6 8 -8 24 -6 35 3 14
-13 40 -55 85 l-59 65 0 -102 0 -103 -33 0 c-19 0 -75 3 -125 6 l-92 7 0 33
c0 26 -4 34 -18 34 -10 0 -40 7 -66 16 -56 19 -75 7 -49 -33 8 -12 12 -30 9
-40 -6 -14 -13 -10 -46 22 l-40 39 20 21 c24 25 25 38 5 55 -13 11 -11 17 10
54 33 57 85 201 85 238 0 18 -10 42 -25 60 -19 23 -25 41 -25 79 l0 49 -316 0
c-279 0 -315 -2 -310 -15 3 -9 24 -83 47 -166 27 -102 39 -162 35 -183 -9 -46
-41 -93 -77 -112 -42 -21 -525 -154 -562 -154 -15 0 -42 6 -60 14 -66 28 -76
49 -156 338 l-77 273 -187 3 -187 2 0 -385z m4445 160 c16 0 20 -7 22 -35 1
-34 1 -34 -5 -5 -4 17 -14 30 -22 30 -8 0 -18 -13 -21 -30 -5 -22 -7 -16 -7
25 0 31 3 46 6 35 4 -11 16 -20 27 -20z m547 28 c-12 -2 -22 -10 -21 -16 4
-33 -2 -77 -11 -77 -11 0 -14 59 -4 84 4 10 17 15 33 15 24 -2 24 -2 3 -6z
m-1998 -15 c10 -10 11 -17 2 -31 -8 -14 -8 -20 4 -27 17 -11 7 -25 -13 -17
-14 5 -27 53 -19 75 5 15 10 15 26 0z m260 0 c10 -10 11 -17 2 -31 -8 -14 -8
-20 4 -27 17 -11 7 -25 -13 -17 -14 5 -27 53 -19 75 5 15 10 15 26 0z m1905
-16 c-14 -5 -11 -50 4 -55 7 -4 6 -6 -4 -6 -12 -1 -18 9 -21 33 -5 46 0 59 17
43 7 -7 9 -13 4 -15z m540 0 c-14 -5 -11 -50 4 -55 7 -4 6 -6 -4 -6 -12 -1
-18 9 -21 33 -5 46 0 59 17 43 7 -7 9 -13 4 -15z m-2909 -28 c0 -19 -4 -34
-10 -34 -5 0 -10 11 -10 25 0 14 -4 25 -10 25 -5 0 -10 -11 -10 -25 0 -14 -4
-25 -10 -25 -5 0 -10 11 -10 25 0 16 -6 25 -15 25 -9 0 -15 -9 -15 -25 0 -14
-4 -25 -10 -25 -5 0 -10 16 -10 35 l0 34 55 0 55 -1 0 -34z m77 25 c8 -8 17
-7 32 3 15 9 26 10 38 2 28 -18 27 -34 -4 -35 -23 -2 -24 -2 -5 -6 12 -2 20
-9 17 -14 -9 -14 -41 -11 -55 6 -7 8 -24 15 -39 14 l-26 -1 25 -8 c22 -6 23
-8 8 -15 -37 -15 -72 21 -48 50 15 18 41 20 57 4z m268 1 c4 -6 -5 -10 -19
-10 -16 0 -26 -6 -26 -15 0 -10 10 -15 27 -15 19 0 24 -3 16 -11 -29 -29 -74
7 -59 47 6 16 52 19 61 4z m35 -15 c0 -14 5 -25 10 -25 6 0 10 11 10 25 0 14
5 25 10 25 6 0 10 -9 10 -19 0 -11 2 -26 5 -34 4 -10 -3 -14 -30 -15 -34 -1
-35 0 -35 33 0 19 5 35 10 35 6 0 10 -11 10 -25z m178 3 c3 -14 -4 -18 -25
-19 l-28 -1 30 -8 c24 -5 27 -8 13 -14 -39 -18 -69 11 -54 50 8 21 60 14 64
-8z m32 12 c0 -5 -4 -10 -10 -10 -5 0 -10 5 -10 10 0 6 5 10 10 10 6 0 10 -4
10 -10z m101 -28 c7 -32 6 -33 -25 -30 -36 4 -43 31 -8 36 12 2 22 8 22 14 0
6 -9 8 -20 5 -11 -3 -20 -1 -20 5 0 5 10 8 22 6 16 -2 24 -12 29 -36z m75 3
c1 -30 1 -30 -3 -2 -6 38 -36 32 -44 -8 -7 -30 -7 -30 -8 6 -1 33 1 36 27 35
23 -1 27 -5 28 -31z m108 19 c13 -35 6 -50 -24 -52 -22 -2 -30 2 -30 14 0 9 9
18 20 21 11 3 20 10 20 15 0 6 -9 8 -20 5 -11 -3 -18 -1 -14 4 9 15 41 10 48
-7z m122 -24 l2 -35 -5 33 c-6 42 -33 44 -33 2 0 -16 -4 -30 -10 -30 -5 0 -10
14 -10 31 0 39 -22 34 -31 -7 -6 -27 -7 -27 -8 9 l-1 37 48 -2 c46 -3 47 -3
48 -38z m52 -18 c9 2 20 17 23 33 7 30 7 30 8 -6 1 -33 -1 -36 -26 -35 -24 1
-28 6 -30 34 l-3 32 6 -31 c4 -21 10 -29 22 -27z m80 51 c-24 -6 -23 -19 3
-26 12 -3 19 -12 17 -19 -6 -16 -37 -23 -50 -10 -6 6 0 8 18 4 19 -3 25 -1 20
7 -4 6 -13 11 -21 11 -8 0 -17 5 -20 10 -10 16 4 30 28 29 17 -1 18 -2 5 -6z
m39 -45 c-2 -13 -4 -5 -4 17 -1 22 1 32 4 23 2 -10 2 -28 0 -40z m79 17 c1
-30 1 -30 -3 -2 -6 38 -36 32 -44 -8 -7 -30 -7 -30 -8 6 -1 33 1 36 27 35 23
-1 27 -5 28 -31z m82 -12 c-2 -37 -7 -49 -22 -51 -10 -2 -22 0 -28 6 -6 6 0 8
16 5 15 -3 26 -1 26 6 0 6 -9 11 -20 11 -10 0 -23 8 -29 17 -14 25 5 53 35 53
24 0 25 -3 22 -47z m113 31 c17 -21 0 -49 -32 -49 -27 0 -37 28 -19 50 16 19
34 19 51 -1z m52 9 c-7 -2 -13 -18 -13 -34 0 -16 -4 -29 -10 -29 -5 0 -10 16
-10 35 0 30 3 35 23 34 12 0 16 -3 10 -6z m107 -1 c0 -5 -10 -8 -22 -8 -17 1
-23 -5 -23 -19 0 -14 6 -20 23 -19 12 0 22 -3 22 -8 0 -15 -42 -4 -53 13 -15
24 -1 49 28 49 14 0 25 -4 25 -8z m151 -30 c7 -32 6 -33 -25 -30 -36 4 -43 31
-8 36 12 2 22 7 22 12 0 5 -10 11 -22 13 -21 5 -21 5 2 4 19 -2 26 -9 31 -35z
m46 25 c-9 -7 -18 -23 -20 -37 -3 -19 -5 -17 -6 10 -1 30 3 36 20 37 19 2 19
0 6 -10z m119 -27 l2 -35 -5 33 c-6 42 -33 44 -33 2 0 -16 -4 -30 -10 -30 -5
0 -10 14 -10 31 0 39 -22 34 -31 -7 -6 -27 -7 -27 -8 9 l-1 37 48 -2 c46 -3
47 -3 48 -38z m31 -12 c-2 -13 -4 -5 -4 17 -1 22 1 32 4 23 2 -10 2 -28 0 -40z
m80 12 l2 -35 -10 33 c-12 39 -31 37 -40 -4 -6 -27 -7 -26 -8 9 -1 36 1 38 27
35 23 -3 27 -8 29 -38z m83 4 c0 -18 -3 -39 -6 -48 -6 -16 -49 -22 -58 -8 -2
4 7 8 21 7 14 0 28 5 30 10 2 6 -9 11 -24 10 -19 0 -29 6 -31 18 -7 33 6 47
38 45 27 -2 30 -6 30 -34z m110 1 c0 -19 -4 -35 -10 -35 -5 0 -10 16 -10 35 0
19 5 35 10 35 6 0 10 -16 10 -35z m43 28 c-7 -2 -13 -18 -13 -34 0 -16 -4 -29
-10 -29 -5 0 -10 16 -10 35 0 30 3 35 23 34 12 0 16 -3 10 -6z m50 0 c-28 -5
-30 -19 -3 -26 29 -8 26 -37 -5 -37 -14 0 -25 4 -25 9 0 5 9 7 20 4 11 -3 20
0 20 6 0 6 -6 11 -14 11 -8 0 -18 5 -21 10 -10 16 4 30 28 29 22 -2 22 -2 0
-6z m165 -5 c20 -20 14 -28 -19 -28 -19 0 -28 -4 -23 -11 3 -6 15 -9 25 -6 11
3 19 1 19 -4 0 -19 -49 -9 -55 11 -12 37 27 64 53 38z m78 -23 c1 -30 1 -30
-3 -2 -6 38 -36 32 -44 -8 -7 -30 -7 -30 -8 6 -1 33 1 36 27 35 23 -1 27 -5
28 -31z m78 27 c3 -5 -5 -8 -17 -8 -16 1 -22 -5 -22 -19 0 -14 6 -20 23 -19
14 0 19 -3 13 -9 -25 -25 -61 12 -47 49 6 15 41 19 50 6z m77 -8 c17 -21 0
-49 -32 -49 -27 0 -37 28 -19 50 16 19 34 19 51 -1z m39 -15 c0 -38 24 -35 28
4 5 39 22 33 22 -6 0 -32 -2 -34 -32 -33 -30 1 -33 4 -36 34 -2 18 1 32 7 32
6 0 11 -14 11 -31z m116 -4 c1 -30 1 -30 -3 -2 -6 38 -36 32 -44 -8 -7 -30 -7
-30 -8 6 -1 33 1 36 27 35 23 -1 27 -5 28 -31z m122 23 c20 -20 14 -28 -19
-28 -19 0 -28 -4 -23 -11 3 -6 15 -9 25 -6 11 3 19 1 19 -4 0 -19 -49 -9 -55
11 -12 37 27 64 53 38z m49 -1 c-9 -7 -18 -23 -20 -37 -3 -19 -5 -17 -6 10 -1
30 3 36 20 37 19 2 19 0 6 -10z m-2767 -17 c0 -5 -9 -10 -20 -10 -11 0 -20 5
-20 10 0 6 9 10 20 10 11 0 20 -4 20 -10z m320 -30 c0 -5 -4 -10 -10 -10 -5 0
-10 5 -10 10 0 6 5 10 10 10 6 0 10 -4 10 -10z m-680 -104 c0 -8 10 -16 23
-18 17 -2 22 -10 22 -33 0 -27 -4 -30 -32 -33 l-33 -3 0 50 c0 28 5 51 10 51
6 0 10 -6 10 -14z m1172 -36 c2 -30 -1 -49 -7 -47 -13 5 -19 97 -7 97 6 0 12
-23 14 -50z m213 15 c16 0 20 -7 22 -35 l2 -35 -10 33 c-12 39 -31 37 -40 -4
-5 -21 -7 -14 -7 26 0 31 3 46 6 35 4 -11 16 -20 27 -20z m207 -27 c2 -21 0
-38 -4 -38 -4 0 -7 24 -7 53 1 54 5 49 11 -15z m238 14 c0 -46 -1 -48 -30 -50
-24 -2 -31 2 -36 22 -8 33 3 49 32 43 18 -3 24 0 24 14 0 11 2 19 5 19 3 0 5
-22 5 -48z m-1668 -9 c-3 -15 1 -29 9 -34 11 -7 11 -9 -2 -9 -17 0 -30 52 -21
80 8 22 19 -9 14 -37z m439 27 c12 0 21 -9 25 -25 3 -14 10 -22 15 -19 6 3 7
14 4 23 -3 12 0 18 10 18 8 0 15 -5 14 -11 -4 -33 3 -38 17 -13 19 34 27 35
13 1 -16 -44 -21 -48 -36 -29 -12 17 -13 17 -13 2 0 -27 -16 -20 -30 13 -7 17
-19 30 -26 30 -18 0 -19 -46 -1 -53 7 -4 6 -6 -4 -6 -12 -1 -18 9 -21 33 -4
37 2 70 10 49 2 -7 12 -13 23 -13z m721 -27 c-3 -15 1 -29 9 -34 11 -7 11 -9
-2 -9 -17 0 -30 52 -21 80 8 22 19 -9 14 -37z m197 19 c-14 -5 -11 -50 4 -55
7 -4 6 -6 -4 -6 -12 -1 -18 9 -21 33 -5 46 0 59 17 43 7 -7 9 -13 4 -15z m450
0 c-14 -5 -11 -50 4 -55 7 -4 6 -6 -4 -6 -12 -1 -18 9 -21 33 -5 46 0 59 17
43 7 -7 9 -13 4 -15z m660 0 c-14 -5 -11 -50 4 -55 7 -4 6 -6 -4 -6 -12 -1
-18 9 -21 33 -5 46 0 59 17 43 7 -7 9 -13 4 -15z m-2501 -14 c3 -13 -3 -18
-22 -18 -14 0 -26 -5 -26 -11 0 -7 10 -9 28 -4 20 5 24 4 16 -5 -28 -29 -80
14 -54 45 17 20 54 16 58 -7z m76 -5 c14 -25 21 -20 17 13 -1 6 6 11 14 11 10
0 13 -6 10 -18 -3 -9 -1 -20 4 -24 6 -3 13 6 17 20 3 14 10 25 15 25 5 0 1
-16 -8 -36 -15 -30 -19 -33 -29 -19 -11 14 -12 14 -18 -1 -4 -10 -10 -13 -14
-8 -11 13 -33 64 -27 64 2 0 11 -12 19 -27z m153 12 c5 -14 7 -14 23 0 22 20
54 16 58 -8 3 -12 -3 -17 -22 -17 -14 0 -26 -5 -26 -11 0 -7 10 -9 26 -5 17 5
23 3 19 -4 -9 -15 -41 -12 -55 5 -14 17 -70 20 -70 4 0 -7 10 -9 25 -7 13 3
22 1 19 -3 -10 -16 -43 -9 -54 12 -9 15 -8 24 1 35 15 19 48 18 56 -1z m157
-7 c8 -33 7 -48 -4 -48 -5 0 -10 14 -10 30 0 20 -5 30 -15 30 -10 0 -15 -10
-15 -30 0 -16 -4 -30 -10 -30 -5 0 -10 16 -10 35 0 32 3 35 29 35 21 0 30 -6
35 -22z m265 5 c12 -23 -4 -53 -29 -53 -25 0 -41 29 -29 52 12 23 45 23 58 1z
m114 -4 c16 -26 1 -52 -28 -47 -18 4 -25 0 -28 -16 -2 -12 -5 2 -6 30 -1 49 0
51 25 50 15 -1 31 -8 37 -17z m75 9 c20 -20 14 -28 -19 -28 -19 0 -28 -4 -23
-11 3 -6 15 -9 25 -6 11 3 19 1 19 -5 0 -15 -42 -5 -53 14 -8 12 -7 21 2 32
16 19 33 20 49 4z m83 -4 c17 -21 0 -49 -32 -49 -27 0 -37 28 -19 50 16 19 34
19 51 -1z m82 -5 c16 -26 1 -52 -28 -47 -18 4 -25 0 -28 -16 -2 -12 -5 2 -6
30 -1 49 0 51 25 50 15 -1 31 -8 37 -17z m115 9 c20 -20 14 -28 -19 -28 -19 0
-28 -4 -23 -11 3 -6 15 -8 27 -5 14 3 17 2 10 -5 -16 -16 -47 -7 -51 14 -8 41
27 64 56 35z m230 -24 c3 -28 1 -31 -25 -30 -35 1 -38 28 -3 37 l25 6 -25 12
-25 11 25 -3 c20 -2 26 -8 28 -33z m190 24 c20 -20 14 -28 -19 -28 -19 0 -28
-4 -23 -11 3 -6 15 -8 27 -5 14 3 17 2 10 -5 -16 -16 -47 -7 -51 14 -8 41 27
64 56 35z m76 -4 c13 -35 6 -50 -24 -52 -22 -2 -30 2 -30 14 0 9 9 18 20 21
11 3 20 10 20 15 0 6 -9 8 -20 5 -11 -3 -18 -1 -14 4 9 15 41 10 48 -7z m134
9 c-24 -6 -23 -19 3 -26 12 -3 19 -12 17 -19 -6 -16 -37 -23 -50 -10 -6 6 0 8
18 4 19 -3 25 -1 20 7 -4 6 -13 11 -21 11 -8 0 -17 5 -20 10 -10 16 4 30 28
29 17 -1 18 -2 5 -6z m171 -10 c12 -23 -4 -53 -29 -53 -25 0 -41 29 -29 52 12
23 45 23 58 1z m109 -19 c3 -28 1 -31 -25 -30 -35 1 -38 28 -3 37 l25 6 -25
12 -25 11 25 -3 c20 -2 26 -8 28 -33z m79 23 c-9 -7 -18 -23 -20 -37 -3 -19
-5 -17 -6 10 -1 30 3 36 20 37 19 2 19 0 6 -10z m78 -22 c0 -25 -4 -30 -24
-30 -32 0 -49 28 -31 50 7 9 23 15 34 13 16 -2 21 -10 21 -33z m121 -5 l2 -35
-5 33 c-6 42 -33 44 -33 2 0 -16 -4 -30 -10 -30 -5 0 -10 14 -10 31 0 39 -22
34 -31 -7 -6 -27 -7 -27 -8 9 l-1 37 48 -2 c46 -3 47 -3 48 -38z m75 2 c7 -32
6 -33 -25 -30 -36 4 -43 31 -8 36 12 2 22 8 22 14 0 6 -9 8 -20 5 -11 -3 -20
-1 -20 5 0 5 10 8 22 6 16 -2 24 -12 29 -36z m75 3 c1 -30 1 -30 -3 -2 -6 38
-36 32 -44 -8 -7 -30 -7 -30 -8 6 -1 33 1 36 27 35 23 -1 27 -5 28 -31z m84 0
c0 -19 -4 -35 -10 -35 -5 0 -10 16 -10 35 0 19 5 35 10 35 6 0 10 -16 10 -35z
m64 27 c3 -5 -5 -8 -17 -8 -16 1 -22 -5 -22 -19 0 -14 6 -20 23 -19 14 0 19
-3 13 -9 -25 -25 -61 12 -47 49 6 15 41 19 50 6z m-2605 -232 c5 0 11 7 15 15
3 8 15 15 26 15 27 0 26 17 -2 23 -21 5 -21 5 2 4 19 -2 26 -9 31 -34 l6 -33
-48 2 -49 1 2 51 2 51 3 -47 c2 -27 8 -48 12 -48z m401 75 c0 -8 8 -15 19 -15
11 0 21 -9 25 -22 8 -33 7 -48 -4 -48 -5 0 -10 14 -10 31 0 38 -24 35 -28 -4
-6 -47 -22 -29 -22 23 0 28 5 50 10 50 6 0 10 -7 10 -15z m-291 -23 c-14 -5
-11 -50 4 -55 7 -4 6 -6 -4 -6 -12 -1 -18 9 -21 33 -5 46 0 59 17 43 7 -7 9
-13 4 -15z m-226 1 c-7 -2 -13 -18 -13 -34 0 -16 -4 -29 -10 -29 -5 0 -10 16
-10 35 0 30 3 35 23 34 12 0 16 -3 10 -6z m75 -5 c20 -20 14 -28 -19 -28 -19
0 -28 -4 -23 -11 3 -6 15 -8 27 -5 14 3 17 2 10 -5 -16 -16 -47 -7 -51 14 -8
41 27 64 56 35z m192 -23 c0 -19 -4 -35 -10 -35 -5 0 -10 16 -10 35 0 19 5 35
10 35 6 0 10 -16 10 -35z m71 19 c17 -21 0 -49 -32 -49 -24 0 -36 23 -25 51 7
19 40 18 57 -2z m75 -19 c1 -30 1 -30 -3 -2 -6 38 -36 32 -44 -8 -7 -30 -7
-30 -8 6 -1 33 1 36 27 35 23 -1 27 -5 28 -31z m52 28 c-24 -6 -23 -19 3 -26
27 -7 20 -32 -9 -33 -20 -2 -20 -1 -2 3 26 6 26 19 0 26 -28 7 -26 37 3 36 16
-1 18 -2 5 -6z m119 -45 c-2 -13 -4 -5 -4 17 -1 22 1 32 4 23 2 -10 2 -28 0
-40z m86 31 c16 -26 1 -52 -28 -47 -18 4 -25 0 -28 -16 -2 -12 -5 2 -6 30 -1
49 0 51 25 50 15 -1 31 -8 37 -17z"/>
<path d="M2838 523 c7 -3 16 -2 19 1 4 3 -2 6 -13 5 -11 0 -14 -3 -6 -6z"/>
<path d="M2918 523 c7 -3 16 -2 19 1 4 3 -2 6 -13 5 -11 0 -14 -3 -6 -6z"/>
<path d="M3308 523 c7 -3 16 -2 19 1 4 3 -2 6 -13 5 -11 0 -14 -3 -6 -6z"/>
<path d="M3440 500 c0 -5 7 -10 15 -10 8 0 15 5 15 10 0 6 -7 10 -15 10 -8 0
-15 -4 -15 -10z"/>
<path d="M3620 500 c0 -5 7 -10 15 -10 8 0 15 5 15 10 0 6 -7 10 -15 10 -8 0
-15 -4 -15 -10z"/>
<path d="M4074 526 c-7 -19 3 -36 22 -36 10 0 14 8 12 22 -4 26 -26 36 -34 14z"/>
<path d="M4184 525 c-4 -9 -2 -21 4 -27 15 -15 44 -1 40 19 -4 23 -36 29 -44
8z"/>
<path d="M4495 500 c-3 -5 3 -10 14 -10 12 0 21 5 21 10 0 6 -6 10 -14 10 -8
0 -18 -4 -21 -10z"/>
<path d="M4844 525 c-4 -9 -2 -21 4 -27 15 -15 44 -1 40 19 -4 23 -36 29 -44
8z"/>
<path d="M5225 530 c-4 -6 5 -10 20 -10 15 0 24 4 20 10 -3 6 -12 10 -20 10
-8 0 -17 -4 -20 -10z"/>
<path d="M5454 525 c-4 -9 -2 -21 4 -27 15 -15 44 -1 40 19 -4 23 -36 29 -44
8z"/>
<path d="M5735 530 c-4 -6 5 -10 20 -10 15 0 24 4 20 10 -3 6 -12 10 -20 10
-8 0 -17 -4 -20 -10z"/>
<path d="M2700 335 c0 -20 4 -26 18 -23 9 2 17 12 17 23 0 11 -8 21 -17 23
-14 3 -18 -3 -18 -23z"/>
<path d="M4474 345 c-4 -9 -2 -21 4 -27 15 -15 44 -1 40 19 -4 23 -36 29 -44
8z"/>
<path d="M2780 350 c0 -5 9 -10 21 -10 11 0 17 5 14 10 -3 6 -13 10 -21 10 -8
0 -14 -4 -14 -10z"/>
<path d="M3010 350 c0 -5 9 -10 20 -10 11 0 20 5 20 10 0 6 -9 10 -20 10 -11
0 -20 -4 -20 -10z"/>
<path d="M3090 350 c0 -5 9 -10 21 -10 11 0 17 5 14 10 -3 6 -13 10 -21 10 -8
0 -14 -4 -14 -10z"/>
<path d="M3433 344 c-8 -21 13 -42 28 -27 13 13 5 43 -11 43 -6 0 -13 -7 -17
-16z"/>
<path d="M3544 345 c-4 -9 -2 -21 4 -27 15 -15 44 -1 40 19 -4 23 -36 29 -44
8z"/>
<path d="M3625 350 c-4 -6 5 -10 20 -10 15 0 24 4 20 10 -3 6 -12 10 -20 10
-8 0 -17 -4 -20 -10z"/>
<path d="M3704 345 c-4 -9 -2 -21 4 -27 15 -15 44 -1 40 19 -4 23 -36 29 -44
8z"/>
<path d="M3784 345 c-4 -9 -2 -21 4 -27 15 -15 44 -1 40 19 -4 23 -36 29 -44
8z"/>
<path d="M3905 350 c-3 -5 3 -10 14 -10 12 0 21 5 21 10 0 6 -6 10 -14 10 -8
0 -18 -4 -21 -10z"/>
<path d="M4130 320 c0 -5 6 -10 14 -10 8 0 18 5 21 10 3 6 -3 10 -14 10 -12 0
-21 -4 -21 -10z"/>
<path d="M4325 350 c-3 -5 3 -10 14 -10 12 0 21 5 21 10 0 6 -6 10 -14 10 -8
0 -18 -4 -21 -10z"/>
<path d="M4400 320 c0 -5 7 -10 15 -10 8 0 15 5 15 10 0 6 -7 10 -15 10 -8 0
-15 -4 -15 -10z"/>
<path d="M4703 344 c-8 -21 13 -42 28 -27 13 13 5 43 -11 43 -6 0 -13 -7 -17
-16z"/>
<path d="M4810 320 c0 -5 6 -10 14 -10 8 0 18 5 21 10 3 6 -3 10 -14 10 -12 0
-21 -4 -21 -10z"/>
<path d="M4967 347 c-3 -8 -2 -20 3 -27 11 -18 42 -4 38 17 -4 22 -34 29 -41
10z"/>
<path d="M5170 320 c0 -5 7 -10 15 -10 8 0 15 5 15 10 0 6 -7 10 -15 10 -8 0
-15 -4 -15 -10z"/>
<path d="M2855 140 c-3 -5 3 -10 14 -10 12 0 21 5 21 10 0 6 -6 10 -14 10 -8
0 -18 -4 -21 -10z"/>
<path d="M2745 170 c-3 -5 3 -10 14 -10 12 0 21 5 21 10 0 6 -6 10 -14 10 -8
0 -18 -4 -21 -10z"/>
<path d="M3004 165 c-7 -18 3 -35 21 -35 15 0 24 19 18 38 -6 17 -32 15 -39
-3z"/>
<path d="M3334 165 c-4 -9 -2 -21 4 -27 15 -15 44 -1 40 19 -4 23 -36 29 -44
8z"/>
<path d="M2062 703 c-7 -38 -15 -85 -18 -105 l-6 -38 61 0 61 0 0 59 c0 51 3
61 20 66 11 3 20 10 20 15 0 5 -9 12 -20 15 -29 9 -25 25 6 25 22 0 25 2 14
15 -8 10 -31 15 -69 15 l-57 0 -12 -67z"/>
<path d="M2241 716 l-24 -13 22 -13 c27 -14 34 -9 29 18 -3 19 -5 19 -27 8z"/>
<path d="M661 684 c0 -11 3 -14 6 -6 3 7 2 16 -1 19 -3 4 -6 -2 -5 -13z"/>
<path d="M1078 583 c7 -3 16 -2 19 1 4 3 -2 6 -13 5 -11 0 -14 -3 -6 -6z"/>
<path d="M968 553 c7 -3 16 -2 19 1 4 3 -2 6 -13 5 -11 0 -14 -3 -6 -6z"/>
<path d="M898 533 c7 -3 16 -2 19 1 4 3 -2 6 -13 5 -11 0 -14 -3 -6 -6z"/>
<path d="M788 503 c7 -3 16 -2 19 1 4 3 -2 6 -13 5 -11 0 -14 -3 -6 -6z"/>
<path d="M2047 458 c13 -136 18 -243 11 -246 -17 -7 -6 -28 27 -49 27 -17 35
-19 35 -8 0 8 9 19 20 25 19 10 20 21 20 165 l0 155 -59 0 -59 0 5 -42z"/>
<path d="M678 473 c7 -3 16 -2 19 1 4 3 -2 6 -13 5 -11 0 -14 -3 -6 -6z"/>
<path d="M530 440 c0 -5 5 -10 11 -10 5 0 7 5 4 10 -3 6 -8 10 -11 10 -2 0 -4
-4 -4 -10z"/>
<path d="M852 427 c-32 -34 -30 -89 4 -116 45 -35 95 -26 119 20 21 40 19 62
-10 93 -32 34 -83 36 -113 3z"/>
</g>
</svg>
