<?xml version="1.0" encoding="utf-8"?>
<!-- Generator: Adobe Illustrator 24.2.3, SVG Export Plug-In . SVG Version: 6.00 Build 0)  -->
<svg version="1.1" id="Layer_1" xmlns="http://www.w3.org/2000/svg" xmlns:xlink="http://www.w3.org/1999/xlink" x="0px" y="0px"
	 viewBox="0 0 323.66 89.74" style="enable-background:new 0 0 323.66 89.74;" xml:space="preserve">
<style type="text/css">
	.st0{fill:#273691;}
	.st1{fill:#FFFFFF;}
	.st2{fill:#00A766;}
	.st3{fill:#933C91;}
	.st4{fill:#F58021;}
	.st5{fill:#EE255C;}
	.st6{fill:#EE3124;}
</style>
<g>
	<path class="st0" d="M157.15,8.62h-37.8c-0.2,0-0.4,0.02-0.61,0.03c-5.81,0.32-10.42,5.11-10.42,10.99v53.71
		c0,3.97,3.22,7.19,7.19,7.19h4.39c3.97,0,7.19-3.22,7.19-7.19V54.62l0.02-0.02V39.62V24.92c0-0.73,0.59-1.32,1.32-1.32h28.69
		c2.71,0,4.91-2.19,4.93-4.89l0.04-5.13C162.09,10.84,159.88,8.62,157.15,8.62z"/>
	<g>
		<path class="st0" d="M177.36,23.74h2.75v14.84h-2.75V23.74z"/>
		<path class="st0" d="M194.59,32.09v6.49h-2.65v-6.15c0-2.01-1-2.99-2.69-2.99c-1.89,0-3.16,1.14-3.16,3.41v5.72h-2.65V27.26h2.52
			v1.46c0.87-1.04,2.25-1.59,3.9-1.59C192.58,27.13,194.59,28.68,194.59,32.09z"/>
		<path class="st0" d="M204.34,37.96c-0.64,0.51-1.59,0.76-2.54,0.76c-2.48,0-3.9-1.32-3.9-3.82v-5.45h-1.86v-2.12h1.86v-2.59h2.65
			v2.59h3.03v2.12h-3.03v5.38c0,1.1,0.55,1.7,1.57,1.7c0.55,0,1.08-0.15,1.48-0.47L204.34,37.96z"/>
		<path class="st0" d="M216.32,33.76h-8.88c0.32,1.65,1.7,2.71,3.67,2.71c1.27,0,2.27-0.4,3.07-1.23l1.42,1.63
			c-1.02,1.21-2.61,1.84-4.56,1.84c-3.79,0-6.25-2.44-6.25-5.81c0-3.37,2.48-5.79,5.85-5.79c3.31,0,5.72,2.31,5.72,5.85
			C216.36,33.19,216.34,33.51,216.32,33.76z M207.41,32h6.42c-0.21-1.63-1.46-2.76-3.2-2.76C208.92,29.25,207.67,30.35,207.41,32z"
			/>
		<path class="st0" d="M225.03,27.13v2.52c-0.23-0.04-0.42-0.06-0.62-0.06c-2.01,0-3.29,1.19-3.29,3.5v5.49h-2.65V27.26H221v1.65
			C221.76,27.72,223.14,27.13,225.03,27.13z"/>
		<path class="st0" d="M238,32.09v6.49h-2.65v-6.15c0-2.01-1-2.99-2.69-2.99c-1.89,0-3.16,1.14-3.16,3.41v5.72h-2.65V27.26h2.52
			v1.46c0.87-1.04,2.25-1.59,3.9-1.59C235.98,27.13,238,28.68,238,32.09z"/>
		<path class="st0" d="M250.42,31.94v6.63h-2.5V37.2c-0.64,0.97-1.86,1.53-3.56,1.53c-2.59,0-4.22-1.42-4.22-3.39
			c0-1.89,1.27-3.37,4.71-3.37h2.92v-0.17c0-1.55-0.93-2.46-2.82-2.46c-1.27,0-2.59,0.42-3.43,1.12l-1.04-1.93
			c1.21-0.93,2.97-1.4,4.79-1.4C248.53,27.13,250.42,28.68,250.42,31.94z M247.77,35.04v-1.32h-2.73c-1.8,0-2.29,0.68-2.29,1.51
			c0,0.95,0.81,1.57,2.16,1.57C246.2,36.79,247.32,36.2,247.77,35.04z"/>
		<path class="st0" d="M260.19,37.96c-0.64,0.51-1.59,0.76-2.54,0.76c-2.48,0-3.9-1.32-3.9-3.82v-5.45h-1.86v-2.12h1.86v-2.59h2.65
			v2.59h3.03v2.12h-3.03v5.38c0,1.1,0.55,1.7,1.57,1.7c0.55,0,1.08-0.15,1.48-0.47L260.19,37.96z"/>
		<path class="st0" d="M261.58,23.8c0-0.89,0.72-1.59,1.7-1.59c0.97,0,1.7,0.66,1.7,1.53c0,0.93-0.7,1.65-1.7,1.65
			C262.3,25.39,261.58,24.69,261.58,23.8z M261.94,27.26h2.65v11.32h-2.65V27.26z"/>
		<path class="st0" d="M266.71,32.91c0-3.39,2.54-5.79,6.02-5.79c3.52,0,6.04,2.4,6.04,5.79c0,3.39-2.52,5.81-6.04,5.81
			C269.25,38.72,266.71,36.31,266.71,32.91z M276.1,32.91c0-2.16-1.44-3.54-3.37-3.54c-1.91,0-3.35,1.38-3.35,3.54
			c0,2.16,1.44,3.54,3.35,3.54C274.66,36.45,276.1,35.08,276.1,32.91z"/>
		<path class="st0" d="M292.04,32.09v6.49h-2.65v-6.15c0-2.01-1-2.99-2.69-2.99c-1.89,0-3.16,1.14-3.16,3.41v5.72h-2.65V27.26h2.52
			v1.46c0.87-1.04,2.25-1.59,3.9-1.59C290.02,27.13,292.04,28.68,292.04,32.09z"/>
		<path class="st0" d="M304.46,31.94v6.63h-2.5V37.2c-0.64,0.97-1.86,1.53-3.56,1.53c-2.59,0-4.22-1.42-4.22-3.39
			c0-1.89,1.27-3.37,4.71-3.37h2.92v-0.17c0-1.55-0.93-2.46-2.82-2.46c-1.27,0-2.59,0.42-3.43,1.12l-1.04-1.93
			c1.21-0.93,2.97-1.4,4.79-1.4C302.57,27.13,304.46,28.68,304.46,31.94z M301.81,35.04v-1.32h-2.73c-1.8,0-2.29,0.68-2.29,1.51
			c0,0.95,0.81,1.57,2.16,1.57C300.24,36.79,301.36,36.2,301.81,35.04z"/>
		<path class="st0" d="M307.42,23.51h2.65v15.06h-2.65V23.51z"/>
	</g>
	<g>
		<path class="st0" d="M176.3,52.56c0-4.43,3.39-7.63,7.95-7.63c2.42,0,4.49,0.87,5.87,2.48l-1.78,1.67
			c-1.08-1.16-2.42-1.74-3.96-1.74c-3.07,0-5.3,2.16-5.3,5.21c0,3.05,2.23,5.21,5.3,5.21c1.55,0,2.88-0.57,3.96-1.76l1.78,1.7
			c-1.38,1.61-3.45,2.48-5.89,2.48C179.69,60.19,176.3,56.99,176.3,52.56z"/>
		<path class="st0" d="M190.74,54.32c0-3.39,2.54-5.79,6.02-5.79c3.52,0,6.04,2.4,6.04,5.79c0,3.39-2.52,5.81-6.04,5.81
			C193.28,60.13,190.74,57.71,190.74,54.32z M200.13,54.32c0-2.16-1.44-3.54-3.37-3.54c-1.91,0-3.35,1.38-3.35,3.54
			s1.44,3.54,3.35,3.54C198.69,57.86,200.13,56.48,200.13,54.32z"/>
		<path class="st0" d="M214.24,53.35v6.63h-2.5V58.6c-0.64,0.97-1.86,1.53-3.56,1.53c-2.59,0-4.22-1.42-4.22-3.39
			c0-1.89,1.27-3.37,4.71-3.37h2.92V53.2c0-1.55-0.93-2.46-2.82-2.46c-1.27,0-2.59,0.42-3.43,1.12l-1.04-1.93
			c1.21-0.93,2.97-1.4,4.79-1.4C212.35,48.53,214.24,50.08,214.24,53.35z M211.59,56.44v-1.32h-2.73c-1.8,0-2.29,0.68-2.29,1.51
			c0,0.95,0.81,1.57,2.16,1.57C210.02,58.2,211.15,57.6,211.59,56.44z"/>
		<path class="st0" d="M216.38,54.32c0-3.39,2.54-5.79,6.13-5.79c2.2,0,3.96,0.91,4.83,2.63l-2.03,1.19
			c-0.68-1.08-1.7-1.57-2.82-1.57c-1.95,0-3.43,1.36-3.43,3.54c0,2.21,1.48,3.54,3.43,3.54c1.12,0,2.14-0.49,2.82-1.57l2.03,1.19
			c-0.87,1.7-2.63,2.65-4.83,2.65C218.92,60.13,216.38,57.71,216.38,54.32z"/>
		<path class="st0" d="M240.24,53.49v6.49h-2.65v-6.15c0-2.01-1-2.99-2.69-2.99c-1.89,0-3.16,1.14-3.16,3.41v5.72h-2.65V44.25h2.65
			v5.72c0.87-0.93,2.21-1.44,3.77-1.44C238.23,48.53,240.24,50.08,240.24,53.49z"/>
		<path class="st0" d="M242.83,45.21c0-0.89,0.72-1.59,1.7-1.59c0.97,0,1.7,0.66,1.7,1.53c0,0.93-0.7,1.65-1.7,1.65
			C243.55,46.8,242.83,46.1,242.83,45.21z M243.19,48.66h2.65v11.32h-2.65V48.66z"/>
		<path class="st0" d="M260.04,53.49v6.49h-2.65v-6.15c0-2.01-1-2.99-2.69-2.99c-1.89,0-3.16,1.14-3.16,3.41v5.72h-2.65V48.66h2.52
			v1.46c0.87-1.04,2.25-1.59,3.9-1.59C258.02,48.53,260.04,50.08,260.04,53.49z"/>
		<path class="st0" d="M274.32,48.66v9.6c0,4.11-2.14,5.98-6.11,5.98c-2.12,0-4.22-0.55-5.51-1.61l1.19-1.99
			c1,0.83,2.61,1.36,4.17,1.36c2.5,0,3.6-1.14,3.6-3.43v-0.59c-0.93,1.02-2.27,1.51-3.79,1.51c-3.24,0-5.72-2.21-5.72-5.49
			s2.48-5.45,5.72-5.45c1.59,0,2.99,0.51,3.92,1.63v-1.51H274.32z M271.71,53.98c0-1.91-1.44-3.2-3.43-3.2
			c-2.01,0-3.45,1.29-3.45,3.2c0,1.93,1.44,3.24,3.45,3.24C270.27,57.22,271.71,55.91,271.71,53.98z"/>
	</g>
	<path class="st0" d="M180.12,67.84v4.52h7.16v2.33h-7.16v5.68h-2.75V65.53h10.83v2.31H180.12z"/>
	<path class="st0" d="M200.46,75.55h-8.88c0.32,1.65,1.7,2.71,3.67,2.71c1.27,0,2.27-0.4,3.07-1.23l1.42,1.63
		c-1.02,1.21-2.61,1.84-4.56,1.84c-3.79,0-6.25-2.44-6.25-5.81c0-3.37,2.48-5.79,5.85-5.79c3.31,0,5.72,2.31,5.72,5.85
		C200.51,74.98,200.48,75.3,200.46,75.55z M191.56,73.79h6.42c-0.21-1.63-1.46-2.76-3.2-2.76
		C193.07,71.04,191.82,72.14,191.56,73.79z"/>
	<path class="st0" d="M213.71,64.64v15.73h-2.54V78.9c-0.89,1.08-2.21,1.61-3.75,1.61c-3.29,0-5.72-2.29-5.72-5.81
		c0-3.52,2.44-5.79,5.72-5.79c1.46,0,2.75,0.49,3.64,1.53v-5.81H213.71z M211.1,74.7c0-2.16-1.46-3.54-3.37-3.54
		s-3.37,1.38-3.37,3.54s1.46,3.54,3.37,3.54S211.1,76.86,211.1,74.7z"/>
	<path class="st0" d="M227.36,75.55h-8.88c0.32,1.65,1.7,2.71,3.67,2.71c1.27,0,2.27-0.4,3.07-1.23l1.42,1.63
		c-1.02,1.21-2.61,1.84-4.56,1.84c-3.79,0-6.25-2.44-6.25-5.81c0-3.37,2.48-5.79,5.85-5.79c3.31,0,5.72,2.31,5.72,5.85
		C227.4,74.98,227.38,75.3,227.36,75.55z M218.45,73.79h6.42c-0.21-1.63-1.46-2.76-3.2-2.76C219.96,71.04,218.71,72.14,218.45,73.79
		z"/>
	<path class="st0" d="M236.07,68.92v2.52c-0.23-0.04-0.42-0.06-0.62-0.06c-2.01,0-3.29,1.19-3.29,3.5v5.49h-2.65V69.04h2.52v1.65
		C232.8,69.51,234.18,68.92,236.07,68.92z"/>
	<path class="st0" d="M247.3,73.73v6.63h-2.5v-1.38c-0.64,0.97-1.86,1.53-3.56,1.53c-2.59,0-4.22-1.42-4.22-3.39
		c0-1.89,1.27-3.37,4.71-3.37h2.92v-0.17c0-1.55-0.93-2.46-2.82-2.46c-1.27,0-2.59,0.42-3.43,1.12l-1.04-1.93
		c1.21-0.93,2.97-1.4,4.79-1.4C245.41,68.92,247.3,70.46,247.3,73.73z M244.65,76.82v-1.32h-2.73c-1.8,0-2.29,0.68-2.29,1.51
		c0,0.95,0.81,1.57,2.16,1.57C243.08,78.58,244.21,77.99,244.65,76.82z"/>
	<path class="st0" d="M257.07,79.75c-0.64,0.51-1.59,0.76-2.54,0.76c-2.48,0-3.9-1.32-3.9-3.82v-5.45h-1.86v-2.12h1.86v-2.59h2.65
		v2.59h3.03v2.12h-3.03v5.38c0,1.1,0.55,1.7,1.57,1.7c0.55,0,1.08-0.15,1.48-0.47L257.07,79.75z"/>
	<path class="st0" d="M258.47,65.59c0-0.89,0.72-1.59,1.7-1.59c0.97,0,1.7,0.66,1.7,1.53c0,0.93-0.7,1.65-1.7,1.65
		C259.19,67.18,258.47,66.48,258.47,65.59z M258.83,69.04h2.65v11.32h-2.65V69.04z"/>
	<path class="st0" d="M263.59,74.7c0-3.39,2.54-5.79,6.02-5.79c3.52,0,6.04,2.4,6.04,5.79c0,3.39-2.52,5.81-6.04,5.81
		C266.14,80.51,263.59,78.1,263.59,74.7z M272.98,74.7c0-2.16-1.44-3.54-3.37-3.54c-1.91,0-3.35,1.38-3.35,3.54s1.44,3.54,3.35,3.54
		C271.54,78.24,272.98,76.86,272.98,74.7z"/>
	<path class="st0" d="M288.92,73.88v6.49h-2.65v-6.15c0-2.01-1-2.99-2.69-2.99c-1.89,0-3.16,1.14-3.16,3.41v5.72h-2.65V69.04h2.52
		v1.46c0.87-1.04,2.25-1.59,3.9-1.59C286.91,68.92,288.92,70.46,288.92,73.88z"/>
	<g>
		<defs>
			<path id="SVGID_1_" d="M155.17,35.73c-2.51-0.15-5.03-0.2-7.55-0.13c-5.02,0.14-10.02,0.74-14.92,1.85
				c-10.07,2.3-18.73,6.98-26.96,13.1c-3.82,2.84-7.59,5.77-11.67,8.23c-7.17,4.34-15.86,7.24-23.91,4.94
				c-7.63-2.18-13.63-9.22-14.56-17.11c-0.93-7.88,3.26-16.13,10.17-20.03c6.92-3.9,16.14-3.21,22.41,1.67
				c1.51,1.18,3.08,2.65,4.99,2.57c1.76-0.08,3.15-1.46,4.34-2.76c2.18-2.4,4.47-5.43,3.64-8.57c-0.54-2.04-2.28-3.51-4.02-4.7
				c-9.37-6.41-21.56-8.53-32.54-5.66c-8.55,2.23-16.26,7.45-21.64,14.45c-5.57,7.25-7.41,17.19-6.14,26.18
				c0.65,4.61,2.15,9.1,4.48,13.13c5.67,9.82,16.1,16.74,27.36,18.13c9.42,1.16,19.02-1.39,27.48-5.7
				c9.88-5.04,18.2-12.43,26.81-19.36c6.79-5.47,13.76-10.65,21.81-14.17c5.55-2.43,11.38-4.24,17.33-5.38
				C157.18,35.85,157.18,35.85,155.17,35.73z"/>
		</defs>
		<linearGradient id="SVGID_2_" gradientUnits="userSpaceOnUse" x1="36.4207" y1="44.5964" x2="162.0746" y2="44.5964">
			<stop  offset="0" style="stop-color:#FDBE3B"/>
			<stop  offset="0.0843" style="stop-color:#FCC23D"/>
			<stop  offset="1" style="stop-color:#F6ED4E"/>
		</linearGradient>
		<use xlink:href="#SVGID_1_"  style="overflow:visible;fill:url(#SVGID_2_);"/>
		<clipPath id="SVGID_3_">
			<use xlink:href="#SVGID_1_"  style="overflow:visible;"/>
		</clipPath>
	</g>
	<g>
		<path class="st0" d="M30.66,15.72v57.52c0,3.97-3.22,7.19-7.19,7.19h-4.39c-3.97,0-7.19-3.22-7.19-7.19V15.72
			c0-3.97,3.22-7.19,7.19-7.19h4.39C27.44,8.54,30.66,11.75,30.66,15.72z"/>
	</g>
</g>
</svg>
