<?xml version="1.0" standalone="no"?>
<!DOCTYPE svg PUBLIC "-//W3C//DTD SVG 20010904//EN"
 "http://www.w3.org/TR/2001/REC-SVG-20010904/DTD/svg10.dtd">
<svg version="1.0" xmlns="http://www.w3.org/2000/svg"
 width="768.000000pt" height="137.000000pt" viewBox="0 0 768.000000 137.000000"
 preserveAspectRatio="xMidYMid meet">

<g transform="translate(0.000000,137.000000) scale(0.100000,-0.100000)"
fill="#000000" stroke="none">
<path d="M1289 1061 c-20 -10 -61 -32 -92 -50 -50 -28 -55 -29 -50 -11 7 25
-9 26 -44 3 -34 -23 -126 -24 -148 -2 -9 9 -18 25 -19 35 -4 24 -30 25 -34 1
-8 -39 69 -91 124 -85 19 2 34 2 34 -2 0 -3 -16 -22 -36 -43 l-35 -38 -87 17
c-63 12 -123 15 -218 12 -123 -4 -134 -6 -185 -35 -71 -40 -84 -65 -63 -127
38 -111 296 -307 464 -351 109 -29 268 -13 364 36 21 11 41 17 44 14 13 -13
-55 -121 -115 -184 -65 -68 -74 -88 -24 -52 65 47 160 178 177 245 3 14 21 35
39 46 39 24 91 80 99 108 4 12 18 22 36 24 37 6 40 -13 5 -32 -28 -15 -32 -28
-10 -36 8 -4 31 6 50 20 l35 27 28 -21 c19 -14 40 -20 62 -18 42 4 53 28 13
28 -35 0 -50 10 -54 35 -5 22 -67 39 -111 31 l-28 -5 0 70 c0 98 -33 173 -94
212 -24 15 -53 27 -65 27 -28 0 -27 11 4 40 15 14 25 35 25 52 0 24 -4 28 -27
28 -16 -1 -44 -9 -64 -19z m49 -33 c-9 -13 -41 -40 -72 -62 -40 -27 -54 -42
-47 -49 7 -7 18 -7 36 1 83 38 184 -8 214 -97 15 -47 14 -153 -3 -176 -18 -25
-126 -35 -126 -11 0 9 9 21 20 28 24 15 27 48 3 48 -9 0 -24 -7 -34 -16 -17
-15 -22 -13 -78 37 -58 54 -166 119 -195 119 -35 0 -21 22 47 73 83 63 199
127 229 127 19 0 19 -2 6 -22z m-449 -159 c36 -5 69 -13 74 -16 4 -3 -55 -69
-132 -148 -78 -79 -141 -148 -141 -154 0 -23 32 -10 63 27 73 86 252 262 265
262 18 0 129 -54 161 -79 l24 -18 -29 -14 c-15 -8 -39 -30 -52 -49 -29 -43
-68 -58 -154 -59 -38 -1 -68 -5 -68 -10 0 -23 74 -28 146 -10 38 10 47 9 63
-5 24 -22 80 -20 137 4 26 11 48 19 48 18 1 -2 10 -15 19 -30 9 -15 17 -44 17
-65 0 -32 -6 -42 -33 -61 -88 -59 -253 -87 -371 -62 -66 13 -200 81 -285 142
-65 47 -144 127 -172 172 -63 104 25 163 246 165 61 0 139 -4 174 -10z m296
-179 c-10 -11 -21 -17 -24 -14 -3 3 3 12 13 20 28 20 32 17 11 -6z m105 -32
c0 -5 -19 -18 -42 -28 -44 -20 -118 -27 -118 -11 0 5 19 21 43 34 24 14 50 33
57 42 12 14 15 14 37 -6 12 -13 23 -26 23 -31z m128 -105 c-26 -26 -49 -45
-51 -43 -2 3 -7 19 -10 37 -6 29 -4 32 31 41 76 20 80 15 30 -35z"/>
<path d="M5062 1042 c-29 -22 -82 -102 -82 -123 0 -17 -46 -51 -118 -88 l-42
-21 -76 50 c-86 59 -184 103 -276 125 -85 21 -301 31 -354 16 -73 -20 -114
-70 -114 -141 0 -84 67 -188 219 -341 192 -193 306 -227 474 -142 61 30 125
89 162 147 27 43 52 63 63 51 14 -13 0 -75 -29 -132 -42 -82 -143 -179 -234
-224 -37 -18 -62 -35 -56 -37 19 -6 117 46 177 95 68 56 135 145 160 212 l17
50 84 29 83 29 0 -24 c0 -12 4 -23 10 -23 8 0 69 61 124 125 18 21 30 25 76
25 30 0 76 7 103 15 56 17 55 8 -5 -44 -21 -18 -38 -37 -38 -42 0 -18 27 -8
55 21 25 27 64 43 51 22 -10 -16 32 -69 69 -86 68 -33 187 -6 203 45 4 11 1
11 -14 -2 -25 -21 -79 -39 -118 -39 -43 0 -103 42 -111 79 -8 38 6 65 78 140
52 56 68 81 50 81 -3 0 -34 -26 -67 -58 -68 -66 -143 -100 -236 -109 l-55 -5
58 59 c57 58 70 83 43 83 -14 0 -82 -69 -111 -114 -16 -24 -23 -27 -64 -24
-42 3 -48 6 -66 42 -26 49 -52 67 -83 55 -18 -7 -23 -15 -20 -36 2 -21 14 -33
50 -51 45 -23 46 -25 41 -60 -3 -21 -8 -40 -12 -43 -7 -8 -105 -44 -143 -53
-39 -9 -37 16 5 53 26 24 30 32 19 42 -10 11 -18 10 -41 -4 -24 -14 -30 -15
-34 -3 -9 23 65 229 88 246 102 74 147 150 88 150 -16 0 -38 -8 -51 -18z m58
-10 c0 -8 -48 -55 -82 -81 -33 -25 -19 7 20 49 36 37 62 51 62 32z m-641 -71
c41 -11 102 -33 136 -50 75 -37 175 -102 175 -114 0 -4 -37 -25 -82 -46 -66
-30 -92 -37 -125 -33 -27 2 -66 -4 -110 -18 -121 -40 -250 -110 -202 -110 5 0
52 20 102 44 108 51 160 69 184 64 11 -3 -30 -28 -103 -65 -115 -59 -154 -86
-140 -100 3 -3 14 1 23 9 10 9 61 37 113 62 52 26 103 52 113 57 28 16 35 0
10 -21 -13 -10 -23 -23 -23 -29 0 -14 37 -14 45 -1 9 15 92 51 131 57 45 7 45
-13 -1 -57 -51 -49 -42 -70 13 -32 26 17 28 17 68 -3 l40 -21 -22 -36 c-57
-89 -163 -151 -271 -156 -64 -4 -80 -1 -135 25 -35 16 -90 54 -123 84 -267
243 -343 425 -207 499 33 19 50 20 177 16 98 -3 162 -10 214 -25z m461 -182
l-23 -73 -38 45 -37 44 56 32 c31 18 58 30 60 28 2 -2 -6 -36 -18 -76z m184
-1 c30 -42 15 -51 -28 -17 -26 21 -27 39 -1 39 8 0 21 -10 29 -22z m-288 -16
c11 -9 32 -33 46 -52 l26 -35 -19 -42 c-14 -34 -23 -43 -42 -43 -39 0 -51 23
-33 59 9 16 16 32 16 34 0 10 -111 4 -152 -8 -42 -12 -48 -12 -48 1 0 8 37 33
88 58 106 52 93 49 118 28z m384 -71 c0 -8 -43 -41 -55 -41 -7 0 -6 35 2 43
10 10 53 8 53 -2z"/>
<path d="M3300 929 c0 -48 74 -89 178 -96 l75 -6 -34 -29 c-19 -16 -72 -55
-119 -85 -47 -31 -87 -58 -89 -60 -3 -2 0 -8 5 -13 7 -7 39 9 95 45 46 30 109
67 139 83 136 71 220 112 230 112 23 0 7 -35 -40 -90 -27 -32 -50 -63 -50 -69
0 -25 29 -8 65 37 42 51 174 166 183 158 3 -3 -19 -27 -49 -53 -172 -154 -279
-291 -279 -358 0 -29 46 -65 84 -65 36 0 171 48 162 58 -3 3 -37 -5 -76 -17
-74 -24 -107 -22 -135 5 -21 21 -13 44 42 127 52 78 141 170 220 228 73 55 83
82 29 82 -14 0 -42 -14 -64 -31 -37 -29 -39 -30 -50 -11 -7 10 -23 19 -37 19
-24 0 -153 -58 -181 -81 -8 -6 -14 -8 -14 -3 1 5 21 22 46 38 63 40 43 53 -30
20 -50 -23 -68 -26 -121 -21 -74 5 -136 32 -150 65 -10 22 -35 31 -35 11z"/>
<path d="M5320 931 c0 -11 26 -22 34 -14 3 3 3 10 0 14 -7 12 -34 11 -34 0z"/>
<path d="M6010 905 c0 -33 59 -91 102 -99 18 -3 49 -2 67 4 19 5 36 8 38 6 6
-6 -85 -83 -133 -113 -24 -16 -44 -34 -44 -40 0 -21 17 -15 67 21 78 55 229
145 257 152 22 5 26 3 26 -14 0 -14 -24 -41 -70 -78 -64 -52 -78 -74 -46 -74
7 0 23 12 37 26 37 40 180 145 189 139 24 -15 -26 -79 -123 -159 -28 -23 -47
-47 -47 -60 0 -17 7 -13 41 21 22 23 55 51 72 63 49 34 87 89 87 126 0 45 -12
49 -59 20 -39 -25 -40 -25 -46 -6 -8 24 -41 26 -92 5 -41 -17 -56 -19 -30 -4
18 11 24 39 7 39 -6 0 -23 -6 -38 -14 -15 -7 -52 -19 -83 -26 -77 -17 -118 -3
-148 50 -26 47 -31 49 -31 15z"/>
<path d="M6724 871 c-82 -14 -175 -88 -189 -151 -24 -111 167 -160 268 -70 40
36 28 51 -13 17 -51 -43 -169 -49 -211 -11 -41 37 -15 97 64 155 40 29 105 43
79 17 -7 -7 -12 -20 -12 -31 0 -42 59 5 75 61 7 24 7 24 -61 13z"/>
<path d="M6964 862 c-58 -24 -92 -54 -110 -98 -18 -44 -13 -83 17 -125 32 -46
80 -61 190 -60 103 0 196 26 260 71 44 32 35 44 -10 15 -88 -59 -280 -85 -362
-51 -113 47 -100 182 21 224 44 16 49 8 17 -26 -32 -33 -34 -52 -7 -52 11 0
20 3 20 8 0 4 11 20 25 36 29 34 30 39 9 60 -19 19 -19 19 -70 -2z"/>
<path d="M3079 796 c-2 -3 -51 -9 -109 -15 -58 -6 -136 -16 -175 -23 -38 -6
-79 -12 -90 -12 -20 -2 -44 -7 -117 -27 -21 -5 -38 -14 -38 -19 0 -12 -2 -12
38 0 l34 9 -44 -51 c-51 -59 -93 -84 -162 -97 -62 -11 -74 10 -29 48 16 14 33
34 36 44 10 28 -29 21 -53 -10 -31 -40 -58 -52 -117 -53 -63 0 -69 15 -18 47
33 22 72 79 61 90 -10 10 -66 -19 -90 -47 -21 -25 -25 -27 -38 -13 -14 13 -21
12 -67 -8 -28 -12 -62 -34 -74 -50 -23 -28 -33 -32 -80 -30 -23 1 -27 5 -22
20 8 26 -19 34 -40 11 -18 -20 -68 -35 -84 -25 -18 11 0 32 48 59 56 30 81 33
81 9 0 -12 3 -14 11 -6 17 17 1 53 -23 53 -37 0 -147 -68 -154 -95 -12 -48
-14 -47 221 -45 44 0 101 7 126 15 41 14 48 14 78 -1 30 -15 66 -14 123 2 11
3 17 -2 20 -18 4 -31 46 -34 123 -9 38 13 64 16 69 10 15 -14 43 -11 86 11 43
22 51 24 49 13 -7 -43 33 -57 106 -38 31 8 60 17 65 20 6 3 14 -5 20 -19 5
-14 18 -30 29 -35 28 -15 116 -14 154 3 34 14 88 66 69 66 -6 0 -14 -5 -18
-11 -12 -20 -89 -49 -131 -49 -40 0 -83 25 -83 48 0 4 23 19 50 34 96 53 107
121 13 82 -35 -14 -53 -30 -68 -57 -22 -40 -47 -53 -125 -63 -30 -4 -50 -2
-54 4 -10 16 13 47 48 68 17 10 54 39 81 65 50 47 50 47 152 60 97 11 134 22
122 33 -3 4 -8 4 -10 2z m-350 -114 c-43 -48 -133 -102 -167 -102 -13 1 -10 7
13 26 17 14 50 45 75 69 41 38 62 49 109 54 8 0 -6 -21 -30 -47z m231 -21 c0
-9 -61 -51 -74 -51 -14 0 7 22 38 41 36 22 36 22 36 10z m-795 -40 c-14 -12
-74 -31 -99 -31 l-20 0 21 21 c11 12 36 24 54 28 35 8 60 -2 44 -18z"/>
<path d="M3897 634 c-9 -10 2 -24 19 -24 8 0 14 7 14 15 0 15 -21 21 -33 9z"/>
<path d="M5912 601 c-14 -39 -53 -63 -113 -69 -27 -2 -49 -8 -49 -13 0 -12 82
-12 112 0 32 12 78 60 78 82 0 31 -18 30 -28 0z"/>
</g>
</svg>
