<svg height="512" viewBox="0 0 256 256" width="512" xmlns="http://www.w3.org/2000/svg"><g id="Layer_64"><g><g><path d="m189.406 178.239c-.357-6.417-4.846-11.856-11.078-13.425l-21.363-5.377c-3.731-.939-7.378-2.181-10.911-3.695-.054.645-.315 1.275-.808 1.769l-14.983 14.983c-1.108 1.108-2.905 1.108-4.013 0l-6.705-6.705c-.626-.626-.886-1.471-.804-2.289h-7.691c.082.817-.178 1.663-.804 2.289l-6.705 6.705c-1.108 1.108-2.905 1.108-4.013 0l-14.983-14.983c-.491-.491-.751-1.117-.807-1.758-3.525 1.509-7.166 2.742-10.887 3.679l-21.388 5.383c-6.233 1.569-10.721 7.008-11.078 13.425l-4.115 70.951c-.13 2.34 1.732 4.31 4.076 4.31h149.098c2.344 0 4.207-1.969 4.076-4.31z" fill="#70d6f9"/></g><g><path d="m110.245 161.776-14.983-14.983c-1.108-1.108-2.904-1.108-4.013 0l-6.705 6.705c-1.108 1.108-1.108 2.904 0 4.013l14.983 14.983c1.108 1.108 2.905 1.108 4.013 0l6.705-6.705c1.108-1.108 1.108-2.905 0-4.013z" fill="#9be5f9"/></g><g><path d="m119.544 161.776 14.983-14.983c1.108-1.108 2.904-1.108 4.013 0l6.705 6.705c1.108 1.108 1.108 2.904 0 4.013l-14.983 14.983c-1.108 1.108-2.905 1.108-4.013 0l-6.705-6.705c-1.108-1.108-1.108-2.905 0-4.013z" fill="#9be5f9"/></g><g><path d="m120.468 56.772c-13.593 17.094-33.644 14.681-40.386 13.27-1.225-.256-2.401.667-2.402 1.919v.025 29.936c0 20.468 16.747 37.215 37.215 37.215 20.468 0 37.215-16.747 37.215-37.215v-33.15c0-.194-.002-.388-.006-.582-.021-1.055-.866-1.925-1.921-1.956-15.46-.453-23.606-6.581-26.736-9.649-.855-.838-2.234-.749-2.979.187z" fill="#f9d0b4"/></g><g><path d="m129.603 115.059c-3.418-5.024-8.596-8.228-14.392-8.228-5.791 0-10.966 3.198-14.384 8.215-.588.863-.183 2.055.798 2.414l.309.113c8.686 3.179 18.223 3.142 26.883-.104.973-.365 1.37-1.551.786-2.41z" fill="#fc657e"/></g><g><g><path d="m75.292 73.561c.813 0 1.609.069 2.388.189v-1.763c0-.008 0-.017 0-.025.001-1.252 1.177-2.175 2.402-1.919 6.742 1.411 26.794 3.823 40.386-13.27.745-.937 2.124-1.025 2.978-.187 3.13 3.068 11.276 9.196 26.736 9.649 1.055.031 1.9.901 1.921 1.956.004.194.006.388.006.582v4.978c.779-.121 1.575-.189 2.388-.189 4.188 0 7.982 1.665 10.777 4.36v-27.949c0-11.692-9.566-21.258-21.258-21.258-3.966 0-7.673 1.121-10.859 3.031-3.722-6.211-10.502-10.405-18.23-10.405h-10.916c-21.127 0-38.413 17.286-38.413 38.413v17.212c2.658-2.126 6.024-3.405 9.694-3.405z" fill="#754e34"/></g></g><g><path d="m154.498 73.561c-.813 0-1.609.069-2.388.189v28.173c0 .839-.038 1.67-.094 2.496.81.13 1.635.217 2.482.217 8.581 0 15.537-6.956 15.537-15.537s-6.956-15.538-15.537-15.538z" fill="#f9d0b4"/></g><g><path d="m77.68 101.923c0-3.856 0-20.507 0-28.173-.779-.121-1.575-.189-2.388-.189-8.581 0-15.538 6.957-15.538 15.538s6.956 15.537 15.538 15.537c.847 0 1.672-.086 2.482-.217v-.001c-.056-.825-.094-1.656-.094-2.495z" fill="#f9d0b4"/></g><g><path d="m166.71 253.5h22.734c2.344 0 4.207-1.969 4.076-4.31l-2.302-39.69h-24.508z" fill="#f9d0b4"/></g><g><path d="m63.621 209.5h-25.05l-2.302 39.69c-.13 2.34 1.732 4.31 4.076 4.31h23.275v-44z" fill="#f9d0b4"/></g><g><path d="m111.049 163.5h7.691c.063-.629.322-1.242.804-1.724l14.292-14.292c-1.144-1.939-1.797-4.171-1.797-6.512v-6.057c-5.14 2.69-10.97 4.223-17.145 4.223-6.174 0-12.005-1.532-17.145-4.223v6.057c0 2.342-.639 4.585-1.784 6.525l14.28 14.28c.482.481.741 1.094.804 1.723z" fill="#f9d0b4"/></g><g><path d="m140.711 94.78c-.858 0-1.694-.442-2.159-1.237-.792-1.352-1.981-2.522-3.44-3.385-2.349-1.388-5.038-1.761-7.198-1.001-1.303.462-2.73-.223-3.189-1.525-.46-1.302.224-2.73 1.525-3.189 3.534-1.249 7.799-.721 11.406 1.411 2.189 1.294 3.991 3.08 5.211 5.164.698 1.191.297 2.723-.895 3.42-.397.232-.831.342-1.261.342z"/></g><g><path d="m89.079 94.78c-.429 0-.863-.11-1.26-.342-1.192-.697-1.594-2.229-.896-3.42 1.219-2.084 3.021-3.87 5.213-5.165 3.604-2.131 7.869-2.658 11.405-1.411 1.302.459 1.985 1.887 1.525 3.189s-1.888 1.987-3.189 1.525c-2.158-.76-4.85-.387-7.197 1.001-1.461.863-2.65 2.033-3.44 3.384-.466.796-1.303 1.239-2.161 1.239z"/></g><g><path d="m166.71 255c-1.381 0-2.5-1.119-2.5-2.5v-60.706c0-1.381 1.119-2.5 2.5-2.5s2.5 1.119 2.5 2.5v60.706c0 1.381-1.119 2.5-2.5 2.5z"/></g><g><path d="m63.62 255c-1.381 0-2.5-1.119-2.5-2.5v-60.706c0-1.381 1.119-2.5 2.5-2.5s2.5 1.119 2.5 2.5v60.706c0 1.381-1.119 2.5-2.5 2.5z"/></g><g><path d="m189.443 256h-149.097c-1.802 0-3.545-.751-4.783-2.06-1.237-1.31-1.89-3.092-1.789-4.89l4.114-70.956c.421-7.546 5.631-13.859 12.965-15.705l21.387-5.384c3.451-.868 6.877-2.016 10.183-3.411 1.271-.535 2.738.06 3.275 1.332.536 1.271-.06 2.738-1.332 3.275-3.539 1.493-7.208 2.723-10.905 3.653l-21.387 5.384c-5.201 1.308-8.896 5.784-9.193 11.139l-4.114 70.957c-.024.434.128.851.43 1.17.303.319.711.495 1.15.495h149.098c.439 0 .849-.176 1.15-.495s.455-.737.431-1.176l-4.115-70.945c-.298-5.359-3.992-9.836-9.192-11.145l-21.363-5.378c-3.679-.926-7.357-2.161-10.931-3.671-1.272-.537-1.867-2.004-1.33-3.275.538-1.271 2.005-1.87 3.275-1.33 3.34 1.41 6.773 2.563 10.206 3.427l21.363 5.378c7.333 1.846 12.543 8.159 12.964 15.711l4.115 70.945c.1 1.805-.553 3.587-1.791 4.896-1.239 1.309-2.982 2.059-4.784 2.059z"/></g><g><path d="m101.533 175.821c-1.366 0-2.732-.52-3.772-1.559l-14.984-14.984c-2.08-2.081-2.08-5.467-.001-7.547l6.706-6.706c2.083-2.081 5.469-2.079 7.548 0l14.983 14.983c2.081 2.081 2.081 5.467 0 7.548l-6.705 6.705c-1.04 1.041-2.408 1.56-3.775 1.56zm-8.277-27.359c-.087 0-.174.033-.24.1l-6.704 6.704c-.131.132-.131.346.001.479l14.982 14.982c.132.132.347.132.479-.001l6.704-6.704c.132-.132.132-.346 0-.478l-14.983-14.983c-.066-.066-.153-.099-.239-.099z"/></g><g><path d="m128.256 175.822c-1.366 0-2.733-.52-3.773-1.56l-6.706-6.706c-2.081-2.082-2.08-5.468 0-7.548l14.983-14.983c2.079-2.079 5.466-2.08 7.547-.001l6.706 6.706c2.081 2.081 2.081 5.467 0 7.548l-14.983 14.983c-1.041 1.041-2.408 1.561-3.774 1.561zm8.278-27.359c-.087 0-.174.032-.24.099l-14.982 14.982c-.131.132-.131.346.001.479l6.704 6.704c.13.13.346.132.478 0l14.983-14.983c.132-.132.132-.346 0-.478l-6.705-6.705c-.066-.066-.153-.098-.239-.098z"/></g><g><path d="m114.895 141.638c-21.898 0-39.715-17.816-39.715-39.715v-29.936c.001-1.371.603-2.629 1.65-3.479 1.059-.858 2.428-1.192 3.764-.911 7.237 1.514 25.417 3.339 37.917-12.38 0-.001.001-.001.001-.001.796-1.001 1.982-1.619 3.254-1.698 1.267-.08 2.52.39 3.431 1.282 2.593 2.541 10.225 8.5 25.06 8.936 2.391.068 4.301 2.004 4.348 4.406.004.208.006.42.006.631v33.15c-.002 21.898-17.818 39.715-39.716 39.715zm-34.715-69.025v29.31c0 19.142 15.573 34.715 34.715 34.715s34.715-15.573 34.715-34.715v-33.15c0-.019 0-.037 0-.056-15.155-.564-23.626-6.309-27.521-9.971-14.188 17.398-34.92 15.217-41.909 13.867z"/></g><g><g><path d="m165.274 80c-1.381 0-2.5-1.119-2.5-2.5v-27.526c0-10.343-8.415-18.758-18.758-18.758-3.345 0-6.655.925-9.574 2.675-.569.341-1.251.442-1.893.28-.644-.161-1.196-.571-1.537-1.14-3.396-5.668-9.561-9.189-16.086-9.189h-10.916c-19.803 0-35.913 16.11-35.913 35.913v16.995c0 1.381-1.119 2.5-2.5 2.5s-2.5-1.119-2.5-2.5v-16.995c0-22.56 18.354-40.913 40.913-40.913h10.916c7.481 0 14.581 3.641 19.048 9.638 3.15-1.486 6.579-2.264 10.042-2.264 13.101 0 23.758 10.657 23.758 23.758v27.526c0 1.381-1.119 2.5-2.5 2.5z"/></g></g><g><path d="m154.498 107.136c-.48 0-.979-.023-1.484-.07-1.375-.127-2.387-1.344-2.26-2.719.126-1.375 1.346-2.406 2.719-2.26.338.031.679.049 1.025.049 7.188 0 13.037-5.849 13.037-13.037 0-7.189-5.849-13.038-13.037-13.038-.368 0-.732.018-1.092.049-1.38.127-2.59-.896-2.71-2.271-.121-1.375.896-2.589 2.271-2.71.514-.045 1.028-.068 1.531-.068 9.945 0 18.037 8.092 18.037 18.038 0 9.945-8.092 18.037-18.037 18.037z"/></g><g><path d="m75.292 107.136c-9.946 0-18.038-8.092-18.038-18.037 0-9.946 8.092-18.038 18.038-18.038.628 0 1.269.035 1.903.104 1.373.15 2.363 1.385 2.214 2.757-.15 1.373-1.397 2.362-2.757 2.214-.456-.05-.913-.075-1.36-.075-7.189 0-13.038 5.849-13.038 13.038 0 7.188 5.849 13.037 13.038 13.037.346 0 .687-.018 1.024-.049 1.379-.131 2.593.885 2.719 2.26.127 1.375-.885 2.592-2.26 2.719-.504.046-1.004.07-1.483.07z"/></g><g><path d="m190.5 212h-23c-1.381 0-2.5-1.119-2.5-2.5s1.119-2.5 2.5-2.5h23c1.381 0 2.5 1.119 2.5 2.5s-1.119 2.5-2.5 2.5z"/></g><g><path d="m62.688 212h-23.563c-1.381 0-2.5-1.119-2.5-2.5s1.119-2.5 2.5-2.5h23.563c1.381 0 2.5 1.119 2.5 2.5s-1.119 2.5-2.5 2.5z"/></g><g><path d="m133.499 149.373c-.902 0-1.773-.49-2.22-1.347-1.138-2.186-1.739-4.625-1.739-7.055v-5.503c0-1.381 1.119-2.5 2.5-2.5s2.5 1.119 2.5 2.5v5.503c0 1.629.406 3.271 1.175 4.746.638 1.225.161 2.734-1.063 3.372-.369.192-.764.284-1.153.284z"/></g><g><path d="m118.188 166h-6.625c-1.381 0-2.5-1.119-2.5-2.5s1.119-2.5 2.5-2.5h6.625c1.381 0 2.5 1.119 2.5 2.5s-1.12 2.5-2.5 2.5z"/></g><g><path d="m96.237 149.51c-.397 0-.8-.096-1.175-.296-1.219-.649-1.679-2.164-1.028-3.382.795-1.491 1.216-3.172 1.216-4.86v-5.284c0-1.381 1.119-2.5 2.5-2.5s2.5 1.119 2.5 2.5v5.284c0 2.507-.624 5.002-1.806 7.214-.449.843-1.313 1.324-2.207 1.324z"/></g><g><path d="m115.234 122.429c-4.796 0-9.59-.836-14.16-2.509l-.311-.114c-1.202-.439-2.118-1.394-2.512-2.616-.389-1.212-.203-2.506.51-3.552 4.029-5.915 10.024-9.308 16.449-9.308 6.431 0 12.43 3.398 16.459 9.322.708 1.041.895 2.329.513 3.535-.386 1.218-1.292 2.173-2.486 2.622-4.659 1.747-9.56 2.62-14.462 2.62zm-11.651-6.925c7.539 2.563 15.727 2.567 23.266.013-3.044-3.946-7.23-6.187-11.638-6.187-4.401 0-8.584 2.235-11.628 6.174zm23.953.962h.01zm-.002-.003c0 .001.001.001.001.002 0-.001-.001-.001-.001-.002zm-25.051-1.352h.002c-.001 0-.001 0-.002 0z"/></g><g><path d="m131.145 94c-1.657 0-3-1.343-3-3v-3c0-1.657 1.343-3 3-3s3 1.343 3 3v3c0 1.657-1.343 3-3 3z"/></g><g><path d="m98.645 94.5c-1.657 0-3-1.343-3-3v-3c0-1.657 1.343-3 3-3s3 1.343 3 3v3c0 1.657-1.343 3-3 3z"/></g><g><path d="m205.076 60.087c-.002 0-.004 0-.006 0l-16.181-.04c-.977-.002-1.862-.573-2.268-1.461s-.258-1.931.379-2.67l12.683-14.732-10.748-.026c-1.381-.003-2.497-1.125-2.494-2.506.003-1.379 1.122-2.494 2.5-2.494h.006l16.182.039c.977.002 1.862.572 2.268 1.461.406.888.258 1.931-.379 2.67l-12.683 14.733 10.747.026c1.381.004 2.497 1.125 2.494 2.506-.004 1.379-1.122 2.494-2.5 2.494z"/></g><g><path d="m185.966 79.802c-.002 0-.004 0-.006 0l-9.919-.024c-.977-.002-1.862-.573-2.268-1.461s-.258-1.931.379-2.67l6.402-7.438-4.485-.011c-1.381-.003-2.497-1.125-2.494-2.506.003-1.379 1.122-2.494 2.5-2.494h.006l9.919.024c.977.002 1.862.573 2.268 1.461s.258 1.931-.379 2.67l-6.402 7.438 4.485.011c1.381.003 2.497 1.125 2.494 2.506-.003 1.379-1.122 2.494-2.5 2.494z"/></g><g><path d="m218.665 30.008h-21.422c-.977 0-1.863-.568-2.271-1.455-.407-.887-.263-1.93.373-2.671l17.886-20.882h-15.988c-1.381 0-2.5-1.119-2.5-2.5s1.119-2.5 2.5-2.5h21.422c.977 0 1.863.568 2.271 1.455.407.887.263 1.93-.373 2.671l-17.887 20.882h15.988c1.381 0 2.5 1.119 2.5 2.5s-1.118 2.5-2.499 2.5z"/></g><g><g><g><path d="m222.087 181.85c-4.5-.8-8-4.3-8.9-8.7 0-.2-.4-.2-.4 0-.9 4.4-4.4 7.9-8.9 8.7-.2 0-.2.3 0 .4 4.5.8 8 4.3 8.9 8.7 0 .2.4.2.4 0 .9-4.4 4.4-7.9 8.9-8.7.2-.1.2-.4 0-.4z" fill="#f5c84c"/></g></g></g><g><g><g><path d="m167.897 131.059c-3.158-.561-5.613-3.017-6.245-6.104 0-.14-.281-.14-.281 0-.631 3.087-3.087 5.543-6.245 6.104-.14 0-.14.21 0 .281 3.158.561 5.613 3.017 6.245 6.104 0 .14.281.14.281 0 .631-3.087 3.087-5.543 6.245-6.104.141-.071.141-.281 0-.281z" fill="#fc657e"/></g></g></g><g><g><g><path d="m56.987 26.349h-2.3v-2.3c0-1.7-1.4-3.2-3.2-3.2s-3.2 1.4-3.2 3.2v2.3h-2.3c-1.7 0-3.2 1.4-3.2 3.2s1.4 3.2 3.2 3.2h2.3v2.3c0 1.7 1.4 3.2 3.2 3.2s3.2-1.4 3.2-3.2v-2.3h2.3c1.7 0 3.2-1.4 3.2-3.2s-1.4-3.2-3.2-3.2z" fill="#70d6f9"/></g></g></g><g><g><g><circle cx="78.087" cy="3.4" fill="#f5c84c" r="3.4"/></g></g></g><g><g><g><circle cx="207.087" cy="213.249" fill="#87d147" r="3.4"/></g></g></g></g></g></svg>