<svg id="Layer_5" enable-background="new 0 0 64 64" height="512" viewBox="0 0 64 64" width="512" xmlns="http://www.w3.org/2000/svg"><g><g><g><path d="m12 58h-8v-7c.83.63 1.87 1 3 1 2.76 0 5-2.24 5-5v-1h6c3.84 3.84 6 9.05 6 14.49v1.51h-12z" fill="#b4dd7f"/></g><g><path d="m24 26h-7.86c-1.23 0-2.27.9-2.44 2.12l-.7 4.88h-.53c-1.36 0-2.47 1.11-2.47 2.47 0 .94.53 1.79 1.37 2.21l.63.32v6 2 1c0 2.76-2.24 5-5 5-1.13 0-2.17-.37-3-1-.19-.14-.37-.29-.54-.46-.9-.91-1.46-2.16-1.46-3.54v-.53c0-2.94.68-5.84 2-8.47s2-5.53 2-8.47v-3.53c0-4.42 3.58-8 8-8h2c4.42 0 8 3.58 8 8z" fill="#fcd770"/></g><g><path d="m56.54 24.54c-.68.68-1.56 1.16-2.54 1.36-.32.07-.66.1-1 .1h-11c-1.1 0-2-.9-2-2v3h-1c-.8 0-1.52.31-2.05.81l-.81-3.27c-.09-.36-.14-.73-.14-1.1 0-1.52.76-2.95 2.03-3.79l.97-.65c.62-.94 1.46-1.68 2.43-2.2.96-.52 2.05-.8 3.18-.8h1.35c1.33 0 2.63.39 3.74 1.13l.66.44c.14-.26.32-.49.52-.69.54-.54 1.29-.88 2.12-.88 1.38 0 2.63.56 3.54 1.46.9.91 1.46 2.16 1.46 3.54s-.56 2.63-1.46 3.54z" fill="#b27946"/></g><g><path d="m48 52 2 10h-6l2-10z" fill="#fcd770"/></g><g><path d="m49.27 48.83-1.27 3.17h-2l-1.27-3.17 2.27-2.83z" fill="#ffc729"/></g><g><path d="m46 52-2 10h-6-6v-12.92c0-2.93 2.12-5.43 5.01-5.92l5.12-.85.87 8.69 1.73-2.17z" fill="#75b1f2"/></g><g><path d="m56 62h-6l-2-10 1.27-3.17 1.73 2.17.87-8.69 5.12.85c2.89.49 5.01 2.99 5.01 5.92v12.92z" fill="#75b1f2"/></g><g><path d="m51.87 42.31-.87 8.69-1.73-2.17-2.27-2.83 3-4z" fill="#5d9cec"/></g><g><path d="m44 42 3 4-2.27 2.83-1.73 2.17-.87-8.69z" fill="#5d9cec"/></g><g><path d="m38 5v6.17c0 1.56-1.27 2.83-2.83 2.83h-1.17v2.59c0 .78-.63 1.41-1.41 1.41-.38 0-.74-.15-1-.41l-3.59-3.59h-7.17c-1.56 0-2.83-1.27-2.83-2.83v-6.17c0-1.66 1.34-3 3-3h14c1.66 0 3 1.34 3 3z" fill="#e6e9ed"/></g><g><path d="m4 58h8v4h-8z" fill="#f0d0b4"/></g><g><path d="m54 32v-5h1c1.66 0 3 1.34 3 3 0 .83-.34 1.58-.88 2.12s-1.29.88-2.12.88h-1.07-.01c.06-.33.08-.66.08-1z" fill="#f0d0b4"/></g><g><path d="m50 38.33v3.67l-3 4-3-4v-3.67-.01c.91.44 1.92.68 3 .68s2.09-.24 3-.68z" fill="#f0d0b4"/></g><g><path d="m40 32c0 .34.02.67.08 1h-.01-1.07c-.83 0-1.58-.34-2.12-.88s-.88-1.29-.88-2.12c0-.86.36-1.64.95-2.19.53-.5 1.25-.81 2.05-.81h1z" fill="#f0d0b4"/></g><g><path d="m54 27v5c0 .34-.02.67-.08 1-.33 2.36-1.84 4.34-3.92 5.32-.91.44-1.92.68-3 .68s-2.09-.24-3-.68c-.73-.34-1.39-.81-1.95-1.37-1.05-1.05-1.76-2.41-1.97-3.95-.06-.33-.08-.66-.08-1v-5-3c0 1.1.9 2 2 2h11c.34 0 .68-.03 1-.1z" fill="#f0d0b4"/></g><g><path d="m18 42v4h-6v-2-6l-.63-.32c-.84-.42-1.37-1.27-1.37-2.21 0-1.36 1.11-2.47 2.47-2.47h.53l.7-4.88c.17-1.22 1.21-2.12 2.44-2.12h7.86s2 6 2 9l-3 1v3.38c0 .99-.56 1.9-1.45 2.34-.36.19-.76.28-1.17.28z" fill="#f0d0b4"/></g></g><g><path d="m57.15 42.178-6.15-1.025v-2.236c1.828-1.061 3.195-2.823 3.737-4.918h.263c2.206 0 4-1.794 4-4 0-1.84-1.255-3.378-2.95-3.842 1.763-1.046 2.95-2.963 2.95-5.157 0-3.309-2.691-6-6-6-1.129 0-2.145.474-2.873 1.229-1.247-.799-2.682-1.229-4.167-1.229h-1.354c-2.524 0-4.871 1.22-6.32 3.275l-.811.54c-1.55 1.033-2.475 2.762-2.475 4.624 0 .452.056.905.166 1.348l.692 2.767c-.529.679-.858 1.521-.858 2.446 0 2.206 1.794 4 4 4h.263c.542 2.095 1.909 3.856 3.737 4.918v2.236l-6.15 1.024c-3.39.565-5.85 3.468-5.85 6.905v13.917h32v-13.917c0-3.437-2.46-6.34-5.85-6.905zm-13.585.909 2.17 2.894-1.984 2.48-.532-5.317zm3.255 9.913h.361l1.6 8h-3.561zm.503-2h-.646l-.799-1.997 1.122-1.403 1.122 1.402zm.942-5.02 2.17-2.894.346.058-.532 5.317zm8.735-15.98c0 1.103-.897 2-2 2v-4c1.103 0 2 .897 2 2zm-18.416-9.521 1.137-.758.111-.167c1.066-1.6 2.851-2.555 4.773-2.555h1.354c1.137 0 2.237.333 3.183.963l.009.006c-.088.332-.151.673-.151 1.032 0 2.206 1.794 4 4 4h2v-2h-2c-1.103 0-2-.897-2-2s.897-2 2-2c2.206 0 4 1.794 4 4s-1.794 4-4 4h-11c-.552 0-1-.449-1-1s.448-1 1-1h1v-2h-1c-1.654 0-3 1.346-3 3v2c-.495 0-.965.102-1.403.267l-.491-1.964c-.07-.283-.106-.574-.106-.864 0-1.192.592-2.299 1.584-2.96zm-1.584 9.521c0-1.103.897-2 2-2v4c-1.103 0-2-.897-2-2zm4 2v-5.184c.314.112.648.184 1 .184h11v5c0 3.309-2.691 6-6 6s-6-2.691-6-6zm6 8c.692 0 1.359-.097 2-.263v1.931l-2 2.666-2-2.666v-1.931c.641.166 1.308.263 2 .263zm-14 9.083c0-2.454 1.757-4.529 4.178-4.933l4.064-.677 1.007 10.066 2.193-2.741.519 1.298-1.781 8.904h-4.18v-11h-2v11h-4zm28 11.917h-4v-11h-2v11h-4.18l-1.781-8.905.519-1.298 2.193 2.741 1.007-10.066 4.064.677c2.421.405 4.178 2.48 4.178 4.934z"/><path d="m50 33h-2c0 .552-.448 1-1 1s-1-.448-1-1h-2c0 1.654 1.346 3 3 3s3-1.346 3-3z"/><path d="m16 17h-2c-4.963 0-9 4.038-9 9v3.528c0 2.771-.655 5.546-1.895 8.025-1.376 2.755-2.105 5.839-2.105 8.919v.528c0 1.771.776 3.36 2 4.46v11.54h22v-2.515c0-5.593-2.136-10.849-6-14.869v-2.616h1.382c.558 0 1.118-.132 1.618-.382 1.233-.617 2-1.857 2-3.236v-2.661l3-1v-.721c0-2.917-1.712-8.279-2.01-9.188-.101-4.875-4.091-8.812-8.99-8.812zm-13 29.472c0-2.771.655-5.546 1.895-8.024 1.376-2.756 2.105-5.84 2.105-8.92v-3.528c0-3.86 3.141-7 7-7h2c3.519 0 6.432 2.613 6.92 6h-6.776c-1.717 0-3.194 1.282-3.438 2.981l-.576 4.036c-1.754.171-3.13 1.656-3.13 3.455 0 1.323.735 2.514 1.92 3.106l.08.04v5.382 2 1c0 2.206-1.794 4-4 4s-4-1.794-4-4zm2 12.528h6v2h-6zm18 2h-10v-8h-2v4h-6v-4.35c.627.222 1.298.35 2 .35 3.309 0 6-2.691 6-6h4.58c3.498 3.645 5.42 8.418 5.42 13.485zm-1-25.721v4.103c0 .617-.343 1.172-.895 1.447-.223.112-.473.171-.723.171h-5.382v2h2v2h-4v-1-6.618l-1.187-.593c-.501-.251-.813-.756-.813-1.317 0-.812.66-1.472 1.472-1.472h1.396l.82-5.736c.102-.721.729-1.264 1.457-1.264h7.126c.459 1.469 1.496 4.979 1.696 7.29z"/><circle cx="20" cy="31" r="1"/><path d="m21 5h14v2h-14z"/><path d="m21 9h10v2h-10z"/><path d="m33 9h2v2h-2z"/><path d="m35 16.586v-1.586h.166c2.114 0 3.834-1.72 3.834-3.834v-6.166c0-2.206-1.794-4-4-4h-14c-2.206 0-4 1.794-4 4v6.166c0 2.114 1.72 3.834 3.834 3.834h6.752l3.292 3.292c.449.45 1.071.708 1.708.708 1.331 0 2.414-1.083 2.414-2.414zm-2.707.293-3.879-3.879h-7.58c-1.012 0-1.834-.823-1.834-1.834v-6.166c0-1.103.897-2 2-2h14c1.103 0 2 .897 2 2v6.166c0 1.011-.822 1.834-1.834 1.834h-2.166v3.586c0 .337-.469.532-.707.293z"/></g></g></svg>