<svg id="Filled" height="512" viewBox="0 0 512 512" width="512" xmlns="http://www.w3.org/2000/svg"><path d="m320 24h144v168h-144z" fill="#dadcde"/><path d="m168 216c16 8 32 24 0 64s16 72 16 72 16-32 48-64 32-16 56-64c17.889-35.777 48-32 48-32v-168h-168z" fill="#f0c6a4"/><g fill="#f7cca9"><path d="m168 216h-96a24 24 0 0 1 0-48h96a24 24 0 0 1 0 48z"/><path d="m168 168h-96a24 24 0 0 1 0-48h96a24 24 0 0 1 0 48z"/><path d="m168 120h-96a24 24 0 0 1 0-48h96a24 24 0 0 1 0 48z"/><path d="m168 72h-80a24 24 0 0 1 0-48h80a24 24 0 0 1 0 48z"/></g><path d="m336 24h64v168h-64z" fill="#e9eef2"/><path d="m168 488-54.631-52a29.451 29.451 0 0 1 0-43.081 33.17 33.17 0 0 1 45.261 0l9.37 8.919-16 22.162 24 16z" fill="#eb423f"/><path d="m216 488 8-48-24-16 25.372-31.081a33.17 33.17 0 0 1 45.261 0 29.451 29.451 0 0 1 0 43.081z" fill="#eb423f"/><path d="m40 192a32.036 32.036 0 0 0 32 32h94.04c7.064 3.831 10.913 8.082 12.057 13.288 1.948 8.872-3.7 21.914-16.344 37.714-10.248 12.81-14.355 26.32-12.207 40.155 4.021 25.9 28.957 42.793 30.016 43.5a8 8 0 0 0 11.59-3.073c.157-.31 15.894-31.315 46.505-61.926a178.614 178.614 0 0 1 23.1-19.807c12.362-9.1 18.5-14.467 34.4-46.272 14.967-29.932 38.911-27.741 39.849-27.64.331.041 129 .062 129 .062a8 8 0 0 0 8-8v-168.001a8 8 0 0 0 -8-8h-376.006a31.984 31.984 0 0 0 -26.576 49.8 31.969 31.969 0 0 0 -10.556 54.2 31.934 31.934 0 0 0 0 48 31.923 31.923 0 0 0 -10.868 24zm368-160h48v152h-48zm-64 0h48v152h-48zm-154.868 136a32.02 32.02 0 0 0 9.973-16.506 146.241 146.241 0 0 1 28.112 1.479c24.286 3.719 42.635 13.148 54.536 28.025a8 8 0 1 0 12.494-10c-14.366-17.957-36.863-29.684-65.06-33.914a162.022 162.022 0 0 0 -30.347-1.607 32.045 32.045 0 0 0 -9.708-15.477 31.934 31.934 0 0 0 0-48 31.916 31.916 0 0 0 6.568-40h132.3v152.21c-11.923 1.364-33.038 7.98-47.155 36.212-14.851 29.7-19.466 33.1-29.577 40.543a192.828 192.828 0 0 0 -24.925 21.378 296.185 296.185 0 0 0 -44.686 57.406c-6.142-5.737-14.5-15.443-16.3-27.047-1.451-9.35 1.457-18.412 8.891-27.7 16.213-20.267 22.584-37 19.477-51.143a31.139 31.139 0 0 0 -8.177-15.115 31.95 31.95 0 0 0 3.584-50.744zm-101.132-136h80a16 16 0 0 1 0 32h-80a16 16 0 0 1 0-32zm-16 48h96a16 16 0 0 1 0 32h-96a16 16 0 0 1 0-32zm0 48h96a16 16 0 0 1 0 32h-96a16 16 0 0 1 0-32zm0 48h96a16 16 0 0 1 0 32h-96a16 16 0 0 1 0-32z"/><circle cx="368" cy="160" r="8"/><path d="m173.519 396.043-9.371-8.918a41.167 41.167 0 0 0 -56.294 0 37.449 37.449 0 0 0 0 54.667l54.631 52a8 8 0 0 0 13.408-4.479l8-48a8 8 0 0 0 -3.454-7.971l-17.09-11.394 11.141-15.429a8 8 0 0 0 -.971-10.476zm-6.26 47.744-4.668 28.013-43.7-41.6a21.453 21.453 0 0 1 0-31.5 25.173 25.173 0 0 1 34.229 0l4.312 4.1-11.915 16.5a8 8 0 0 0 2.048 11.339z"/><path d="m288 414.459a37.482 37.482 0 0 0 -11.852-27.334 41.167 41.167 0 0 0 -56.292 0 8.03 8.03 0 0 0 -.681.735l-25.375 31.081a8 8 0 0 0 1.759 11.715l19.7 13.131-7.148 42.9a8 8 0 0 0 13.408 7.109l54.632-52a37.484 37.484 0 0 0 11.849-27.337zm-22.883 15.747-37.288 35.494 4.063-24.384a8 8 0 0 0 -3.454-7.971l-16.667-11.112 19.458-23.833a25.183 25.183 0 0 1 33.885.316 21.453 21.453 0 0 1 0 31.5z"/></svg>