<svg xmlns="https://www.w3.org/2000/svg" xmlns:xlink="https://www.w3.org/1999/xlink" version="1.1" x="0px" y="0px" width="139.499px" height="124.493px" viewBox="-0.5 -0.499 139.499 124.493" enable-background="new -0.5 -0.499 139.499 124.493" xml:space="preserve">

// SVG path for left-most fish, facing right.

<path fill="#000" d="M41.646 30.227c-5.357-1.701-11.836-0.812-11.836-0.812s-4.874-4.128-8.157-3.898 c-0.867 0.5 0.1 4 0.6 5.726c-2.311-0.229-10.6 4.392-14.104 4.036c-1.384-1.066-8.6-6.702-8.6-6.702 s0.659 7.9 2.3 10.739C0.469 41.17-0.5 49.98-0.5 49.98s7.312-5.637 8.599-6.627c1.284-0.99 10.4 3.7 14 4 c-0.847 3.8 0.7 2.9 0.7 2.899l4.5-1.071c0 0 9.9 0.8 15.667-1.371c6.006-2.285 11.465-6.958 11.465-8.531 C54.492 37.9 47.5 32.1 41.6 30.227z M32.499 43.551c-0.424 0.777-1.117 1.412-1.897 1.8 c-0.787 0.428-1.653 0.666-2.52 0.771c-0.433 0.06-0.868 0.075-1.301 0.065c-0.438-0.013-0.854-0.037-1.312-0.112l-0.592-0.099 l0.227-0.543c0.433-1.043 0.879-2.08 1.354-3.107c0.243-0.512 0.479-1.027 0.74-1.531c0.258-0.506 0.505-1.016 0.787-1.512 c-0.124 0.557-0.283 1.101-0.432 1.649c-0.145 0.55-0.315 1.089-0.479 1.63c-0.337 1.08-0.505 1.588-0.884 2.652l0.6-0.012 c0 0 0.789-0.025 1.181-0.061c0.776-0.088 1.541-0.266 2.24-0.57c0.697-0.312 1.326-0.766 1.815-1.375 c0.238-0.307 0.467-0.637 0.638-1.003c0.187-0.362 0.311-0.753 0.446-1.151C33.111 41.9 32.9 42.8 32.5 43.551z M39.69 43.93c-0.106-0.096-0.235-0.213-0.384-0.347c-0.072-0.067-0.149-0.142-0.229-0.218c-0.065-0.096-0.136-0.194-0.207-0.299 c-0.145-0.211-0.304-0.444-0.459-0.703c-0.158-0.257-0.238-0.553-0.353-0.856c-0.104-0.304-0.239-0.617-0.25-0.96 c-0.038-0.338-0.076-0.681-0.114-1.025c0.037-0.336 0.073-0.673 0.11-1.004c0.005-0.308 0.136-0.641 0.243-0.958 c0.112-0.311 0.201-0.626 0.354-0.877c0.152-0.252 0.308-0.482 0.45-0.691c0.07-0.104 0.139-0.203 0.204-0.297 c0.083-0.081 0.162-0.157 0.236-0.229c0.15-0.138 0.282-0.258 0.391-0.357c0.219-0.19 0.348-0.289 0.348-0.289 s-0.069 0.151-0.192 0.415c-0.063 0.124-0.143 0.276-0.23 0.45c-0.103 0.163-0.186 0.362-0.255 0.6 c-0.078 0.223-0.162 0.459-0.263 0.7c-0.097 0.244-0.105 0.516-0.185 0.777c-0.068 0.263-0.135 0.525-0.142 0.9 c-0.024 0.301-0.049 0.606-0.072 0.912c0.023 0.3 0 0.6 0.1 0.891c0.001 0.3 0.1 0.6 0.1 0.9 c0.079 0.3 0.1 0.6 0.2 0.797c0.099 0.2 0.2 0.5 0.3 0.687c0.064 0.2 0.2 0.4 0.3 0.6 c0.092 0.2 0.2 0.3 0.2 0.457c0.128 0.3 0.2 0.4 0.2 0.412S39.907 44.1 39.7 43.93z M42.69 43.9 c-0.106-0.096-0.235-0.213-0.384-0.347c-0.072-0.067-0.149-0.142-0.229-0.218c-0.065-0.096-0.136-0.194-0.207-0.299 c-0.145-0.211-0.304-0.444-0.459-0.703c-0.158-0.257-0.238-0.553-0.353-0.856c-0.104-0.304-0.239-0.617-0.25-0.96 c-0.038-0.338-0.076-0.681-0.114-1.025c0.037-0.336 0.073-0.673 0.11-1.004c0.005-0.308 0.136-0.641 0.243-0.958 c0.112-0.311 0.201-0.626 0.354-0.877c0.152-0.252 0.308-0.482 0.45-0.691c0.07-0.104 0.139-0.203 0.204-0.297 c0.083-0.081 0.162-0.157 0.236-0.229c0.15-0.138 0.282-0.258 0.391-0.357c0.219-0.19 0.348-0.289 0.348-0.289 s-0.069 0.151-0.192 0.415c-0.063 0.124-0.143 0.276-0.23 0.45c-0.103 0.163-0.186 0.362-0.255 0.6 c-0.078 0.223-0.162 0.459-0.263 0.7c-0.097 0.244-0.105 0.516-0.185 0.777c-0.068 0.263-0.135 0.525-0.142 0.9 c-0.024 0.301-0.049 0.606-0.072 0.912c0.023 0.3 0 0.6 0.1 0.891c0.001 0.3 0.1 0.6 0.1 0.9 c0.079 0.3 0.1 0.6 0.2 0.797c0.099 0.2 0.2 0.5 0.3 0.687c0.064 0.2 0.2 0.4 0.3 0.6 c0.092 0.2 0.2 0.3 0.2 0.457c0.128 0.3 0.2 0.4 0.2 0.412S42.907 44.1 42.7 43.93z M47.256 38.9 c-0.757 0-1.371-0.614-1.371-1.371c0-0.757 0.614-1.371 1.371-1.371c0.758 0 1.4 0.6 1.4 1.4 C48.627 38.3 48 38.9 47.3 38.935z"/>

// SVG path for right-most fish, facing left. 

<path fill="#000" d="M43.782 53.987c0 0-5.811 4.539-6.924 5.398c-2.823 0.285-9.497-3.435-11.356-3.251 c0.358-1.377 1.142-4.189 0.442-4.609c-2.646-0.186-6.569 3.139-6.569 3.139s-5.217-0.717-9.529 0.7 C5.099 56.823-0.5 61.51-0.5 62.572c0 1.3 4.4 5 9.2 6.869c4.679 1.8 12.6 1.1 12.6 1.105l3.624 0.9 c0 0 1.3 0.7 0.579-2.336c2.955-0.244 10.271-3.984 11.308-3.188s6.924 5.3 6.9 5.336s-0.779-7.094-1.843-8.586 C43.251 60.4 43.8 54 43.8 53.987z M5.326 62.328c-0.609 0-1.104-0.494-1.104-1.104c0-0.611 0.493-1.105 1.104-1.105 s1.104 0.5 1.1 1.105C6.43 61.8 5.9 62.3 5.3 62.328z M10.611 63.639c-0.011 0.281-0.123 0.535-0.212 0.8 c-0.095 0.248-0.167 0.486-0.3 0.695c-0.132 0.211-0.267 0.398-0.39 0.568c-0.113 0.18-0.24 0.311-0.37 0.4 c-0.124 0.104-0.232 0.191-0.321 0.268c-0.186 0.146-0.297 0.223-0.297 0.223s0.046-0.129 0.14-0.344 c0.05-0.105 0.109-0.232 0.179-0.381c0.082-0.141 0.146-0.311 0.192-0.488c0.056-0.178 0.112-0.365 0.186-0.553 c0.072-0.188 0.076-0.422 0.137-0.635c0.053-0.219 0.104-0.443 0.103-0.68c0.017-0.232 0.034-0.469 0.052-0.705 c-0.019-0.242-0.036-0.484-0.054-0.725c-0.007-0.271-0.054-0.477-0.104-0.684c-0.06-0.205-0.059-0.419-0.132-0.615 c-0.074-0.191-0.136-0.385-0.191-0.564c-0.09-0.373-0.283-0.627-0.357-0.854c-0.091-0.213-0.141-0.346-0.141-0.346 s0.108 0.1 0.3 0.221c0.165 0.2 0.5 0.3 0.7 0.695c0.121 0.2 0.3 0.4 0.4 0.6 c0.131 0.2 0.2 0.5 0.3 0.716c0.091 0.3 0.2 0.5 0.2 0.779c0.029 0.3 0.1 0.5 0.1 0.8 C10.675 63.1 10.6 63.4 10.6 63.639z M13.027 63.639c-0.01 0.281-0.124 0.535-0.212 0.8 c-0.095 0.248-0.166 0.486-0.3 0.695c-0.132 0.211-0.267 0.398-0.39 0.568c-0.113 0.18-0.241 0.311-0.37 0.4 c-0.124 0.104-0.232 0.191-0.321 0.268c-0.186 0.146-0.297 0.223-0.297 0.223s0.046-0.129 0.14-0.344 c0.049-0.105 0.109-0.232 0.178-0.381c0.083-0.141 0.147-0.311 0.193-0.488c0.055-0.178 0.111-0.365 0.186-0.553 c0.071-0.188 0.075-0.422 0.137-0.635c0.053-0.219 0.103-0.443 0.103-0.68c0.018-0.232 0.034-0.469 0.051-0.705 c-0.018-0.242-0.035-0.484-0.054-0.725c-0.006-0.271-0.052-0.477-0.104-0.684c-0.061-0.205-0.06-0.419-0.132-0.615 c-0.075-0.191-0.137-0.385-0.191-0.564c-0.091-0.373-0.283-0.627-0.358-0.854c-0.091-0.213-0.14-0.346-0.14-0.346 s0.108 0.1 0.3 0.221c0.165 0.2 0.5 0.3 0.7 0.695c0.121 0.2 0.3 0.4 0.4 0.6 c0.13 0.2 0.2 0.5 0.3 0.716c0.092 0.3 0.2 0.5 0.2 0.779c0.03 0.3 0.1 0.5 0.1 0.8 C13.092 63.1 13.1 63.4 13 63.639z M22.885 68.197c-0.377 0.064-0.713 0.084-1.069 0.1 c-0.354 0.01-0.707-0.002-1.061-0.053c-0.705-0.086-1.413-0.281-2.054-0.639c-0.639-0.354-1.203-0.885-1.538-1.525 c-0.349-0.635-0.476-1.348-0.446-2.021c0.231 0.6 0.5 1.2 0.9 1.705c0.398 0.5 0.9 0.8 1.5 1.1 c0.558 0.2 1.2 0.4 1.8 0.439c0.311 0 0.9 0 0.9 0.049s0.153 0 0.438-0.01c0 0-1.026-2.855-1.397-4.662 c0.938 1.6 1.7 3.2 2.4 4.92l0.228 0.539L22.885 68.197z"/><g>

// SVG path for hook body 

<path fill="#D3D3D3" d="M124.899 86.373c-0.057-0.867-0.142-1.85-0.229-2.65l-0.14-0.994l-0.067-0.496l-0.069-0.463l-0.062-0.324 c-0.598-3.446-1.828-6.772-3.445-9.666c-1.608-2.903-3.576-5.35-5.562-7.432c-1.98-2.1-4.006-3.823-5.917-5.35 c-1.903-1.537-3.715-2.865-5.329-4.09c-3.252-2.429-5.597-4.546-6.536-6.032c-0.214-0.344-0.43-0.757-0.538-0.965 c-0.016-0.023-0.04-0.045-0.07-0.069l-0.055-0.036c-0.018-0.037-0.026-0.178-0.043-0.261l-0.079-0.575l-0.039-0.283l-0.006-0.035 c0.019 0.6 0 0.2 0 0.293l-0.004-0.06l-0.008-0.118c-0.119-1.231-0.168-2.494-0.178-3.65 c-0.002-1.184 0.007-2.257 0.021-3.198c9.516-1.713 16.764-10.037 16.764-20.038c-0.001-11.238-9.144-20.38-20.379-20.38 c-11.238 0-20.38 9.142-20.38 20.379c0 9 5.9 16.7 14.1 19.373c-0.199 0.858-0.403 1.797-0.597 2.9 c-0.24 1.314-0.484 2.796-0.651 4.558c-0.015 0.494-0.027 0.998-0.041 1.511c0 0.11-0.012 0.167-0.002 0.323l0.047 0.5 c0.043 0.4 0.1 0.7 0.1 1.115c0.218 1.4 0.6 2.5 1 3.784c0.991 2.4 2.4 4.5 3.9 6.3 c1.527 1.8 3.2 3.4 4.8 4.967c3.243 3.1 6.6 5.9 9.1 8.969c1.273 1.5 2.4 3.1 3.2 4.7 c0.794 1.6 1.3 3.3 1.6 5.089c0.627 4.1 0.4 8.276-1.112 11.856c-1.452 3.59-4.063 6.711-7.688 8.8 c-3.592 2.131-8.062 3.264-12.704 3.364c-0.577 0.033-1.163 0.033-1.748 0.026l-0.274 0.021c-0.011-0.002-0.001-0.002-0.028-0.006 l-0.13-0.051l-0.26-0.02l-1.037-0.082c-0.402-0.023-0.576-0.062-0.782-0.095l-0.632-0.082c-0.457-0.073-1.003-0.213-1.503-0.309 c-2.039-0.484-4.034-1.298-5.87-2.349c-3.699-2.084-6.729-5.123-8.704-8.512c-1.957-3.41-2.836-7.17-2.789-10.789 c0.012-1.055 0.115-2.088 0.259-3.107l9.679 3.632c0 0-4.615-8.402 2.588-27.367c-4.747 2.61-5.827 3.735-8.473 6.1 c-0.082 0.072-0.164 0.146-0.246 0.224c-0.531 0.485-1.043 0.973-1.524 1.457c-0.177 0.166-0.337 0.321-0.519 0.5 c-0.492 0.533-1.008 1.091-1.543 1.671c-0.555 0.571-1.064 1.229-1.604 1.905c-0.54 0.679-1.078 1.399-1.579 2.2 c-0.396 0.584-0.786 1.2-1.159 1.848c-1.706 2.808-2.38 4.711-2.38 4.711l0.055 0.025c-0.229 0.602-0.448 1.219-0.68 1.8 c-0.316 1.113-0.658 2.265-0.864 3.479c-0.95 4.819-0.62 10.5 1.6 16c2.168 5.4 6.1 10.5 11.3 14.3 c2.603 1.9 5.5 3.5 8.7 4.604c0.823 0.3 1.6 0.5 2.5 0.746l1.396 0.318c0.471 0.1 1 0.2 1.3 0.2 l1.026 0.168l0.257 0.043l0.129 0.021l0.395 0.043l0.602 0.058c0.807 0.1 1.6 0.2 2.4 0.2 c6.504 0.3 13.552-0.77 19.949-4.107c3.188-1.652 6.168-3.865 8.711-6.537c2.527-2.68 4.599-5.826 6.026-9.174 c1.477-3.34 2.278-6.877 2.582-10.322C124.953 89.8 125 88 124.9 86.4 M81.342 19.9 c0-6.402 5.189-11.593 11.594-11.593c6.401 0 11.6 5.2 11.6 11.593c0 6.402-5.189 11.593-11.592 11.6 C86.531 31.5 81.3 26.3 81.3 19.9"/>

// SVG path for partial hook outline.

<path fill="#fff" d="M72.493 78.725c-0.071 3.5 0.4 5.9 0.8 7.361l0.633 0.2 C73.927 86.3 72.6 83.9 72.5 78.7"/>

// SVG path for partial hook outline. 

<path fill="#fff" d="M66.78 98.055c1.975 3.4 5 6.4 8.7 8.512c1.836 1.1 3.8 1.9 5.9 2.3 c0.501 0.1 1 0.2 1.5 0.31l0.632 0.082c0.206 0 0.4 0.1 0.8 0.094l1.038 0.082l0.259 0.02l0.13 0.1 c0.027 0 0 0 0 0.006l0.275-0.022c0.584 0 1.2 0 1.747-0.027c4.641-0.1 9.112-1.231 12.704-3.362 c3.624-2.101 6.235-5.22 7.688-8.812c1.073-2.601 1.498-5.526 1.414-8.498c-0.074 2.463-0.519 4.863-1.414 7 c-1.452 3.59-4.063 6.711-7.688 8.81c-3.592 2.131-8.063 3.264-12.704 3.364c-0.578 0.033-1.163 0.033-1.747 0.026l-0.275 0 c-0.012-0.002-0.001-0.004-0.028-0.006l-0.13-0.051l-0.259-0.02l-1.038-0.082c-0.402-0.023-0.576-0.062-0.782-0.095l-0.632-0.082 c-0.457-0.073-1.002-0.215-1.503-0.309c-2.039-0.484-4.034-1.298-5.87-2.347c-3.699-2.084-6.729-5.125-8.704-8.514 c-1.767-3.076-2.646-6.438-2.769-9.723c-0.006 0.133-0.02 0.264-0.021 0.398C63.944 90.9 64.8 94.6 66.8 98.1"/>

// SVG path for partial hook outline.


<path fill="#fff" d="M104.076 54.906c-3.252-2.429-5.597-4.544-6.536-6.03c-0.214-0.344-0.43-0.756-0.537-0.965 c-0.017-0.023-0.041-0.046-0.072-0.068l-0.053-0.036c-0.018-0.039-0.027-0.179-0.043-0.263l-0.081-0.574l-0.039-0.283l-0.005-0.035 c0.019 0.6 0 0.2 0 0.293l-0.004-0.06l-0.007-0.118c-0.115-1.191-0.162-2.409-0.174-3.536 c-0.003 0.436-0.005 0.877-0.003 1.349c0.009 1.2 0.1 2.4 0.2 3.651l0.007 0.119l0.004 0.1 c-0.003-0.135 0 0.34-0.007-0.294l0.005 0.036l0.039 0.283l0.081 0.574c0.016 0.1 0 0.2 0 0.262l0.053 0 c0.031 0 0.1 0 0.1 0.069c0.107 0.2 0.3 0.6 0.5 0.965c0.939 1.5 3.3 3.6 6.5 6 c1.615 1.2 3.4 2.6 5.3 4.09c1.91 1.5 3.9 3.2 5.9 5.352c1.986 2.1 4 4.5 5.6 7.4 c1.618 2.9 2.9 6.2 3.4 9.666l0.063 0.323l0.067 0.463l0.069 0.496l0.138 0.994c0.087 0.8 0.2 1.8 0.2 2.6 c0.018 0.4 0 0.9 0 1.33c0.024-0.938 0.021-1.871-0.017-2.795c-0.058-0.865-0.143-1.848-0.229-2.648l-0.138-0.994 l-0.069-0.496l-0.067-0.463l-0.063-0.322c-0.598-3.448-1.828-6.776-3.446-9.668c-1.606-2.905-3.575-5.348-5.562-7.432 c-1.981-2.1-4.006-3.823-5.916-5.352C107.503 57.5 105.7 56.1 104.1 54.9"/><path fill="#FFFFFF" d="M85.394 46.689c-0.015 0.493-0.027 0.996-0.041 1.509c0 0.11-0.012 0.167-0.002 0.323l0.023 0.3 c0.006-0.219 0.013-0.443 0.02-0.658c0.167-1.762 0.411-3.244 0.651-4.558c0.193-1.081 0.396-2.02 0.597-2.878 c-0.104-0.033-0.199-0.076-0.302-0.111c-0.1 0.478-0.197 0.983-0.295 1.524C85.805 43.4 85.6 44.9 85.4 46.7"/>

// SVG path for partial hook outline.

<path fill="#FFFFFF" d="M56 86.365c0.206-1.213 0.547-2.367 0.864-3.479c0.23-0.629 0.449-1.245 0.68-1.85l-0.055-0.025 c0 0 0.675-1.899 2.38-4.711c0.373-0.646 0.763-1.264 1.159-1.846c0.501-0.795 1.039-1.521 1.58-2.195 c0.539-0.68 1.05-1.334 1.603-1.905c0.537-0.58 1.051-1.14 1.543-1.67c0.182-0.175 0.343-0.326 0.52-0.494 c0.481-0.486 0.992-0.972 1.523-1.457c0.083-0.076 0.165-0.15 0.247-0.226c2.521-2.237 3.626-3.366 7.825-5.727 c0.214-0.605 0.407-1.193 0.646-1.824c-4.745 2.61-5.825 3.737-8.471 6.088c-0.082 0.072-0.164 0.147-0.247 0.2 c-0.53 0.485-1.042 0.973-1.523 1.455c-0.177 0.168-0.338 0.321-0.52 0.495c-0.492 0.533-1.006 1.091-1.543 1.7 c-0.553 0.572-1.062 1.228-1.603 1.906c-0.541 0.679-1.079 1.399-1.58 2.194c-0.396 0.582-0.786 1.201-1.159 1.8 c-1.705 2.808-2.38 4.709-2.38 4.709l0.055 0.026c-0.229 0.603-0.448 1.22-0.68 1.849C56.547 82.5 56.2 83.7 56 84.9 c-0.378 1.918-0.543 3.981-0.479 6.113C55.554 89.4 55.7 87.8 56 86.4"/>


// SVG path for partial hook outline.

<path fill="#FFFFFF" d="M92.934 0.966c11.005 0 20 8.8 20.3 19.688c0.009-0.258 0.035-0.513 0.035-0.774 c0-11.237-9.144-20.378-20.38-20.378s-20.38 9.141-20.38 20.378c0 0.3 0 0.5 0 0.8 C72.939 9.8 81.9 1 92.9 1"/></g>

// SVG path for bottom fish, facing right  

<path fill="#000" d="M54.492 2.577c0 0-7.217 5.636-8.598 6.702C42.389 9.6 34.1 5 31.8 5.2 c0.445-1.712 1.416-5.204 0.55-5.726c-3.283-0.23-8.157 3.898-8.157 3.898s-6.479-0.89-11.836 0.8 C6.452 6.097-0.5 11.92-0.5 13.24c0 1.6 5.5 6.2 11.5 8.531c5.812 2.2 15.7 1.4 15.7 1.371l4.5 1.1 c0 0 1.6 0.9 0.722-2.9c3.67-0.305 12.757-4.951 14.042-3.961c1.285 1 8.6 6.6 8.6 6.627s-0.969-8.811-2.288-10.664 C53.832 10.5 54.5 2.6 54.5 2.577z M6.736 12.935c-0.757 0-1.371-0.613-1.371-1.371c0-0.757 0.614-1.371 1.371-1.371 s1.371 0.6 1.4 1.371C8.107 12.3 7.5 12.9 6.7 12.935z M13.184 14.547c-0.012 0.344-0.146 0.656-0.25 1 c-0.114 0.303-0.194 0.598-0.354 0.855c-0.155 0.259-0.312 0.492-0.458 0.704c-0.072 0.104-0.142 0.202-0.207 0.3 c-0.081 0.077-0.158 0.15-0.229 0.219c-0.147 0.133-0.277 0.25-0.385 0.346c-0.217 0.189-0.349 0.291-0.349 0.3 s0.065-0.152 0.192-0.412c0.065-0.127 0.146-0.28 0.237-0.457c0.107-0.172 0.196-0.377 0.262-0.598 c0.077-0.221 0.156-0.453 0.255-0.688c0.097-0.236 0.109-0.529 0.188-0.797c0.068-0.275 0.14-0.557 0.141-0.855 c0.022-0.294 0.046-0.593 0.069-0.892c-0.023-0.305-0.048-0.61-0.071-0.911c-0.007-0.334-0.073-0.597-0.143-0.858 c-0.078-0.262-0.087-0.533-0.185-0.777c-0.101-0.241-0.185-0.478-0.262-0.7c-0.07-0.228-0.153-0.427-0.256-0.589 c-0.089-0.174-0.167-0.326-0.23-0.45c-0.123-0.265-0.192-0.415-0.192-0.415s0.129 0.1 0.3 0.289c0.107 0.1 0.2 0.2 0.4 0.4 c0.074 0.1 0.2 0.1 0.2 0.229c0.064 0.1 0.1 0.2 0.2 0.297c0.143 0.2 0.3 0.4 0.4 0.7 c0.153 0.2 0.2 0.6 0.4 0.877c0.107 0.3 0.2 0.7 0.2 0.957c0.037 0.3 0.1 0.7 0.1 1 C13.26 13.9 13.2 14.2 13.2 14.547z M16.184 14.547c-0.012 0.344-0.146 0.656-0.25 1 c-0.114 0.303-0.194 0.598-0.354 0.855c-0.155 0.259-0.312 0.492-0.458 0.704c-0.072 0.104-0.142 0.202-0.207 0.3 c-0.081 0.077-0.158 0.15-0.229 0.219c-0.147 0.133-0.277 0.25-0.385 0.346c-0.217 0.189-0.349 0.291-0.349 0.3 s0.065-0.152 0.192-0.412c0.065-0.127 0.146-0.28 0.237-0.457c0.107-0.172 0.196-0.377 0.262-0.598 c0.077-0.221 0.156-0.453 0.255-0.688c0.097-0.236 0.109-0.529 0.188-0.797c0.068-0.275 0.14-0.557 0.141-0.855 c0.022-0.294 0.046-0.593 0.069-0.892c-0.023-0.305-0.048-0.61-0.071-0.911c-0.007-0.334-0.073-0.597-0.143-0.858 c-0.078-0.262-0.087-0.533-0.185-0.777c-0.101-0.241-0.185-0.478-0.262-0.7c-0.07-0.228-0.153-0.427-0.256-0.589 c-0.089-0.174-0.167-0.326-0.23-0.45c-0.123-0.265-0.192-0.415-0.192-0.415s0.129 0.1 0.3 0.289c0.107 0.1 0.2 0.2 0.4 0.4 c0.074 0.1 0.2 0.1 0.2 0.229c0.064 0.1 0.1 0.2 0.2 0.297c0.143 0.2 0.3 0.4 0.4 0.7 c0.153 0.2 0.2 0.6 0.4 0.877c0.107 0.3 0.2 0.7 0.2 0.957c0.037 0.3 0.1 0.7 0.1 1 C16.26 13.9 16.2 14.2 16.2 14.547z M28.523 20.111c-0.457 0.076-0.874 0.1-1.312 0.1 c-0.433 0.011-0.868-0.007-1.301-0.065c-0.865-0.104-1.73-0.341-2.519-0.77c-0.781-0.426-1.476-1.061-1.898-1.838 c-0.435-0.77-0.612-1.639-0.611-2.471c0.138 0.4 0.3 0.8 0.4 1.15c0.171 0.4 0.4 0.7 0.6 1 c0.489 0.6 1.1 1.1 1.8 1.375c0.701 0.3 1.5 0.5 2.2 0.569c0.39 0 1.2 0.1 1.2 0.1 s0.153 0 0.516-0.012c0 0-0.463-1.548-0.8-2.628c-0.164-0.542-0.336-1.081-0.479-1.631c-0.149-0.549-0.31-1.092-0.434-1.649 c0.282 0.5 0.5 1 0.8 1.513c0.264 0.5 0.5 1 0.7 1.53c0.475 1 0.9 2.1 1.4 3.108l0.226 0.5 L28.523 20.111z"/><g><g>

// SVG path for rope's main color. 

<path fill="#8C6239" d="M126.504 5.367c0-3.24 2.62-5.86 5.851-5.86h0.29c1.859 0 3.5 0.9 4.6 2.2 c0.79 1 1.3 2.3 1.3 3.63v88.281c0 3.238-2.62 5.859-5.85 5.859h-0.29c-1.69 0-3.21-0.721-4.28-1.871 c-0.97-1.039-1.57-2.439-1.57-3.988V5.367z"/></g>

// SVG paths for rope's stripes.

<path fill="#754C24" d="M138.499 5.364c0-1.373-0.476-2.634-1.268-3.632L126.5 12.463v6.212l11.999-12V5.364z"/><polygon fill="#754C24" points="138.5,16.6 126.5,28.6 126.5,34.8 138.5,22.8"/><polygon fill="#754C24" points="126.5,50.9 138.5,38.9 138.5,32.7 126.5,44.7"/><polygon fill="#754C24" points="126.5,67 138.5,55 138.5,48.8 126.5,60.8"/><polygon fill="#754C24" points="126.5,83.1 138.5,71.1 138.5,64.9 126.5,76.9"/><path fill="#754C24" d="M126.5 93.649c0 1.5 0.6 2.9 1.6 3.988l10.423-10.422v-6.211L126.5 93.003V93.649z"/></g></svg>