<?xml version="1.0" encoding="utf-8"?>
<!-- Generator: Adobe Illustrator 15.1.0, SVG Export Plug-In . SVG Version: 6.00 Build 0)  -->
<!DOCTYPE svg PUBLIC "-//W3C//DTD SVG 1.1//EN" "https://www.w3.org/Graphics/SVG/1.1/DTD/svg11.dtd">
<svg version="1.1" id="Capa_1" xmlns="https://www.w3.org/2000/svg" xmlns:xlink="https://www.w3.org/1999/xlink" x="0px" y="0px"
	 width="176.614px" height="187.264px" viewBox="0 0 176.614 187.264" enable-background="new 0 0 176.614 187.264"
	 xml:space="preserve">
<path opacity="0.5" fill="#ff7bac" d="M59.872,45.866c0,1.277-1.035,2.311-2.312,2.311s-2.312-1.034-2.312-2.311
	c0-1.276,1.035-2.311,2.312-2.311S59.872,44.59,59.872,45.866"/>
<path opacity="0.5" fill="#ff7bac" d="M54.029,33.9c0,2.628-2.132,4.759-4.76,4.759s-4.759-2.131-4.759-4.759
	s2.131-4.759,4.759-4.759S54.029,31.272,54.029,33.9"/>
<path opacity="0.5" fill="#ff7bac" d="M75.506,18.871c0,5.785-4.69,10.474-10.474,10.474c-5.785,0-10.476-4.689-10.476-10.474
	s4.69-10.474,10.476-10.474C70.815,8.396,75.506,13.085,75.506,18.871"/>
<path opacity="0.25" fill="#ff7bac" d="M46.364,97.497c0,1.655-1.342,2.997-2.997,2.997s-2.997-1.342-2.997-2.997
	s1.342-2.997,2.997-2.997S46.364,95.842,46.364,97.497"/>
<path opacity="0.25" fill="#ff7bac" d="M143.229,156.772c0,3.085-2.501,5.586-5.586,5.586c-3.086,0-5.587-2.501-5.587-5.586
	s2.501-5.586,5.587-5.586C140.729,151.187,143.229,153.688,143.229,156.772"/>
<path opacity="0.25" fill="#ff7bac" d="M124.864,6.497c0,3.588-2.909,6.497-6.497,6.497s-6.497-2.909-6.497-6.497
	S114.779,0,118.367,0S124.864,2.909,124.864,6.497"/>
<path opacity="0.25" fill="#ff7bac" d="M171.614,131.497c0,1.793-1.454,3.247-3.247,3.247s-3.247-1.454-3.247-3.247
	s1.454-3.247,3.247-3.247S171.614,129.704,171.614,131.497"/>
<path opacity="0.25" fill="#ff7bac" d="M176.614,72.497c0,1.793-1.454,3.247-3.247,3.247s-3.247-1.454-3.247-3.247
	s1.454-3.247,3.247-3.247S176.614,70.704,176.614,72.497"/>
<path opacity="0.25" fill="#ff7bac" d="M25.614,20.497c0,1.793-1.454,3.247-3.247,3.247s-3.247-1.454-3.247-3.247
	s1.454-3.247,3.247-3.247S25.614,18.704,25.614,20.497"/>
<path opacity="0.25" fill="#ff7bac" d="M45.948,167.164c0,2.713-2.2,4.914-4.914,4.914s-4.913-2.201-4.913-4.914
	c0-2.715,2.199-4.914,4.913-4.914S45.948,164.449,45.948,167.164"/>
<path opacity="0.25" fill="#ff7bac" d="M119.134,184.164c0,1.711-1.388,3.1-3.1,3.1s-3.1-1.389-3.1-3.1
	c0-1.713,1.388-3.101,3.1-3.101S119.134,182.451,119.134,184.164"/>
<path opacity="0.25" fill="#ff7bac" d="M82.17,181.164c0,2.836-2.3,5.135-5.136,5.135s-5.136-2.299-5.136-5.135
	s2.3-5.136,5.136-5.136S82.17,178.328,82.17,181.164"/>
<path opacity="0.25" fill="#ff7bac" d="M78.909,96.497c0,3.612-2.93,6.541-6.541,6.541c-3.613,0-6.542-2.929-6.542-6.541
	c0-3.613,2.929-6.541,6.542-6.541C75.979,89.956,78.909,92.884,78.909,96.497"/>
<path opacity="0.5" fill="#ff7bac" d="M144.886,62.408c0,5.631-4.564,10.197-10.197,10.197c-5.631,0-10.195-4.566-10.195-10.197
	c0-5.632,4.564-10.197,10.195-10.197C140.321,52.211,144.886,56.776,144.886,62.408"/>
<path opacity="0.5" fill="#ff7bac" d="M15.317,104.554c0,4.23-3.43,7.659-7.659,7.659c-4.23,0-7.658-3.429-7.658-7.659
	c0-4.229,3.428-7.659,7.658-7.659C11.888,96.895,15.317,100.324,15.317,104.554"/>
<path opacity="0.5" fill="#ff7bac" d="M152.247,46.106c0,2.344-1.9,4.244-4.244,4.244s-4.244-1.9-4.244-4.244
	c0-2.344,1.9-4.244,4.244-4.244S152.247,43.762,152.247,46.106"/>
</svg>
