<svg id="Capa_1" enable-background="new 0 0 511.985 511.985" height="512" viewBox="0 0 511.985 511.985" width="512" xmlns="http://www.w3.org/2000/svg"><g><g><path d="m389.615 7.5h-17.656l-45.006 7.5-21.26-7.5h-28.7c-2.77 0-5.356 1.384-6.892 3.689l-14.107 21.161v91.117l82.833-16.567 57.681-86.522c3.669-5.505-.277-12.878-6.893-12.878z" fill="#fa5e97"/><path d="m389.615 7.5h-17.656l-2.676.446c4.917 1.654 7.365 7.72 4.224 12.432l-57.681 86.522-59.833 11.967v4.6l82.833-16.567 57.681-86.522c3.67-5.505-.276-12.878-6.892-12.878z" fill="#d94f88"/><path d="m305.693 7.5h66.266l-66.266 99.4v2.027l-33.134 6.626v-58.353z" fill="#f2f2fc"/><path d="m305.693 106.9-63.808-95.711c-1.536-2.304-4.123-3.689-6.892-3.689h-112.623c-6.616 0-10.562 7.373-6.892 12.878l57.681 86.522 82.834 16.567z" fill="#fa5e97"/><path d="m206.293 7.5h-66.267l66.267 99.4v6.627l49.7 9.94 16.566-5.522v-11.045z" fill="#f2f2fc"/><path d="m206.293 7.5h-23l66.266 99.4v11.045l-7.941 2.647 14.375 2.875 16.566-5.522v-11.045z" fill="#dfdef5"/><path d="m241.885 11.189c-1.536-2.304-4.123-3.689-6.892-3.689h-23c2.77 0 5.356 1.384 6.892 3.689l63.808 95.712-41.075 13.692 14.375 2.875 49.7-16.567z" fill="#d94f88"/><path d="m371.959 7.5h-5.344c1.696 0 3.213.49 4.475 1.304z" fill="#dfdef5"/><path d="m222.859 131h66.267v66.439h-66.267z" fill="#ff9100"/><path d="m266.126 131h23v66.439h-23z" fill="#ff5d00"/><path d="m413.184 356.936 1.669-1.669c9.076-9.076 9.076-23.791 0-32.867l-1.669-1.669c-6.647-6.647-8.635-16.643-5.038-25.328l.903-2.18c4.912-11.858-.719-25.454-12.578-30.366l-2.18-.903c-8.685-3.597-14.347-12.072-14.347-21.472v-2.36c0-12.836-10.405-23.241-23.241-23.241h-2.36c-9.4 0-17.875-5.662-21.472-14.347l-.903-2.18c-4.912-11.858-18.507-17.49-30.366-12.578l-2.18.903c-8.685 3.597-18.681 1.609-25.328-5.038l-1.669-1.669c-9.076-9.076-23.791-9.076-32.867 0l-1.669 1.669c-6.647 6.647-16.643 8.635-25.327 5.038l-2.18-.903c-11.859-4.912-25.454.719-30.366 12.578l-.903 2.18c-3.597 8.684-12.072 14.347-21.472 14.347h-2.36c-12.835 0-23.241 10.405-23.241 23.241v2.36c0 9.4-5.662 17.875-14.347 21.472l-2.18.903c-11.859 4.912-17.49 18.507-12.578 30.366l.903 2.18c3.597 8.685 1.609 18.681-5.038 25.328l-1.669 1.669c-9.076 9.076-9.076 23.791 0 32.867l1.669 1.669c6.647 6.647 8.635 16.643 5.038 25.328l-.903 2.18c-4.912 11.858.719 25.454 12.578 30.366l2.18.903c8.684 3.597 14.347 12.072 14.347 21.472v2.36c0 12.836 10.405 23.241 23.241 23.241h2.36c9.4 0 17.875 5.662 21.472 14.347l.903 2.18c4.912 11.858 18.507 17.49 30.366 12.578l2.18-.903c8.684-3.597 18.681-1.609 25.328 5.038l1.669 1.669c9.076 9.076 23.791 9.076 32.867 0l1.669-1.669c6.647-6.647 16.643-8.635 25.328-5.038l2.18.903c11.858 4.912 25.454-.719 30.366-12.578l.903-2.18c3.597-8.684 12.072-14.347 21.472-14.347h2.36c12.836 0 23.241-10.405 23.241-23.241v-2.36c0-9.4 5.662-17.874 14.347-21.472l2.18-.903c11.858-4.912 17.49-18.507 12.578-30.365l-.903-2.18c-3.598-8.686-1.61-18.682 5.037-25.329z" fill="#fdbf00"/><path d="m414.852 322.4-1.669-1.669c-6.647-6.647-8.635-16.643-5.038-25.328l.903-2.18c4.912-11.858-.719-25.454-12.578-30.366l-2.18-.903c-8.685-3.597-14.347-12.072-14.347-21.472v-2.36c0-12.835-10.405-23.241-23.241-23.241h-2.36c-9.4 0-17.874-5.662-21.472-14.347l-.903-2.18c-4.912-11.858-18.507-17.49-30.366-12.578l-2.18.903c-.219.091-.442.162-.662.246 4.441 2.458 8.115 6.375 10.208 11.429l.903 2.18c3.597 8.684 12.072 14.347 21.472 14.347h2.36c12.836 0 23.241 10.405 23.241 23.241v2.36c0 9.4 5.662 17.875 14.347 21.472l2.18.903c11.859 4.912 17.49 18.507 12.578 30.366l-.903 2.18c-3.597 8.684-1.609 18.681 5.038 25.328l1.669 1.669c9.076 9.076 9.076 23.791 0 32.867l-1.669 1.669c-6.647 6.647-8.635 16.643-5.038 25.328l.903 2.18c4.912 11.858-.719 25.454-12.578 30.365l-2.18.903c-8.685 3.597-14.347 12.072-14.347 21.472v2.36c0 12.836-10.405 23.241-23.241 23.241h-2.36c-9.4 0-17.875 5.662-21.472 14.347l-.903 2.18c-2.093 5.054-5.767 8.971-10.208 11.429.22.084.444.155.663.246l2.18.903c11.858 4.912 25.454-.719 30.366-12.578l.903-2.18c3.597-8.685 12.072-14.347 21.472-14.347h2.36c12.836 0 23.241-10.405 23.241-23.241v-2.36c0-9.4 5.662-17.874 14.347-21.472l2.18-.903c11.858-4.912 17.49-18.507 12.578-30.365l-.903-2.18c-3.597-8.684-1.609-18.681 5.038-25.328l1.669-1.669c9.075-9.076 9.075-23.791-.001-32.867z" fill="#ff9100"/><ellipse cx="255.993" cy="338.833" fill="#ffd396" rx="124.25" ry="124.25" transform="matrix(.707 -.707 .707 .707 -164.613 280.256)"/><path d="m322.826 140.033h-133.667c-8.837 0-16-7.163-16-16v-17.133h165.667v17.133c0 8.837-7.163 16-16 16z" fill="#fdbf00"/><g><ellipse cx="255.993" cy="338.833" fill="#efeff9" rx="91.117" ry="91.117" transform="matrix(.707 -.707 .707 .707 -164.613 280.256)"/><path d="m255.993 247.717c-3.896 0-7.733.246-11.5.72 44.893 5.654 79.617 43.97 79.617 90.396 0 46.427-34.724 84.743-79.617 90.397 3.767.474 7.604.72 11.5.72 50.322 0 91.117-40.794 91.117-91.117-.001-50.322-40.795-91.116-91.117-91.116z" fill="#dfdef5"/></g><path d="m315.826 106.9v17.133c0 8.837-7.163 16-16 16h23c8.837 0 16-7.163 16-16v-17.133z" fill="#ff9100"/></g><g><path d="m255.993 207.084c-29.773 0-57.865 9.69-81.241 28.022-3.259 2.556-3.829 7.271-1.273 10.53 2.555 3.26 7.271 3.829 10.53 1.273 20.709-16.241 45.601-24.826 71.984-24.826 64.376 0 116.75 52.374 116.75 116.75s-52.374 116.75-116.75 116.75-116.75-52.374-116.75-116.75c0-26.384 8.584-51.275 24.826-71.984 2.556-3.259 1.986-7.974-1.273-10.53-3.26-2.557-7.974-1.987-10.53 1.273-18.332 23.376-28.022 51.469-28.022 81.241 0 72.647 59.103 131.75 131.75 131.75 72.648 0 131.75-59.103 131.75-131.75s-59.104-131.749-131.751-131.749z"/><path d="m420.155 317.095-1.668-1.668c-4.517-4.518-5.857-11.251-3.411-17.156l.901-2.178c3.143-7.586 3.143-15.941.001-23.528-3.143-7.586-9.051-13.495-16.638-16.638l-2.18-.902c-5.902-2.445-9.717-8.153-9.717-14.542v-2.36c0-16.951-13.79-30.741-30.741-30.741h-2.359c-6.39 0-12.098-3.814-14.543-9.718l-.903-2.18c-3.142-7.587-9.051-13.495-16.637-16.637-7.586-3.143-15.941-3.142-23.527 0l-2.107.873v-32.188h26.2c12.958 0 23.5-10.542 23.5-23.5v-14.862l56.422-84.632c3.235-4.852 3.535-11.061.783-16.202-2.751-5.142-8.084-8.336-13.916-8.336h-112.622c-5.289 0-10.199 2.627-13.133 7.028l-7.867 11.801-7.868-11.802c-2.934-4.4-7.844-7.027-13.132-7.027h-112.623c-5.832 0-11.164 3.194-13.916 8.336-2.751 5.142-2.451 11.35.784 16.202l25.592 38.389c2.297 3.446 6.954 4.378 10.4 2.08 3.447-2.297 4.378-6.954 2.08-10.4l-25.592-38.389c-.085-.127-.26-.39-.039-.803.222-.415.539-.415.691-.415h13.642l56.267 84.4h-15.106l-9.672-14.508c-2.297-3.446-6.955-4.378-10.4-2.08-3.447 2.297-4.378 6.954-2.08 10.4l10.639 15.958v14.863c0 12.958 10.542 23.5 23.5 23.5h26.2v32.188l-2.107-.873c-7.586-3.142-15.942-3.142-23.528 0s-13.495 9.051-16.636 16.636l-.904 2.181c-2.445 5.903-8.153 9.717-14.543 9.717h-2.36c-16.951 0-30.741 13.79-30.741 30.741v2.36c0 6.389-3.814 12.098-9.717 14.542l-2.18.903c-15.66 6.487-23.124 24.504-16.637 40.165l.903 2.18c2.445 5.903 1.105 12.636-3.412 17.153l-1.669 1.669c-11.985 11.986-11.985 31.488.001 43.475l1.668 1.668c4.518 4.518 5.857 11.251 3.413 17.153l-.904 2.181c-6.486 15.661.977 33.678 16.638 40.165l2.18.903c5.903 2.445 9.717 8.153 9.717 14.543v2.36c0 16.951 13.79 30.741 30.741 30.741h2.36c6.389 0 12.098 3.814 14.543 9.718l.903 2.179c3.142 7.586 9.05 13.495 16.637 16.637 7.586 3.142 15.941 3.142 23.527 0l2.181-.903c5.902-2.446 12.636-1.106 17.155 3.413l1.669 1.668c5.994 5.994 13.864 8.99 21.737 8.989 7.871 0 15.744-2.997 21.736-8.988l1.67-1.669c4.518-4.517 11.251-5.857 17.154-3.412l2.18.902c7.586 3.142 15.943 3.142 23.527 0 7.586-3.142 13.495-9.051 16.637-16.636l.904-2.182c2.444-5.903 8.152-9.717 14.542-9.717h2.359c16.951 0 30.741-13.79 30.741-30.741v-2.36c0-6.389 3.814-12.098 9.716-14.542l2.182-.903c7.586-3.143 13.494-9.051 16.637-16.637 3.142-7.586 3.142-15.942 0-23.526l-.903-2.183c-2.445-5.902-1.105-12.636 3.412-17.154l1.669-1.669c11.983-11.983 11.983-31.486-.003-43.473zm-29.849-301.681c.221.413.045.677-.039.804l-55.455 83.182h-15.105l56.266-84.4h13.642c.152 0 .47 0 .691.414zm-32.36-.414-52.253 78.379-24.12-36.18 28.134-42.199zm-81.606.349c.146-.218.39-.349.652-.349h14.686l-19.12 28.679-7.553-11.329zm-40.695 0 56.034 84.051h-15.106l-56.267-84.4h14.687c.262 0 .507.131.652.349zm-81.605-.349h48.239l56.267 84.4h-48.239zm26.619 109.033v-9.633h150.667v9.633c0 4.687-3.814 8.5-8.5 8.5h-133.667c-4.687 0-8.5-3.813-8.5-8.5zm100.967 23.5v30.648c-.785-.541-1.534-1.149-2.227-1.841l-1.67-1.669c-11.984-11.985-31.488-11.985-43.473 0l-1.669 1.669c-.692.692-1.442 1.3-2.228 1.841v-30.648zm127.923 202.43-1.669 1.668s0 .001-.001.001c-8.822 8.824-11.438 21.974-6.663 33.499l.903 2.182c3.321 8.019-.5 17.245-8.518 20.566l-2.182.903c-11.527 4.775-18.977 15.923-18.977 28.401v2.36c0 8.68-7.062 15.741-15.741 15.741h-2.359c-12.479 0-23.627 7.449-28.4 18.976l-.903 2.181c-1.609 3.884-4.635 6.91-8.52 8.519-3.883 1.609-8.163 1.609-12.048 0l-2.18-.902c-11.526-4.775-24.678-2.16-33.5 6.663l-1.67 1.669c-2.973 2.973-6.926 4.61-11.13 4.61-4.205 0-8.157-1.637-11.131-4.611l-1.668-1.667c-5.895-5.896-13.721-9.02-21.706-9.02-3.964 0-7.97.771-11.795 2.355l-2.181.903c-3.884 1.609-8.163 1.609-12.047 0s-6.91-4.634-8.519-8.52l-.903-2.179c-4.775-11.528-15.923-18.977-28.401-18.977h-2.36c-8.68 0-15.741-7.061-15.741-15.741v-2.36c0-12.478-7.449-23.626-18.977-28.401l-2.18-.903c-8.019-3.321-11.84-12.547-8.52-20.566l.904-2.181c4.775-11.528 2.159-24.678-6.665-33.502l-1.668-1.667c-6.137-6.137-6.137-16.124 0-22.26l1.669-1.669c8.823-8.823 11.439-21.973 6.664-33.501l-.903-2.18c-3.321-8.019.5-17.245 8.519-20.566l2.18-.903c11.528-4.775 18.977-15.923 18.977-28.401v-2.36c0-8.68 7.061-15.741 15.741-15.741h2.36c12.478 0 23.626-7.449 28.4-18.977l.904-2.181c1.609-3.884 4.634-6.91 8.519-8.519 3.886-1.609 8.163-1.609 12.047 0l2.181.903c11.529 4.775 24.677 2.159 33.5-6.664l1.669-1.669c6.137-6.137 16.126-6.136 22.26 0l1.669 1.669c8.823 8.822 21.973 11.439 33.501 6.664l2.181-.903c3.885-1.609 8.164-1.609 12.047 0 3.885 1.609 6.91 4.634 8.52 8.519l.902 2.179c4.774 11.528 15.923 18.978 28.401 18.978h2.359c8.68 0 15.741 7.061 15.741 15.741v2.36c0 12.478 7.449 23.626 18.978 28.401l2.18.902c8.019 3.321 11.84 12.547 8.518 20.568l-.901 2.178c-4.775 11.528-2.16 24.678 6.663 33.503l1.668 1.667c2.974 2.973 4.611 6.926 4.611 11.131.002 4.206-1.636 8.159-4.609 11.131z"/><path d="m248.493 353.911v10.556h-9.067c-4.142 0-7.5 3.358-7.5 7.5s3.358 7.5 7.5 7.5h9.067v17.35c0 4.142 3.358 7.5 7.5 7.5 4.143 0 7.5-3.358 7.5-7.5v-17.35h9.066c4.143 0 7.5-3.358 7.5-7.5s-3.357-7.5-7.5-7.5h-9.066v-10.556c18.833-3.53 33.133-20.086 33.133-39.928 0-22.405-18.228-40.633-40.633-40.633s-40.633 18.228-40.633 40.633c-.001 19.843 14.3 36.398 33.133 39.928zm7.5-65.561c14.134 0 25.633 11.499 25.633 25.633s-11.499 25.633-25.633 25.633-25.633-11.499-25.633-25.633c-.001-14.134 11.498-25.633 25.633-25.633z"/><path d="m255.993 437.45c54.378 0 98.617-44.239 98.617-98.617s-44.239-98.617-98.617-98.617c-54.377 0-98.617 44.239-98.617 98.617s44.239 98.617 98.617 98.617zm0-182.233c46.106 0 83.617 37.51 83.617 83.617s-37.511 83.617-83.617 83.617-83.617-37.51-83.617-83.617 37.51-83.617 83.617-83.617z"/></g></g></svg>