<svg id="_x33_0" enable-background="new 0 0 64 64" height="512" viewBox="0 0 64 64" width="512" xmlns="http://www.w3.org/2000/svg"><g><g><g><path d="m23.83 27.44-.29-.05c-.76-.11-1.41-.51-1.86-1.07-.43-.51-.68-1.18-.68-1.89v-2.03c2.36-1.07 4-3.44 4-6.19v-4.21l-1.46-.29c-1.14-.23-2.2-.68-3.14-1.31s-1.76-1.44-2.4-2.4c-1.28 1.92-3.27 3.25-5.54 3.71l-1.46.29v4c0 2.78 1.63 5.19 4 6.32v2.11c0 .71-.25 1.38-.68 1.89-.45.56-1.1.96-1.86 1.07l-.29.05-.84.13c-1.59.24-3.06.82-4.33 1.65v-16.22c0-6.08 4.92-11 11-11 3.04 0 5.79 1.23 7.78 3.22s3.22 4.74 3.22 7.78v16.22c-1.27-.83-2.74-1.41-4.33-1.65z" fill="#fcd770"/></g><g><path d="m27.28 55.87 2.72 6.13h-24l2.72-6.13c.27-.61.5-1.23.68-1.87h.01 17.18.01c.18.64.41 1.26.68 1.87z" fill="#d3a06c"/></g><g><path d="m27.79 42c-.14.69-.34 1.36-.6 2.02l-.13.33c-.7 1.75-1.06 3.62-1.06 5.5 0 1.41.2 2.81.6 4.15h-.01-17.18-.01c.4-1.34.6-2.74.6-4.15 0-1.88-.36-3.75-1.06-5.5l-.13-.33c-.26-.66-.46-1.33-.6-2.02h-6.21v-3.56c0-3.82 1.96-7.25 5-9.22 1.27-.83 2.74-1.41 4.33-1.65l.84-.13 1.83 4.56 4-2 4 2 1.83-4.56.84.13c1.59.24 3.06.82 4.33 1.65 1.54 1 2.8 2.37 3.67 3.98.85 1.56 1.33 3.35 1.33 5.24v3.56z" fill="#e6e9ed"/></g><g><path d="m18 30-4 2-1.83-4.56.29-.05c.76-.11 1.41-.51 1.86-1.07z" fill="#ccd1d9"/></g><g><path d="m23.83 27.44-1.83 4.56-4-2 3.68-3.68c.45.56 1.1.96 1.86 1.07z" fill="#ccd1d9"/></g><g><path d="m57.9 61.69.1.31h-22l.1-.31c.84-2.5 1.4-5.08 1.68-7.69h18.44c.28 2.61.84 5.19 1.68 7.69z" fill="#aab2bd"/></g><g><path d="m56.22 54h-18.44c.15-1.33.22-2.66.22-4h18c0 1.34.07 2.67.22 4z" fill="#ff826e"/></g><g><path d="m54.96 27.85c-.16-.04-.32-.07-.48-.1l-1.14-.19c-.17-.03-.35-.07-.51-.12l-1.83 4.56-4-2-4 2-1.83-4.56c-.16.05-.34.09-.51.12l-1.14.19c-.16.03-.32.06-.48.1-2.93.64-5.27 2.68-6.36 5.35h-.01c.85 1.56 1.33 3.35 1.33 5.24v3.56 2.17.01c.31-.12.65-.18 1-.18h3 9 9v-4h6v-3.38c0-4.24-2.95-7.87-7.04-8.77z" fill="#ff826e"/></g><g><path d="m52.83 27.44-1.83 4.56-4-2 3.88-3.88c.49.61 1.16 1.08 1.95 1.32z" fill="#fc6e51"/></g><g><path d="m47 30-4 2-1.83-4.56c.79-.24 1.46-.71 1.95-1.32z" fill="#fc6e51"/></g><g><path d="m55.93 27.68-.97.16v.01c-.16-.04-.32-.07-.48-.1l-1.14-.19c-.17-.03-.35-.07-.51-.12-.79-.24-1.46-.71-1.95-1.32-.56-.69-.88-1.57-.88-2.51v-1.21c2.36-1.07 4-3.44 4-6.19v-4.21l-1.46-.29c-1.14-.23-2.2-.68-3.14-1.31s-1.76-1.44-2.4-2.4c-1.28 1.92-3.27 3.25-5.54 3.71l-1.46.29v4c0 2.78 1.63 5.19 4 6.32v1.29c0 .94-.32 1.82-.88 2.51-.49.61-1.16 1.08-1.95 1.32-.16.05-.34.09-.51.12l-1.14.19c-.16.03-.32.06-.48.1v-.01l-.97-.16c-2.47-.41-4.46-2.25-5.07-4.68.96-.96 1.71-2.09 2.22-3.32.51-1.24.78-2.56.78-3.92v-2.76c0-6.08 4.92-11 11-11 3.04 0 5.79 1.23 7.78 3.22s3.22 4.74 3.22 7.78v2.76c0 2.71 1.08 5.32 3 7.24-.3 1.22-.96 2.28-1.84 3.1-.88.81-2 1.38-3.23 1.58z" fill="#656d78"/></g><g><path d="m21.68 26.32-3.68 3.68-3.68-3.68c.43-.51.68-1.18.68-1.89v-2.11c.92.44 1.94.68 3.03.68h.18c.99 0 1.94-.21 2.79-.6v2.03c0 .71.25 1.38.68 1.89z" fill="#f0d0b4"/></g><g><path d="m25 12v4.21c0 2.75-1.64 5.12-4 6.19-.85.39-1.8.6-2.79.6h-.18c-1.09 0-2.11-.24-3.03-.68-2.37-1.13-4-3.54-4-6.32 0-2.17 0-4 0-4l1.46-.29c2.27-.46 4.26-1.79 5.54-3.71.64.96 1.46 1.77 2.4 2.4s2 1.08 3.14 1.31z" fill="#f0d0b4"/></g><g><path d="m10 49.85c0 1.41-.2 2.81-.6 4.15-.18.64-.41 1.26-.68 1.87l-2.72 6.13h-4v-20h6.21c.14.69.34 1.36.6 2.02l.13.33c.7 1.75 1.06 3.62 1.06 5.5z" fill="#f0d0b4"/></g><g><path d="m27.79 42h6.21v2.17.01c-.43.14-.81.39-1.12.7-.54.54-.88 1.29-.88 2.12 0 1.31.83 2.42 2 2.82v.01 12.17h-4l-2.72-6.13c-.27-.61-.5-1.23-.68-1.87-.4-1.34-.6-2.74-.6-4.15 0-1.88.36-3.75 1.06-5.5l.13-.33c.26-.66.46-1.33.6-2.02z" fill="#f0d0b4"/></g><g><path d="m56 44v-4h6v5c0 2.76-2.24 5-5 5h-1-18-3c-.35 0-.69-.06-1-.18-1.17-.4-2-1.51-2-2.82 0-.83.34-1.58.88-2.12.31-.31.69-.56 1.12-.7.31-.12.65-.18 1-.18h3 9z" fill="#f0d0b4"/></g><g><path d="m50.88 26.12-3.88 3.88-3.88-3.88c.56-.69.88-1.57.88-2.51v-1.29c.92.44 1.94.68 3.03.68h.18c.99 0 1.94-.21 2.79-.6v1.21c0 .94.32 1.82.88 2.51z" fill="#f0d0b4"/></g><g><path d="m54 12v4.21c0 2.75-1.64 5.12-4 6.19-.85.39-1.8.6-2.79.6h-.18c-1.09 0-2.11-.24-3.03-.68-2.37-1.13-4-3.54-4-6.32 0-2.17 0-4 0-4l1.46-.29c2.27-.46 4.26-1.79 5.54-3.71.64.96 1.46 1.77 2.4 2.4s2 1.08 3.14 1.31z" fill="#f0d0b4"/></g></g><g><circle cx="44" cy="14" r="1"/><circle cx="50" cy="14" r="1"/><path d="m44.895 16.553-1.789.895.105.211c.722 1.444 2.174 2.341 3.789 2.341s3.067-.897 3.789-2.342l.105-.211-1.789-.895-.105.212c-.381.762-1.147 1.236-2 1.236s-1.619-.474-2-1.236z"/><path d="m58.101 28.021c1.9-.929 3.338-2.658 3.868-4.779l.138-.549-.4-.4c-1.746-1.746-2.707-4.066-2.707-6.535v-2.758c0-6.617-5.383-12-12-12s-12 5.383-12 12v2.758c0 2.469-.961 4.789-2.707 6.535l-.4.4.138.549c.53 2.122 1.969 3.851 3.87 4.779-1.33.785-2.452 1.88-3.297 3.2-.73-.973-1.606-1.83-2.603-2.542v-15.679c0-6.617-5.383-12-12-12s-12.001 5.383-12.001 12v15.68c-3.06 2.184-5 5.747-5 9.758v24.562h58.388l-.542-1.624c-1.119-3.358-1.728-6.845-1.826-10.377 3.299-.011 5.98-2.697 5.98-5.999v-8.376c0-3.636-1.931-6.851-4.899-8.603zm-19.87-1.33c-1.901-.316-3.463-1.637-4.106-3.425 1.858-2.065 2.875-4.708 2.875-7.508v-2.758c0-5.514 4.486-10 10-10s10 4.486 10 10v2.758c0 2.8 1.017 5.443 2.875 7.509-.644 1.788-2.205 3.108-4.106 3.425l-.813.135c-.104-.021-.205-.049-.311-.066l-1.138-.19c-1.452-.243-2.507-1.487-2.507-2.96v-.601c2.383-1.334 4-3.881 4-6.801v-5.028l-2.269-.454c-1.925-.386-3.591-1.47-4.731-3.054v-2.673h-2v2.673c-1.14 1.584-2.806 2.668-4.731 3.054l-2.269.454v4.817c0 2.947 1.612 5.52 4 6.909v.705c0 1.473-1.055 2.717-2.508 2.959l-1.136.19c-.101.017-.196.049-.296.069zm8.769-17.057c1.393 1.566 3.247 2.635 5.339 3.054l.661.131v3.39c0 3.193-2.598 5.791-5.79 5.791h-.176c-3.327 0-6.034-2.692-6.034-6.002v-3.179l.661-.132c2.092-.418 3.946-1.487 5.339-3.053zm.034 14.366h.176c.622 0 1.225-.081 1.805-.22.027.792.235 1.539.591 2.2l-2.606 2.606-2.606-2.606c.364-.676.577-1.44.596-2.253.654.172 1.337.273 2.044.273zm-3.926 3.522 2.204 2.204-1.787.893-1.062-2.656c.228-.129.441-.279.645-.441zm7.784 0c.204.162.417.312.646.441l-1.062 2.656-1.787-.893zm-11.206 1.211.872-.146 1.918 4.794 3.524-1.763v9.382h2v-9.382l3.524 1.763 1.918-4.794.873.146c3.873.646 6.685 3.964 6.685 7.891v2.376h-6v-1.764c0-1.308.31-2.618.895-3.789l-1.789-.895c-.724 1.449-1.106 3.068-1.106 4.684v1.764c0 1.103.897 2 2 2v2h-16v-6h-2v6h-2v-4.563c0-1.886-.43-3.673-1.201-5.265 1.127-2.354 3.288-4.006 5.887-4.439zm15.351 22.267c.018.668.036 1.336.089 2h-16.245c.052-.665.082-1.332.099-2zm-20.037 10v-10h1.98c-.094 3.401-.667 6.758-1.709 10zm-2-10.556v10.556h-2.35l-2.459-5.532c-.791-1.779-1.191-3.667-1.191-5.614 0-1.768.333-3.494.99-5.136l.132-.331c.182-.455.326-.919.451-1.388h4.427v.556c-1.19.694-2 1.97-2 3.444s.81 2.751 2 3.445zm-23.363 5.836c.187-.421.343-.85.491-1.28h15.744c.149.431.304.86.491 1.28l2.098 4.72h-20.922zm-1.637-43.28c0-5.514 4.486-10 10-10s10 4.486 10 10v14.52c-.988-.448-2.051-.77-3.175-.943l-1.129-.174c-.982-.151-1.696-.983-1.696-1.977v-1.416c2.383-1.334 4-3.881 4-6.801v-5.028l-2.269-.454c-1.925-.386-3.591-1.47-4.731-3.054v-2.673h-2v2.673c-1.14 1.584-2.806 2.668-4.731 3.054l-2.269.454v4.817c0 2.947 1.612 5.52 4 6.909v1.519c0 .994-.714 1.826-1.696 1.978l-1.129.174c-1.124.172-2.187.495-3.175.942zm10-3.366c1.393 1.566 3.247 2.635 5.339 3.054l.661.131v3.39c0 3.193-2.598 5.791-5.79 5.791h-.176c-3.327 0-6.034-2.692-6.034-6.002v-3.179l.661-.132c2.092-.418 3.946-1.487 5.339-3.053zm.034 14.366h.176c.617 0 1.214-.08 1.79-.216v.642c0 .628.156 1.217.413 1.747l-2.413 2.413-2.413-2.413c.257-.531.413-1.119.413-1.747v-.696c.651.17 1.33.27 2.034.27zm-3.75 3.698 2.028 2.028-1.787.893-1.002-2.506c.271-.111.525-.251.761-.415zm7.432 0c.236.164.49.304.762.415l-1.002 2.506-1.787-.893zm-10.237.856.061-.009 1.935 4.837 4.525-2.264 4.524 2.263 1.935-4.837.061.009c4.914.757 8.48 4.913 8.48 9.885v2.562h-4.056c.037-.388.056-.778.056-1.171 0-1.321-.212-2.627-.63-3.881l-.422-1.265-1.896.633.421 1.265c.35 1.05.527 2.143.527 3.248 0 1.313-.247 2.597-.736 3.817l-.132.331c-.751 1.877-1.132 3.854-1.132 5.877 0 1.066.112 2.116.321 3.146h-14.642c.209-1.03.321-2.079.321-3.146 0-2.023-.381-4.001-1.131-5.874l-.134-.337c-.488-1.217-.735-2.501-.735-3.814 0-1.105.178-2.198.526-3.248l.422-1.265-1.896-.633-.423 1.265c-.417 1.254-.629 2.56-.629 3.881 0 .393.019.783.056 1.171h-4.056v-2.563c0-4.971 3.566-9.127 8.479-9.883zm-8.479 14.446h4.427c.125.468.269.931.45 1.385l.134.337c.656 1.638.989 3.365.989 5.132 0 1.946-.4 3.835-1.191 5.613l-2.459 5.533h-2.35zm34.365 18c.596-1.967 1.03-3.971 1.299-6h16.682c.269 2.028.686 4.034 1.282 6zm19.635-12h-22c-1.103 0-2-.897-2-2s.897-2 2-2h20.586l1.707 1.707 1.414-1.414-1.707-1.707v-2.586h4v4c0 2.206-1.794 4-4 4z"/><circle cx="15" cy="14" r="1"/><circle cx="21" cy="14" r="1"/><path d="m15.895 16.553-1.789.895.105.211c.722 1.444 2.174 2.341 3.789 2.341s3.067-.897 3.789-2.342l.105-.211-1.789-.895-.105.212c-.381.762-1.147 1.236-2 1.236s-1.619-.474-2-1.236z"/></g></g></svg>