<?xml version="1.0" standalone="no"?>
<!DOCTYPE svg PUBLIC "-//W3C//DTD SVG 20010904//EN"
 "https://www.w3.org/TR/2001/REC-SVG-20010904/DTD/svg10.dtd">
<svg version="1.0" xmlns="https://www.w3.org/2000/svg"
 width="402.000000pt" height="402.000000pt" viewBox="0 0 402.000000 402.000000"
 preserveAspectRatio="xMidYMid meet">
<metadata>
Created by potrace 1.14, written by Peter Selinger 2001-2017
</metadata>
<g transform="translate(0.000000,402.000000) scale(0.100000,-0.100000)"
fill="#000000" stroke="none">
<path d="M1765 3694 c-55 -7 -111 -15 -125 -17 -14 -3 -54 -10 -90 -17 -153
-27 -411 -125 -572 -216 -187 -106 -407 -285 -509 -414 -219 -278 -331 -525
-373 -827 -13 -98 -14 -331 -1 -408 56 -332 173 -588 377 -826 90 -105 117
-132 239 -233 218 -182 556 -337 869 -400 167 -34 253 -41 455 -40 474 3 913
156 1260 440 119 97 221 201 298 304 32 41 61 80 65 85 22 28 105 179 132 240
89 200 130 378 135 600 9 371 -114 727 -354 1025 -294 365 -735 614 -1221 690
-41 6 -86 14 -100 16 -59 12 -391 10 -485 -2z"/>
</g>
</svg>
