<svg id="Capa_1" enable-background="new 0 0 508.034 508.034" height="512" viewBox="0 0 508.034 508.034" width="512" xmlns="http://www.w3.org/2000/svg"><g><path d="m38.249 273.991h404.925c1.728-13.332 1.728-26.668 0-40h-404.925z" fill="#a7bdcd"/><path d="m400.129 139.032-38.456-7.753-1.453-59.51-44.648 6.753-20.842-53.185-47.069 25.665-36.154-41.01-36.154 41.01-47.069-25.665-20.842 53.186-44.648-6.753-1.453 59.51-38.456 7.753c-5.838 76.639-5.838 153.278 0 229.917l38.456 7.753 1.453 59.51 44.648-6.753 20.842 53.186 47.069-25.665 36.154 41.01 36.154-41.01 47.069 25.665 20.842-53.186 44.648 6.753 1.453-59.51 38.456-7.753c5.837-76.639 5.837-153.279 0-229.918zm-188.622 267.959c-84.5 0-153-68.5-153-153s68.5-153 153-153 153 68.5 153 153-68.5 153-153 153z" fill="#c5d3de"/><path d="m231.507 338.991h-40c-22.091 0-40-17.909-40-40v-90c0-22.091 17.909-40 40-40h40c22.091 0 40 17.909 40 40v90c0 22.091-17.909 40-40 40z" fill="#e2e9ee"/><path d="m446.931 183.991c-12.739 0-24.429 4.559-33.538 12.124-.731-19.326-1.829-38.618-3.293-57.843-.34-4.464-3.606-8.159-7.995-9.043l-30.63-6.175-1.258-51.529c-.258-6.179-5.516-10.502-11.493-9.644l-36.754 5.56-17.929-45.753c-2.211-5.342-8.469-8.117-14.098-5.131l-40.06 21.843-30.874-35.022c-4.195-4.54-11.042-4.468-15.003 0l-30.875 35.022-40.06-21.843c-4.887-2.695-11.822-.792-14.098 5.131l-17.929 45.752-36.754-5.56c-6.557-.89-11.331 4.078-11.493 9.644l-1.258 51.529-30.63 6.175c-4.389.885-7.655 4.579-7.995 9.043-5.849 76.785-5.849 154.651 0 231.436.34 4.464 3.606 8.159 7.995 9.043l30.63 6.176 1.258 51.529c.226 6.598 5.871 10.397 11.493 9.644l36.754-5.56 17.929 45.752c2.55 5.73 8.598 7.955 14.098 5.131l40.06-21.843 30.875 35.021c4.324 4.742 11.001 4.403 15.003 0l30.875-35.021 40.06 21.843c5.338 2.679 11.677.792 14.098-5.131l17.929-45.752 36.754 5.56c6.557.858 11.364-4.078 11.493-9.644l1.258-51.529 30.63-6.176c4.389-.885 7.654-4.579 7.995-9.043 1.464-19.223 2.562-38.515 3.293-57.84 9.109 7.565 20.8 12.122 33.538 12.122 28.991 0 52.576-23.585 52.576-52.576v-34.848c-.001-28.989-23.586-52.574-52.577-52.574zm-56.218 176.656-31.017 6.253c-4.577.923-7.906 4.891-8.021 9.559l-1.176 48.17-33.432-5.057c-4.621-.697-9.102 1.892-10.806 6.239l-16.703 42.624-37.11-20.234c-4.099-2.235-9.201-1.336-12.289 2.167l-28.652 32.501-28.652-32.501c-3.219-3.587-8.493-4.312-12.289-2.167l-37.11 20.234-16.703-42.624c-1.704-4.347-6.184-6.932-10.806-6.239l-33.432 5.057-1.176-48.17c-.114-4.668-3.443-8.636-8.021-9.559l-31.017-6.253c-2.281-32.096-3.517-64.368-3.73-96.656h20.24c4.186 69.159 51.492 126.676 115.386 146.03 12.758 3.865 18.558-15.286 5.8-19.15-49.366-14.945-87.444-55.878-98.333-106.88h69.843v15c0 27.57 22.43 50 50 50h40c27.57 0 50-22.43 50-50v-15h69.843c-10.898 51.048-49.031 92.006-98.463 106.92-12.763 3.853-6.983 23.003 5.78 19.15 63.972-19.298 111.346-76.861 115.536-146.07h20.24c-.213 32.288-1.449 64.56-3.73 96.656zm-109.206-136.656v-15c0-27.57-22.43-50-50-50h-40c-27.57 0-50 22.43-50 50v15h-69.838c13.786-64.573 71.15-113 139.838-113s126.052 48.427 139.838 113zm72.647 20c.515 5.613.362 15.354.002 20h-72.649v-20zm-92.647-35v90c0 16.542-13.458 30-30 30h-40c-16.542 0-30-13.458-30-30v-90c0-16.542 13.458-30 30-30h40c16.542 0 30 13.458 30 30zm-120 35v20h-72.649c-.448-4.742-.448-15.387.002-20zm232.686 0c-5.168-85.362-76.025-153-162.686-153s-157.517 67.638-162.686 153h-20.25c.213-32.288 1.449-64.56 3.73-96.656l31.016-6.253c4.578-.923 7.907-4.891 8.021-9.559l1.176-48.17 33.432 5.057c4.62.698 9.103-1.892 10.806-6.239l16.703-42.624 37.11 20.234c4.1 2.236 9.2 1.335 12.289-2.167l28.652-32.501 28.652 32.501c3.087 3.502 8.188 4.4 12.289 2.167l37.11-20.234 16.703 42.625c1.704 4.347 6.19 6.935 10.806 6.239l33.432-5.057 1.176 48.17c.114 4.668 3.443 8.636 8.021 9.559l31.016 6.253c2.281 32.096 3.517 64.367 3.73 96.656h-20.248zm40.246 0h19.998c.042 6.659.042 13.341 0 20h-19.998c.044-6.667.044-13.334 0-20zm65.068 27.424c0 17.962-14.614 32.576-32.576 32.576-13.507 0-25.118-8.264-30.048-20h27.46c5.473 0 9.929-4.399 9.999-9.872.171-13.356.171-26.9 0-40.256-.07-5.473-4.526-9.872-9.999-9.872h-27.46c4.931-11.736 16.542-20 30.048-20 17.962 0 32.576 14.614 32.576 32.576zm-258.07 135.576c0 5.523-4.477 10-10 10s-10-4.477-10-10 4.477-10 10-10 10 4.477 10 10z"/></g></svg>