<svg id="Social_Distancing" height="512" viewBox="0 0 64 64" width="512" xmlns="http://www.w3.org/2000/svg" data-name="Social Distancing"><path d="m46 61h-28l1.077-7h25.846z" fill="#56788b"/><rect fill="#56788b" height="44" rx="2" width="58" x="3" y="3"/><path d="m39 57h-14l1-10h12z" fill="#d9f0f4"/><path d="m7 7h50v36h-50z" fill="#d9f0f4"/><path d="m11 14h19v29h-19z" fill="#fff"/><path d="m19 28h3v6h-3z" fill="#ffcbbe"/><path d="m16 22h9a0 0 0 0 1 0 0v4.5a4.5 4.5 0 0 1 -4.5 4.5 4.5 4.5 0 0 1 -4.5-4.5v-4.5a0 0 0 0 1 0 0z" fill="#ffddce"/><path d="m15 18h6a4 4 0 0 1 4 4v1a0 0 0 0 1 0 0h-7a3 3 0 0 1 -3-3v-2a0 0 0 0 1 0 0z" fill="#3e3d42"/><path d="m27 43h-13v-4a5 5 0 0 1 5-5h3a5 5 0 0 1 5 5z" fill="#5bcbfa"/><path d="m49 21h-11l-3 3v-17a4 4 0 0 1 4-4h10a4 4 0 0 1 4 4v10a4 4 0 0 1 -4 4z" fill="#fbdf63"/><path d="m59 2h-54a3.009 3.009 0 0 0 -3 3v40a3.009 3.009 0 0 0 3 3h19.89l-.5 5h-5.31a1.008 1.008 0 0 0 -.99.85l-1.08 7a1 1 0 0 0 .99 1.15h28a1 1 0 0 0 .99-1.15l-1.08-7a1.008 1.008 0 0 0 -.99-.85h-5.31l-.5-5h19.89a3.009 3.009 0 0 0 3-3v-40a3.009 3.009 0 0 0 -3-3zm-23 5a3.009 3.009 0 0 1 3-3h10a3.009 3.009 0 0 1 3 3v10a3.009 3.009 0 0 1 -3 3h-11a1.033 1.033 0 0 0 -.71.29l-1.29 1.3zm2.41 15h10.59a5 5 0 0 0 5-5v-9h2v34h-25v-28a1 1 0 0 0 -1-1h-19a1 1 0 0 0 -1 1v28h-2v-34h26v16a.987.987 0 0 0 .62.92.838.838 0 0 0 .38.08 1.007 1.007 0 0 0 .71-.29zm-15.41 11.09v-1.7a5.494 5.494 0 0 0 3-4.89v-4.5a5 5 0 0 0 -5-5h-6a1 1 0 0 0 -1 1v2a4 4 0 0 0 1 2.62v3.88a5.494 5.494 0 0 0 3 4.89v1.7a6.007 6.007 0 0 0 -5 5.91v3h-1v-27h17v27h-1v-3a6.007 6.007 0 0 0 -5-5.91zm-6-9.23a4.091 4.091 0 0 0 1 .14h6v2.5a3.5 3.5 0 0 1 -7 0zm-1-3.86v-1h5a3.009 3.009 0 0 1 3 3h-6a2.006 2.006 0 0 1 -2-2zm5 11.97v1.03h-1v-1.03a4.182 4.182 0 0 0 1 0zm-2 3.03h3a4 4 0 0 1 4 4v3h-11v-3a4 4 0 0 1 4-4zm20.74 22.67a1.036 1.036 0 0 0 .26-.77l-.19-1.9h4.25l.77 5h-25.66l.77-5h4.25l-.19 1.9a1.036 1.036 0 0 0 .26.77 1 1 0 0 0 .74.33h14a1 1 0 0 0 .74-.33zm-13.63-1.67.8-8h10.18l.8 8zm33.89-11a1 1 0 0 1 -1 1h-54a1 1 0 0 1 -1-1v-40a1 1 0 0 1 1-1h30.03a4.84 4.84 0 0 0 -.93 2h-27.1a1 1 0 0 0 -1 1v36a1 1 0 0 0 1 1h50a1 1 0 0 0 1-1v-36a1 1 0 0 0 -1-1h-3.1a4.84 4.84 0 0 0 -.93-2h6.03a1 1 0 0 1 1 1z"/><path d="m38 7h3v2h-3z"/><path d="m43 7h7v2h-7z"/><path d="m38 11h5v2h-5z"/><path d="m45 11h5v2h-5z"/><path d="m38 15h12v2h-12z"/><path d="m35 29h4v2h-4z"/><path d="m41 29h11v2h-11z"/><path d="m35 34h17v2h-17z"/></svg>