<svg id="Capa_1" enable-background="new 0 0 512 512" height="512" viewBox="0 0 512 512" width="512" xmlns="http://www.w3.org/2000/svg"><g><g><path d="m346.749 504.502h-232.585c-19.026 0-34.45-15.424-34.45-34.45v-428.104c0-19.026 15.424-34.45 34.45-34.45h232.585c19.026 0 34.45 15.424 34.45 34.45v428.105c0 19.025-15.424 34.449-34.45 34.449z" fill="#8d9ca8"/></g><g><path d="m381.196 41.952v428.096c0 19.034-15.425 34.459-34.448 34.459h-19.993c19.024 0 34.448-15.425 34.448-34.459v-428.096c0-19.034-15.425-34.459-34.448-34.459h19.993c19.023 0 34.448 15.425 34.448 34.459z" fill="#7a8c98"/></g><g><g><path d="m335.362 37.873h-40.642c-3.783 0-7.248 2.117-8.974 5.484l-11.724 22.867c-2.659 5.188-7.278 8.327-12.246 8.327h-62.639c-4.968 0-9.587-3.139-12.246-8.327l-11.724-22.867c-1.726-3.366-5.191-5.484-8.974-5.484h-40.642c-7.358 0-13.316 5.958-13.316 13.305v409.643c0 7.348 5.958 13.305 13.316 13.305h209.81c7.358 0 13.316-5.958 13.316-13.305v-409.642c0-7.348-5.958-13.306-13.315-13.306z" fill="#f2fbff"/></g></g><g><g><path d="m335.362 37.873h-19.993c7.358 0 13.316 5.958 13.316 13.305v409.643c0 7.348-5.958 13.305-13.316 13.305h19.993c7.358 0 13.316-5.958 13.316-13.305v-409.642c-.001-7.348-5.959-13.306-13.316-13.306z" fill="#dff6fd"/></g></g><g><g><path d="m165.45 299.786v82.139c0 20.11 16.303 36.413 36.413 36.413h57.187c20.11 0 36.413-16.303 36.413-36.413v-82.139z" fill="#596c76"/></g><g><path d="m295.462 299.786v82.138c0 20.113-16.297 36.41-36.41 36.41h-17.581c20.112 0 36.41-16.298 36.41-36.41v-82.138z" fill="#465a61"/></g><g><path d="m288.913 474.125h-116.913v-15.802c0-32.285 26.172-58.457 58.457-58.457 32.285 0 58.457 26.172 58.457 58.457v15.802z" fill="#d9b1ee"/></g><g><path d="m288.913 458.322v15.805h-17.581v-15.805c0-16.139-6.54-30.758-17.124-41.333-8.615-8.623-19.919-14.566-32.542-16.464 2.866-.44 5.802-.659 8.79-.659 16.139 0 30.758 6.54 41.333 17.124 10.584 10.574 17.124 25.192 17.124 41.332z" fill="#cb97e7"/></g><g><path d="m230.457 417.75c-7.756 0-14.043-6.287-14.043-14.043v-32.369h28.086v32.369c0 7.756-6.287 14.043-14.043 14.043z" fill="#fed2a4"/></g><g><path d="m244.498 371.339v32.374c0 7.753-6.29 14.043-14.043 14.043-2.55 0-4.959-.681-7.021-1.89 4.197-2.418 7.021-6.96 7.021-12.153v-32.374z" fill="#ffbd86"/></g><g><path d="m230.457 389.171c-32.394 0-58.655-26.261-58.655-58.655v-47.83l26.151-15.737 32.504 15.737h58.655v47.83c0 32.394-26.261 58.655-58.655 58.655z" fill="#fed2a4"/></g><g><path d="m289.115 282.689v47.829c0 32.393-26.266 58.65-58.659 58.65-3.015 0-5.986-.229-8.878-.668 28.173-4.281 49.763-28.613 49.763-57.982v-47.829z" fill="#ffbd86"/></g><g><path d="m289.017 253.538c-4.643-9.761-11.011-17.114-17.842-22.649-11.784-9.547-26.251-14.321-40.718-14.321l-3.5.095c-10.075.537-20.048 3.396-29.002 8.572l-.002.001c-2.851 1.649-5.599 3.533-8.214 5.652-6.832 5.535-13.199 12.888-17.842 22.649-4.455 9.365-6.446 19.713-6.446 30.084v18.567h6.351c18.272-5.183 26.151-33.981 26.151-33.981 15.658 27.377 55.728 33.164 79.344 34.1 3.497.139 9.172-.16 11.815-.16h6.351v-18.525c0-10.371-1.991-20.719-6.446-30.084z" fill="#596c76"/></g><g><path d="m295.462 283.62v18.53s0 0-6.347 0c-2.505 0-7.727.264-11.234.176v-17.66c0-10.821-2.075-21.616-6.725-31.382-4.844-10.188-11.489-17.853-18.609-23.629-7.815-6.329-16.763-10.654-26.116-12.957.176-.018.352-.026.527-.035l3.499-.097c14.469 0 28.938 4.773 40.717 14.32 6.83 5.538 13.203 12.887 17.845 22.653 4.456 9.362 6.443 19.709 6.443 30.081z" fill="#465a61"/></g></g><g><path d="m350.287 62.933c-44.559.339-80.796 36.921-80.732 81.482.044 31.113 17.555 58.128 43.249 71.779 1.051.558 1.705 1.654 1.705 2.844v19.65c0 2.753 3.224 4.244 5.322 2.461l18.136-15.416c.699-.594 1.616-.854 2.525-.738 3.414.438 6.894.667 10.427.667 44.937 0 81.365-36.428 81.365-81.365.001-45.148-36.77-81.708-81.997-81.364z" fill="#99e6fc"/></g><g><path d="m432.29 144.298c0 44.935-36.428 81.363-81.373 81.363-3.529 0-7.008-.23-10.426-.67-.91-.11-1.829.15-2.519.74l-18.144 15.415c-2.099 1.789-5.318.3-5.318-2.459v-19.653c0-.54-.13-1.06-.39-1.52l9.947-8.447c.7-.6 1.619-.86 2.529-.74 3.409.44 6.888.66 10.427.66 44.935 0 81.363-36.428 81.363-81.363 0-15.905-4.568-30.74-12.456-43.275 16.203 14.864 26.36 36.217 26.36 59.949z" fill="#62dbfb"/></g><g><path d="m205.883 314.015c-4.141 0-7.497 3.356-7.497 7.498v10.023c0 4.141 3.357 7.498 7.497 7.498s7.497-3.356 7.497-7.498v-10.023c.001-4.142-3.356-7.498-7.497-7.498z"/><path d="m255.03 314.015c-4.141 0-7.497 3.356-7.497 7.498v10.023c0 4.141 3.357 7.498 7.497 7.498 4.141 0 7.497-3.356 7.497-7.498v-10.023c.001-4.142-3.356-7.498-7.497-7.498z"/><path d="m413.515 81.221c-7.343-7.288-15.73-13.125-24.818-17.393v-21.88c-.001-23.13-18.818-41.948-41.948-41.948h-232.584c-23.13 0-41.947 18.818-41.947 41.948v428.104c0 23.13 18.817 41.948 41.947 41.948h232.585c23.13 0 41.947-18.818 41.947-41.948v-245.335c30.161-14.225 51.086-44.923 51.086-80.421 0-23.864-9.329-46.265-26.268-63.075zm-39.814 388.831c0 14.862-12.091 26.953-26.952 26.953h-232.584c-14.862 0-26.952-12.091-26.952-26.953v-428.104c0-14.862 12.091-26.953 26.952-26.953h232.585c14.862 0 26.952 12.091 26.952 26.953v16.457c-5.687-1.498-11.549-2.436-17.527-2.789v-4.437c0-11.471-9.337-20.804-20.813-20.804h-40.642c-6.627 0-12.622 3.663-15.646 9.56l-11.724 22.869c-1.343 2.621-3.479 4.25-5.574 4.25h-62.639c-2.094 0-4.231-1.628-5.574-4.251l-11.724-22.867c-3.024-5.897-9.018-9.56-15.645-9.56h-40.642c-11.476 0-20.813 9.333-20.813 20.804v409.642c0 11.471 9.337 20.804 20.813 20.804h209.81c11.476 0 20.813-9.333 20.813-20.804v-227.823c6.021-.353 11.883-1.307 17.527-2.806v239.859zm-92.086-139.536c0 28.208-22.949 51.158-51.158 51.158-28.208 0-51.158-22.949-51.158-51.158v-23.293c10.027-5.139 16.75-15.389 20.83-23.859 7.936 8.089 18.692 14.429 32.137 18.919 16.122 5.385 33.225 7.058 44.734 7.514.369.015 4.614.032 4.614.021.001.002.001 20.698.001 20.698zm6.351 32.632v18.777c0 11.103-6.293 20.758-15.498 25.599-6.02-4.985-12.938-8.921-20.47-11.531v-2.934c15.296-5.288 28.065-16.039 35.968-29.911zm-50.963 33.195v7.365c0 3.609-2.937 6.546-6.546 6.546-3.609 0-6.546-2.937-6.546-6.546v-7.365c2.154.213 4.337.326 6.546.326s4.392-.114 6.546-.326zm-28.087-3.284v2.952c-7.527 2.609-14.438 6.542-20.455 11.522-9.212-4.841-15.513-14.499-15.513-25.607v-18.777c7.902 13.871 20.672 24.622 35.968 29.91zm-29.418 65.264c0-20.977 12.748-39.023 30.898-46.828 3.131 8.035 10.932 13.753 20.062 13.753 9.129 0 16.93-5.718 20.061-13.752 18.151 7.804 30.898 25.849 30.898 46.827v8.305h-101.919zm171.422-240.159c-3.155 0-6.342-.204-9.478-.606-3.004-.388-6.043.514-8.331 2.462l-11.105 9.439v-10.421c0-3.975-2.179-7.603-5.685-9.465-24.183-12.848-39.23-37.819-39.269-65.169-.027-18.998 7.221-37.093 20.408-50.952 2.855-3 2.737-7.745-.263-10.6-2.999-2.853-7.745-2.736-10.599.264-15.857 16.664-24.572 38.438-24.54 61.309.046 32.032 17.205 61.353 44.954 77.138v17.123c0 4.231 2.385 7.961 6.225 9.737 1.463.677 3.005 1.009 4.533 1.009 2.481 0 4.923-.876 6.917-2.571l16.493-14.019v227.979c0 3.203-2.61 5.809-5.818 5.809h-38.951v-8.307c0-14.887-4.96-28.634-13.312-39.682 11.952-7.853 19.862-21.376 19.862-36.715v-98.303c0-12.095-2.413-23.3-7.176-33.311-.243-.509-.489-1.013-.74-1.511-1.862-3.7-6.369-5.192-10.068-3.327-3.698 1.861-5.188 6.369-3.327 10.067.203.404.403.812.597 1.218 3.795 7.978 5.719 17.016 5.719 26.864v11.039c-.835.016-1.814.043-2.864.073-2.464.07-5.529.158-7.508.08-21.317-.844-59.164-5.907-73.133-30.331-1.505-2.631-4.445-4.097-7.452-3.715-3.006.382-5.488 2.536-6.287 5.459-1.588 5.804-7.979 21.957-17.773 27.409v-10.015c0-9.847 1.924-18.885 5.719-26.863 3.724-7.827 9.037-14.571 15.792-20.044 2.267-1.836 4.694-3.509 7.216-4.969.011-.006.021-.013.032-.019 7.713-4.458 16.548-7.076 25.556-7.572l3.292-.089c10.94.019 21.533 3.084 30.643 8.868 3.497 2.222 8.13 1.186 10.349-2.31s1.185-8.129-2.31-10.348c-11.543-7.331-24.953-11.205-38.779-11.205-.068 0-.135.001-.203.003l-3.499.095c-.066.002-.132.004-.197.008-11.374.607-22.546 3.907-32.312 9.544-.016.009-.031.018-.046.026-3.208 1.856-6.297 3.981-9.18 6.317-8.507 6.892-15.2 15.388-19.893 25.253-4.76 10.005-7.173 21.211-7.173 33.304v98.304c0 15.343 7.916 28.86 19.873 36.712-8.357 11.047-13.323 24.794-13.323 39.685v8.307h-38.951c-3.208 0-5.818-2.605-5.818-5.809v-409.641c0-3.203 2.61-5.809 5.818-5.809h40.642c.975 0 1.857.539 2.302 1.407l11.724 22.866c3.922 7.652 11.171 12.405 18.918 12.405h62.639c7.747 0 14.996-4.753 18.917-12.404l11.724-22.867c.445-.868 1.327-1.407 2.302-1.407h40.642c3.208 0 5.818 2.606 5.818 5.809v4.797c-8.176.898-16.154 2.917-23.809 6.06-3.83 1.573-5.661 5.953-4.088 9.784 1.572 3.83 5.954 5.657 9.783 4.089 8.677-3.563 17.855-5.406 27.278-5.478 19.822-.184 38.529 7.461 52.608 21.433 14.081 13.975 21.835 32.596 21.835 52.433-.002 40.73-33.139 73.867-73.87 73.867z"/><path d="m389.645 107.265h-77.45c-4.141 0-7.497 3.356-7.497 7.497s3.357 7.498 7.497 7.498h77.45c4.141 0 7.497-3.356 7.497-7.498 0-4.141-3.356-7.497-7.497-7.497z"/><path d="m389.645 136.757h-25.039c-4.141 0-7.497 3.356-7.497 7.497s3.357 7.497 7.497 7.497h25.039c4.141 0 7.497-3.356 7.497-7.497s-3.356-7.497-7.497-7.497z"/><path d="m312.195 151.752h17.381c4.141 0 7.497-3.356 7.497-7.497s-3.357-7.497-7.497-7.497h-17.381c-4.141 0-7.497 3.356-7.497 7.497s3.357 7.497 7.497 7.497z"/><path d="m389.645 166.249h-77.45c-4.141 0-7.497 3.356-7.497 7.498s3.357 7.498 7.497 7.498h77.45c4.141 0 7.497-3.356 7.497-7.498s-3.356-7.498-7.497-7.498z"/></g></g></svg>