<svg id="Capa_1" enable-background="new 0 0 512 512" height="512" viewBox="0 0 512 512" width="512" xmlns="http://www.w3.org/2000/svg"><g><g><g><g><path d="m268.439 381.432v-178.341c0-55.15-44.708-99.857-99.857-99.857-55.15 0-99.857 44.708-99.857 99.857v178.341z" fill="#ffe07d"/><path d="m168.581 103.233c-11.059 0-21.696 1.802-31.639 5.121 39.641 13.233 68.219 50.646 68.219 94.737v178.341h63.277v-178.342c.001-55.149-44.707-99.857-99.857-99.857z" fill="#ffd064"/><g><g><g><g><path d="m280.49 359.217-68.221-18.531c-4.358-1.184-7.383-5.14-7.383-9.656v-39.604h-72.61v39.604c0 4.516-3.025 8.473-7.383 9.656l-68.221 18.531c-29.025 7.885-49.172 34.234-49.172 64.312v49.747c0 17.18 13.927 31.107 31.107 31.107h259.949c17.18 0 31.107-13.927 31.107-31.107v-49.747c-.001-30.078-20.148-56.427-49.173-64.312z" fill="#ffddce"/><path d="m280.49 359.217-34.869-9.472c-16.454 18.655-44.806 30.982-77.04 30.982s-60.586-12.327-77.04-30.982l-34.869 9.472c-29.025 7.885-49.172 34.234-49.172 64.312v49.747c0 17.18 13.927 31.107 31.107 31.107h259.949c17.18 0 31.107-13.927 31.107-31.107v-49.747c-.001-30.078-20.148-56.427-49.173-64.312z" fill="#eaaadd"/><g><path d="m280.49 359.217-34.869-9.472c-4.597 5.212-10.124 9.929-16.404 14.022 22.424 11.051 37.169 34.037 37.169 59.761v49.747c0 17.18-13.927 31.107-31.107 31.107h63.277c17.18 0 31.107-13.927 31.107-31.107v-49.747c-.001-30.077-20.148-56.426-49.173-64.311z" fill="#e490d0"/></g></g></g></g></g><path d="m158.178 170.427h-15.462c-25.353 0-45.906 20.553-45.906 45.906v26.134c0 39.638 32.133 71.77 71.77 71.77 39.638 0 71.77-32.133 71.77-71.77v-27.343c0-8.034-6.513-14.546-14.546-14.546-26.851 0-50.981-11.642-67.626-30.151z" fill="#ffddce"/><path d="m225.805 200.578c-7.145 0-14.095-.832-20.765-2.391.079 1.625.121 3.259.121 4.903v101.123c21.064-12.506 35.19-35.471 35.19-61.745v-27.343c.001-8.034-6.512-14.547-14.546-14.547z" fill="#ffcbbe"/></g></g><g><g><g><g><g><path d="m479.644 7.618h-157.652c-13.727 0-24.856 11.128-24.856 24.856v97.026c0 13.727 11.128 24.856 24.856 24.856h10.758c2.843 0 4.961 2.621 4.365 5.401l-10.579 49.322c-.589 2.746 2.764 4.569 4.748 2.582l53.212-53.291c2.566-2.57 6.048-4.013 9.679-4.013h85.469c13.727 0 24.856-11.128 24.856-24.856v-97.028c0-13.727-11.128-24.855-24.856-24.855z" fill="#b1e4f9"/></g></g></g></g><g fill="#90d8f9"><path d="m337.115 159.756-10.579 49.322c-.589 2.746 2.764 4.569 4.748 2.582l53.212-53.291c2.566-2.569 6.048-4.013 9.679-4.013h-61.425c2.842-.001 4.961 2.62 4.365 5.4z"/><path d="m479.644 7.618h-63.277c13.728 0 24.856 11.128 24.856 24.856v97.026c0 13.727-11.128 24.856-24.856 24.856h63.277c13.727 0 24.856-11.128 24.856-24.856v-97.027c0-13.727-11.128-24.855-24.856-24.855z"/></g></g></g><g><path d="m457.506 48.373h-112.785c-4.142 0-7.5 3.357-7.5 7.5s3.358 7.5 7.5 7.5h112.785c4.142 0 7.5-3.357 7.5-7.5s-3.358-7.5-7.5-7.5z"/><path d="m457.506 94.802h-112.785c-4.142 0-7.5 3.357-7.5 7.5s3.358 7.5 7.5 7.5h112.785c4.142 0 7.5-3.357 7.5-7.5s-3.358-7.5-7.5-7.5z"/><path d="m282.456 351.979-6.517-1.77v-147.118c0-59.197-48.16-107.357-107.357-107.357-12.521 0-24.544 2.162-35.726 6.119-.329.093-.65.204-.959.339-41.186 15.021-70.672 54.581-70.672 100.899v147.118l-6.518 1.77c-32.211 8.75-54.707 38.172-54.707 71.549v7.437c0 4.143 3.358 7.5 7.5 7.5s7.5-3.357 7.5-7.5v-7.437c0-26.624 17.945-50.094 43.638-57.074l30.517-8.289c39.782 40.087 119.117 40.04 158.853 0l30.516 8.289c25.694 6.979 43.639 30.449 43.639 57.074v49.747c0 13.017-10.59 23.606-23.606 23.606h-16.409v-35.987c0-4.143-3.358-7.5-7.5-7.5s-7.5 3.357-7.5 7.5v35.987h-197.133v-35.987c0-4.143-3.358-7.5-7.5-7.5s-7.5 3.357-7.5 7.5v35.987h-16.409c-13.016.001-23.606-10.589-23.606-23.606v-7.304c0-4.143-3.358-7.5-7.5-7.5s-7.5 3.357-7.5 7.5v7.304c0 21.288 17.319 38.606 38.606 38.606h259.949c21.288 0 38.606-17.318 38.606-38.606v-49.747c.001-33.377-22.495-62.799-54.705-71.549zm-206.232-5.844v-143.044c0-36.351 21.112-67.859 51.717-82.92 1.668 15.628 7.007 30.174 15.138 42.756h-.362c-29.448 0-53.406 23.958-53.406 53.406v26.135c0 27.525 14.108 51.809 35.466 66.025v22.536c0 1.128-.76 2.123-1.849 2.419-4.315 1.172-42.025 11.415-46.704 12.687zm78.691-168.208c18.047 18.723 43.428 30.151 70.89 30.151 3.885 0 7.046 3.161 7.046 7.047v27.343c0 35.438-28.832 64.271-64.271 64.271s-64.271-28.832-64.271-64.271v-26.135c0-21.178 17.229-38.406 38.406-38.406zm-48.5 175.55 20.443-5.553c7.606-2.065 12.918-9.013 12.918-16.895v-14.732c18.2 7.126 38.747 7.385 57.609 0v14.732c0 7.881 5.312 14.828 12.917 16.894l20.444 5.553c-33.459 26.325-90.848 26.343-124.331.001zm154.523-7.342c-4.608-1.252-42.702-11.6-46.704-12.688-1.089-.295-1.849-1.29-1.849-2.418v-22.536c21.358-14.217 35.466-38.5 35.466-66.025v-27.343c0-12.156-9.89-22.047-22.046-22.047-15.294 0-30.399-4.295-43.214-12.087-.006-.004-.013-.008-.019-.011-22.785-13.862-38.428-38.332-40.044-66.498 8.267-2.435 17.009-3.748 26.053-3.748 50.926 0 92.357 41.432 92.357 92.357z"/><path d="m504.5 45.844c4.142 0 7.5-3.357 7.5-7.5v-5.87c0-17.841-14.515-32.355-32.356-32.355h-157.652c-17.841 0-32.355 14.515-32.355 32.355v97.025c0 17.841 14.515 32.355 32.355 32.355h7.002l-9.792 45.649c-.968 4.512 1.105 9.024 5.159 11.229 4.053 2.204 8.968 1.492 12.229-1.773l53.211-53.291c1.168-1.17 2.721-1.813 4.373-1.813h85.469c17.841 0 32.356-14.515 32.356-32.355v-56.087c0-4.143-3.358-7.5-7.5-7.5s-7.5 3.357-7.5 7.5v56.086c0 9.57-7.786 17.355-17.356 17.355h-85.469c-5.662 0-10.984 2.207-14.986 6.214l-41.988 42.051 7.248-33.79c1.6-7.457-4.087-14.475-11.698-14.475h-10.758c-9.57 0-17.355-7.785-17.355-17.355v-97.025c0-9.57 7.786-17.355 17.355-17.355h157.652c9.57 0 17.356 7.785 17.356 17.355v5.87c0 4.142 3.358 7.5 7.5 7.5z"/></g></g></svg>