<svg id="Layer_1" enable-background="new 0 0 512.001 512.001" height="512" viewBox="0 0 512.001 512.001" width="512" xmlns="http://www.w3.org/2000/svg"><g><g clip-rule="evenodd" fill-rule="evenodd"><path d="m287.202 299.587c.952 3.51 2.486 7.2 4.696 11.028 9.439 16.349 28.477 31.339 38.099 33.917 9.622-2.578 28.66-17.568 38.099-33.917 20.51-35.524-17.206-59.131-38.099-38.238-18.641-18.642-50.675-1.857-42.795 27.21z" fill="#ff5d7d"/><path d="m291.898 310.615c-2.21-3.828-3.744-7.518-4.693-11.029-.732-.036-1.467-.054-2.208-.054h-230c-24.596.001-44.997 20.192-44.997 44.839l.007 61.969c0 7.876 8.973 13.507 17.417 6.401l27.574-23.207h230c24.75 0 45-20.25 45-45-9.623-2.58-28.66-17.569-38.1-33.919z" fill="#b278d3"/><path d="m224.798 131.048c-.952 3.51-2.486 7.2-4.696 11.028-9.439 16.349-28.477 31.339-38.099 33.917-9.622-2.578-28.66-17.568-38.099-33.917-20.51-35.524 17.206-59.131 38.099-38.238 18.642-18.642 50.676-1.857 42.795 27.21z" fill="#ff5d7d"/><path d="m220.102 142.076c2.21-3.828 3.744-7.517 4.693-11.029.732-.036 1.468-.054 2.208-.054h230c24.596 0 44.998 20.192 44.998 44.838l-.007 61.969c0 7.876-8.973 13.507-17.417 6.401l-27.574-23.208h-230c-24.75 0-45-20.25-45-45 9.622-2.578 28.66-17.567 38.099-33.917z" fill="#66e0f7"/></g><g><path d="m370.061 261.931c-11.931-9.155-27.648-9.716-40.062-2.187-12.411-7.529-28.132-6.97-40.063 2.187-7.796 5.982-13.474 15.738-13.878 27.601h-51.058c-13.268.529-13.258 19.476 0 20h55.156c7.546 17.299 25.597 33.993 39.268 41.327-2.987 16.289-17.287 28.673-34.426 28.673h-230c-2.356 0-4.637.832-6.439 2.349l-27.574 23.208c-.399.336-.727.548-.978.681l-.007-61.399c0-19.21 15.7-34.838 34.998-34.838h80.002c13.268-.529 13.258-19.476 0-20h-80.002c-30.326 0-54.998 24.6-54.998 54.839l.007 61.967c0 7.664 4.419 14.672 11.258 17.855 7.666 3.496 15.861 1.81 22.599-3.803l24.783-20.858h226.352c28.008 0 51.193-21.043 54.575-48.15 31.132-16.194 63.751-61.978 30.487-89.452zm-10.624 43.684c-7.611 13.184-21.952 24.607-29.438 28.238-13.674-6.151-48.07-39.283-27.889-56.055 6.16-4.628 14.745-4.513 20.817 1.65 3.724 3.873 10.419 3.873 14.143 0 6.852-6.851 15.593-5.657 20.816-1.649 5.899 4.527 9.405 14.211 1.551 27.816z"/><path d="m280.003 344.532c0-5.523-4.478-10-10-10h-.008c-5.522 0-9.996 4.477-9.996 10 .529 13.263 19.479 13.262 20.004 0z"/><path d="m235.003 344.532c0-5.523-4.478-10-10-10h-.007c-5.522 0-9.997 4.477-9.997 10 .529 13.263 19.479 13.262 20.004 0z"/><path d="m180.004 354.532c13.268-.529 13.258-19.476 0-20h-.008c-13.268.53-13.25 19.478.008 20z"/><path d="m134.996 334.532c-5.522 0-9.996 4.477-9.996 10 .528 13.263 19.479 13.263 20.004 0 0-5.525-4.483-10.004-10.008-10z"/><path d="m89.997 334.532c-5.522 0-9.997 4.477-9.997 10 .528 13.263 19.479 13.263 20.004 0 0-5.525-4.482-10.004-10.007-10z"/><path d="m457.003 120.994h-221.058c-.647-27.948-31.379-43.872-53.942-29.788-33.27-19.001-69.827 17.31-46.759 55.871 8.919 15.448 24.971 29.527 37.183 35.767 3.383 27.107 26.568 48.15 54.575 48.15h226.352l24.783 20.858c4.401 3.705 9.455 5.618 14.438 5.618 2.784 0 5.547-.598 8.16-1.814 6.839-3.183 11.258-10.191 11.258-17.854l.007-61.97c.001-30.238-24.671-54.838-54.997-54.838zm-304.439 16.082c-7.854-13.604-4.349-23.29 1.551-27.817 6.16-4.628 14.745-4.513 20.816 1.649 3.724 3.874 10.418 3.873 14.143 0 6.849-6.851 15.592-5.659 20.817-1.649 20.191 16.775-14.245 49.925-27.889 56.054-7.485-3.629-21.826-15.053-29.438-28.237zm339.429 100.154c-.251-.133-.578-.345-.977-.68l-27.574-23.208c-1.803-1.517-4.083-2.349-6.439-2.349h-230c-17.139 0-31.44-12.384-34.426-28.673 13.67-7.334 31.722-24.029 39.268-41.327h225.158c19.298 0 34.998 15.628 34.998 34.837z"/><path d="m241.998 165.993c-13.268.529-13.258 19.476 0 20h.007c13.269-.53 13.251-19.478-.007-20z"/><path d="m286.997 165.993c-13.268.529-13.258 19.476 0 20h.008c13.268-.53 13.25-19.478-.008-20z"/><path d="m331.997 165.993c-13.268.529-13.258 19.476 0 20h.008c13.268-.53 13.25-19.478-.008-20z"/><path d="m376.997 165.993c-13.268.529-13.258 19.476 0 20h.007c13.269-.53 13.251-19.478-.007-20z"/><path d="m421.997 165.993c-13.268.529-13.258 19.476 0 20h.007c13.269-.53 13.251-19.478-.007-20z"/><path d="m180.004 309.533c13.268-.529 13.258-19.476 0-20h-.008c-13.268.53-13.25 19.478.008 20z"/></g></g></svg>